<svg width="37" height="37" viewBox="0 0 37 37" fill="none" xmlns="http://www.w3.org/2000/svg">
<path d="M26.5172 14.8001L19.1172 19.4251L11.7172 14.8001V12.9501L19.1172 17.5751L26.5172 12.9501M26.5172 11.1001H11.7172C10.6904 11.1001 9.86719 11.9233 9.86719 12.9501V24.0501C9.86719 24.5407 10.0621 25.0113 10.409 25.3582C10.756 25.7052 11.2265 25.9001 11.7172 25.9001H26.5172C27.0078 25.9001 27.4784 25.7052 27.8253 25.3582C28.1723 25.0113 28.3672 24.5407 28.3672 24.0501V12.9501C28.3672 12.4594 28.1723 11.9889 27.8253 11.642C27.4784 11.295 27.0078 11.1001 26.5172 11.1001Z" fill="#0BC7B6"/>
<circle cx="18.5" cy="18.5" r="18" stroke="#0BC7B6"/>
</svg>
