<svg width="37" height="37" viewBox="0 0 37 37" fill="none" xmlns="http://www.w3.org/2000/svg">
<circle cx="18.5" cy="18.5" r="18" stroke="#0BC7B6"/>
<path d="M19.1163 9.8667C16.9909 9.86897 14.9533 10.6354 13.4504 11.9979C11.9475 13.3604 11.1021 15.2077 11.0996 17.1346C11.0971 18.7092 11.6644 20.2411 12.7146 21.4953C12.7146 21.4953 12.9332 21.7563 12.969 21.7939L19.1163 28.3667L25.2665 21.7906C25.2986 21.7556 25.5179 21.4953 25.5179 21.4953L25.5187 21.4933C26.5683 20.2397 27.1354 18.7085 27.1329 17.1346C27.1304 15.2077 26.285 13.3604 24.7821 11.9979C23.2793 10.6354 21.2417 9.86897 19.1163 9.8667ZM19.1163 19.7774C18.5397 19.7774 17.9761 19.6224 17.4967 19.332C17.0173 19.0416 16.6437 18.6289 16.423 18.1459C16.2024 17.663 16.1447 17.1316 16.2571 16.619C16.3696 16.1063 16.6473 15.6354 17.055 15.2658C17.4626 14.8962 17.9821 14.6445 18.5476 14.5425C19.113 14.4405 19.6992 14.4928 20.2319 14.6929C20.7645 14.8929 21.2198 15.2316 21.5401 15.6663C21.8605 16.1009 22.0314 16.6118 22.0314 17.1346C22.0305 17.8352 21.723 18.5069 21.1765 19.0024C20.63 19.4978 19.8891 19.7765 19.1163 19.7774Z" fill="#0BC7B6"/>
</svg>
