<svg width="133" height="120" viewBox="0 0 133 120" fill="none" xmlns="http://www.w3.org/2000/svg">
<path d="M53.1507 18.9165C53.9386 17.2178 54.3813 15.3268 54.3813 13.3312C54.3813 5.99071 48.4307 0.0396118 41.0898 0.0396118C35.6137 0.0396118 30.913 3.35185 28.8774 8.0814L2.48316 59.9813C0.922134 62.1598 0.000488281 64.8274 0.000488281 67.712V107.586H0.0379244C0.525423 114.483 6.27085 119.928 13.292 119.928C20.3132 119.928 26.0586 114.483 26.5461 107.586H26.5836V71.2346L53.1822 18.9324L53.1507 18.9165Z" fill="url(#paint0_linear_318_479)"/>
<path d="M78.7463 101.842L54.2509 11.4866C53.3151 4.74983 47.333 -0.372998 40.2438 0.0663106C34.0668 0.448823 28.8967 5.19645 27.9539 11.3132C27.6841 13.0648 27.7779 14.755 28.145 16.3401L28.0327 16.3706L53.4523 110.137L53.5267 110.117C55.1157 116.075 60.7381 120.387 67.2924 119.944C73.6596 119.513 78.9111 114.463 79.5836 108.117C79.8198 105.887 79.4958 103.758 78.7463 101.842Z" fill="url(#paint1_linear_318_479)"/>
<path d="M104.959 13.2916C104.959 5.95073 99.0088 6.10352e-05 91.6679 6.10352e-05C85.1807 6.10352e-05 79.7821 4.64829 78.6139 10.7956L53.7532 102.5C53.3169 103.815 53.0776 105.221 53.0776 106.683C53.0776 114.024 59.0283 119.975 66.3692 119.975C72.5169 119.975 77.6875 115.8 79.2064 110.131L79.2257 110.136L104.645 16.3702L104.6 16.3577C104.833 15.3728 104.959 14.3475 104.959 13.2916Z" fill="url(#paint2_linear_318_479)"/>
<path d="M130.274 59.9417L103.88 8.04185C101.844 3.3123 97.1432 6.10352e-05 91.6675 6.10352e-05C84.3266 6.10352e-05 78.376 5.95073 78.376 13.2916C78.376 15.2872 78.8187 17.1787 79.607 18.877L79.5756 18.8929L106.175 71.1951V107.547H106.212C106.7 114.444 112.445 119.889 119.466 119.889C126.487 119.889 132.233 114.444 132.72 107.547H132.758V67.6725C132.757 64.7883 131.835 62.1202 130.274 59.9417Z" fill="url(#paint3_linear_318_479)"/>
<path d="M105.816 11.8502C113.101 26.1593 114.618 42.7179 110.053 58.1122L106.173 71.1951V107.547H106.211C106.698 114.444 112.444 119.889 119.465 119.889C126.486 119.889 132.232 114.444 132.719 107.547H132.757V67.6724C132.757 64.7879 131.834 62.1202 130.274 59.9417L105.816 11.8502Z" fill="url(#paint4_linear_318_479)"/>
<path d="M92.7402 0.0422014C85.7827 -0.503814 79.8454 4.31223 78.6131 10.7956L75.1498 27.7113C69.3833 55.8761 70.434 85.0111 78.2142 112.688C78.6256 111.878 78.9655 111.026 79.2052 110.131L79.2245 110.136C79.2245 110.136 106.33 15.0045 105.57 10.95C104.441 4.93225 98.8441 0.521095 92.7402 0.0422014Z" fill="url(#paint5_linear_318_479)"/>
<path d="M52.8204 107.805C46.516 83.7198 46.1378 43.6404 54.23 14.2627L52.8204 7.0935C50.5864 2.89877 46.1748 0.0400391 41.0899 0.0400391C33.7494 0.0400391 27.7983 5.99071 27.7983 13.3316C27.7983 14.3668 27.9205 15.3728 28.1447 16.3401L28.0324 16.3706L52.8204 107.805Z" fill="url(#paint6_linear_318_479)"/>
<path d="M42.565 0.119197C36.4693 -0.537399 31.0935 2.93189 28.8772 8.08139L26.3218 13.1057C31.5801 30.4827 32.0448 48.9577 27.6672 66.5774L26.3218 71.9919V109.231C26.4281 108.693 26.5059 108.145 26.5451 107.586H26.5825V71.2346L53.1811 18.9324L53.1497 18.9165C54.1595 16.7398 54.6023 14.2468 54.2731 11.6234C53.5163 5.5871 48.6138 0.770629 42.565 0.119197Z" fill="url(#paint7_linear_318_479)"/>
<path d="M13.2915 119.929C20.2861 119.929 26.0134 114.524 26.5383 107.664L26.4854 106.128C25.8977 89.1181 15.6107 73.9506 0.0240952 67.1127C0.0150594 67.3123 0 67.5102 0 67.712V107.586H0.0374361C0.524935 114.484 6.27079 119.929 13.2915 119.929Z" fill="url(#paint8_linear_318_479)"/>
<path d="M119.575 120C112.581 120 106.854 114.595 106.329 107.735C119.59 99.5152 128.895 86.2103 132.065 70.9335L132.843 67.1841C132.852 67.3837 132.867 67.5816 132.867 67.7834V107.658H132.83C132.342 114.555 126.597 120 119.575 120Z" fill="url(#paint9_linear_318_479)"/>
<defs>
<linearGradient id="paint0_linear_318_479" x1="1.41707" y1="34.2089" x2="52.9656" y2="85.7575" gradientUnits="userSpaceOnUse">
<stop offset="0.3393" stop-color="#91B8BD"/>
<stop offset="0.9414" stop-color="#C6DFE0"/>
</linearGradient>
<linearGradient id="paint1_linear_318_479" x1="14.6891" y1="20.9675" x2="92.7735" y2="99.0519" gradientUnits="userSpaceOnUse">
<stop offset="1.3e-07" stop-color="#9ABDC4"/>
<stop offset="0.8143" stop-color="#F0FFFA"/>
<stop offset="1" stop-color="#EDFDF8"/>
</linearGradient>
<linearGradient id="paint2_linear_318_479" x1="52.5979" y1="33.5671" x2="105.439" y2="86.408" gradientUnits="userSpaceOnUse">
<stop stop-color="#F0FFFA"/>
<stop offset="0.4004" stop-color="#EFFDF8"/>
<stop offset="1" stop-color="#D4C8BC"/>
</linearGradient>
<linearGradient id="paint3_linear_318_479" x1="65.8923" y1="20.2697" x2="145.24" y2="99.6174" gradientUnits="userSpaceOnUse">
<stop stop-color="#D4C8BC"/>
<stop offset="0.3099" stop-color="#D4C8BC"/>
<stop offset="0.3775" stop-color="#CABCB2"/>
<stop offset="0.7774" stop-color="#8F767A"/>
<stop offset="0.9639" stop-color="#785A64"/>
</linearGradient>
<linearGradient id="paint4_linear_318_479" x1="119.286" y1="11.8502" x2="119.286" y2="119.889" gradientUnits="userSpaceOnUse">
<stop stop-color="#D4C8BC"/>
<stop offset="0.4026" stop-color="#D4C8BC"/>
<stop offset="0.4606" stop-color="#CABCB2"/>
<stop offset="0.8038" stop-color="#8F767A"/>
<stop offset="0.9639" stop-color="#785A64"/>
</linearGradient>
<linearGradient id="paint5_linear_318_479" x1="52.0298" y1="86.5031" x2="118.11" y2="20.4228" gradientUnits="userSpaceOnUse">
<stop stop-color="#F0FFFA"/>
<stop offset="0.4681" stop-color="#D4C8BC"/>
<stop offset="1" stop-color="#785A64"/>
</linearGradient>
<linearGradient id="paint6_linear_318_479" x1="21.5702" y1="76.5547" x2="72.3362" y2="25.7887" gradientUnits="userSpaceOnUse">
<stop offset="1.3e-07" stop-color="#9ABDC4"/>
<stop offset="0.8143" stop-color="#F0FFFA"/>
<stop offset="1" stop-color="#EDFDF8"/>
</linearGradient>
<linearGradient id="paint7_linear_318_479" x1="8.72368" y1="26.9022" x2="58.6876" y2="76.866" gradientUnits="userSpaceOnUse">
<stop offset="0.0042" stop-color="#91B8BD"/>
<stop offset="0.9414" stop-color="#C6DFE0"/>
</linearGradient>
<linearGradient id="paint8_linear_318_479" x1="13.2693" y1="67.1127" x2="13.2693" y2="119.929" gradientUnits="userSpaceOnUse">
<stop offset="0.3393" stop-color="#91B8BD"/>
<stop offset="0.9414" stop-color="#C6DFE0"/>
</linearGradient>
<linearGradient id="paint9_linear_318_479" x1="119.598" y1="67.1843" x2="119.598" y2="120" gradientUnits="userSpaceOnUse">
<stop stop-color="#D4C8BC"/>
<stop offset="0.4026" stop-color="#D4C8BC"/>
<stop offset="0.4606" stop-color="#CABCB2"/>
<stop offset="0.8038" stop-color="#8F767A"/>
<stop offset="0.9639" stop-color="#785A64"/>
</linearGradient>
</defs>
</svg>
