<svg width="37" height="37" viewBox="0 0 37 37" fill="none" xmlns="http://www.w3.org/2000/svg">
<path d="M27.2055 28.3667C17.3416 28.3806 9.85484 20.8048 9.86525 11.0264C9.86525 10.387 10.3832 9.8667 11.0215 9.8667H14.074C14.6463 9.8667 15.1331 10.2876 15.2175 10.8541C15.4188 12.2128 15.8141 13.5355 16.3911 14.7819L16.5102 15.0386C16.5902 15.2113 16.6074 15.4066 16.5589 15.5906C16.5103 15.7747 16.3991 15.936 16.2443 16.0468C15.2985 16.7221 14.9377 18.0807 15.6742 19.1398C16.6015 20.4733 17.7589 21.6311 19.0921 22.5588C20.1524 23.2942 21.511 22.9335 22.1851 21.9888C22.2958 21.8336 22.4573 21.7219 22.6416 21.6731C22.8259 21.6243 23.0215 21.6415 23.1945 21.7217L23.45 21.8397C24.6965 22.4178 26.0192 22.8132 27.3778 23.0144C27.9444 23.0988 28.3652 23.5856 28.3652 24.1591V27.2104C28.3652 27.3624 28.3353 27.5128 28.2771 27.6532C28.2189 27.7935 28.1337 27.921 28.0262 28.0284C27.9187 28.1358 27.7911 28.221 27.6507 28.279C27.5102 28.337 27.3598 28.3668 27.2078 28.3667H27.2055Z" fill="#0BC7B6"/>
<circle cx="18.5" cy="18.5" r="18" stroke="#0BC7B6"/>
</svg>
