<svg width="70" height="70" viewBox="0 0 70 70" fill="none" xmlns="http://www.w3.org/2000/svg">
<path fill-rule="evenodd" clip-rule="evenodd" d="M28 16.3334C28 22.7664 22.7663 28 16.3334 28C9.90049 28 4.66676 22.7663 4.66676 16.3334C4.66676 9.90049 9.90049 4.66676 16.3334 4.66676V0C7.32662 0 0 7.32895 0 16.3334C0 25.3378 7.32662 32.6668 16.3334 32.6668C25.3401 32.6668 32.6668 25.3378 32.6668 16.3334H28ZM37.3334 16.3334C37.3334 7.32895 44.6602 0 53.6668 0C62.6736 0 70.0002 7.32908 70.0002 16.3334C70.0002 25.3377 62.6736 32.6668 53.6668 32.6668C44.6601 32.6668 37.3334 25.3378 37.3334 16.3334ZM42.0002 16.3334C42.0002 22.7663 47.2338 28 53.6668 28C60.0998 28 65.3334 22.7663 65.3334 16.3334C65.3334 9.90049 60.0998 4.66676 53.6668 4.66676C47.2339 4.66676 42.0002 9.90049 42.0002 16.3334ZM53.6668 65.3333C60.0997 65.3333 65.3334 60.0997 65.3334 53.6667H70.0001C70.0001 62.6711 62.6733 70.0001 53.6667 70.0001C44.6601 70.0001 37.3334 62.6712 37.3334 53.6668C37.3334 44.6624 44.6602 37.3334 53.6668 37.3334V42.0001C47.2339 42.0001 42.0002 47.2337 42.0002 53.6667C42.0002 60.0996 47.2338 65.3333 53.6668 65.3333ZM0 53.6667C0 44.6624 7.32662 37.3334 16.3334 37.3334C25.34 37.3334 32.6668 44.6622 32.6668 53.6667C32.6668 62.6711 25.3401 70.0001 16.3334 70.0001C7.32662 70.0001 0 62.671 0 53.6667ZM4.66676 53.6668C4.66676 60.0997 9.90035 65.3334 16.3334 65.3334C22.7663 65.3334 28 60.0997 28 53.6668C28 47.2339 22.7663 42.0002 16.3334 42.0002C9.90049 42.0002 4.66676 47.2338 4.66676 53.6668ZM28.6836 3.01702L16.3333 15.3674L13.3161 12.3504L10.0168 15.6497L14.6835 20.3163C15.1385 20.7713 15.7358 21 16.3331 21C16.9304 21 17.5278 20.7713 17.9828 20.3163L31.9828 6.31631L28.6836 3.01702ZM53.6665 52.7008L66.0169 40.3504L69.3162 43.6497L55.3162 57.6497C54.8612 58.1047 54.2639 58.3335 53.6665 58.3335C53.0692 58.3335 52.4719 58.1047 52.0169 57.6497L47.3503 52.9831L50.6496 49.6838L53.6665 52.7008Z" fill="#323140"/>
</svg>
