<?xml version="1.0" standalone="no"?>
<!DOCTYPE svg PUBLIC "-//W3C//DTD SVG 1.1//EN" "http://www.w3.org/Graphics/SVG/1.1/DTD/svg11.dtd" >
<svg xmlns="http://www.w3.org/2000/svg" xmlns:xlink="http://www.w3.org/1999/xlink" version="1.1">
<metadata>
Created by FontForge 20200427 at Thu Oct  9 01:58:15 2014
 By www
Copyright (c) 2014 by Daniel Hernndez. All rights reserved.
</metadata>
<defs>
<font id="AndesRoundedW03-Bold" horiz-adv-x="557" >
  <font-face 
    font-family="AndesRoundedW03-Bold"
    font-weight="700"
    font-stretch="normal"
    units-per-em="1000"
    panose-1="2 0 0 0 0 0 0 0 0 0"
    ascent="800"
    descent="-200"
    x-height="482"
    cap-height="700"
    bbox="-113.533 -338.562 995.636 968"
    underline-thickness="50"
    underline-position="-125"
    unicode-range="U+0020-FB04"
  />
<missing-glyph horiz-adv-x="414" 
 />
    <glyph glyph-name="uniFB00" unicode="ff" horiz-adv-x="724" 
d="M228 379v-358q0 -21 -20 -21h-90q-21 0 -21 21v358h-50q-20 0 -20 20v62q0 21 21 21h49v47q0 45 11 82t34.5 63.5t59 41.5t85.5 15q42 0 69 -11.5t41 -20.5q14 -10 6 -29l-28 -65q-4 -8 -8.5 -8t-9.5 3q-8 5 -21.5 10.5t-34.5 5.5q-37 0 -55 -24t-18 -69v-41h193v47
q0 45 11 82t34 63.5t59 41.5t86 15q42 0 69 -11.5t41 -20.5q13 -10 5 -29l-27 -65q-4 -8 -8.5 -8t-9.5 3q-8 5 -22 10.5t-34 5.5q-37 0 -55 -24t-18 -69v-41h132q20 0 20 -21v-62q0 -20 -19 -20h-133v-358q0 -21 -21 -21h-90q-20 0 -20 21v358h-193z" />
    <glyph glyph-name="uniFB01" unicode="fi" horiz-adv-x="648" 
d="M588 647q0 -35 -24 -56.5t-59 -21.5t-58.5 21.5t-23.5 56.5t23.5 57.5t58.5 22.5t59 -22.5t24 -57.5zM228 379v-358q0 -21 -20 -21h-90q-21 0 -21 21v358h-50q-20 0 -20 20v62q0 21 21 21h49v47q0 45 11 82t33.5 63.5t57.5 41.5t83 15q43 0 69.5 -12t31.5 -17
q16 -9 7 -28l-28 -66q-3 -8 -7 -8.5t-10 3.5q-8 5 -23 9t-32 4q-27 -2 -44.5 -24.5t-17.5 -68.5v-41h323q20 0 20 -21v-317q0 -21 6.5 -30.5t18.5 -11.5q5 -2 10 -5.5t5 -14.5v-58q0 -10 -11 -19t-47 -9q-55 -1 -84 30t-29 96v257h-212z" />
    <glyph glyph-name="uniFB02" unicode="fl" horiz-adv-x="662" 
d="M48 379q-20 0 -20 20v62q0 21 20 21h50v47q0 45 11 82t34 63.5t59 41.5t86 15q42 0 69 -11.5t41 -20.5q13 -10 5 -29l-28 -65q-3 -8 -7.5 -8t-9.5 3q-8 5 -22 10.5t-35 5.5q-36 0 -54.5 -24t-18.5 -69v-41h133q20 0 20 -21v-62q0 -20 -19 -20h-134v-358q0 -21 -20 -21
h-90q-20 0 -20 21v358h-50zM585 143q0 -20 6.5 -29.5t18.5 -12.5q5 -2 10 -5.5t5 -14.5v-57q0 -10 -11 -19t-47 -10q-55 0 -84 30.5t-29 96.5v583q0 21 20 21h91q20 0 20 -21v-562z" />
    <glyph glyph-name="uniFB03" unicode="ffi" horiz-adv-x="970" 
d="M911 647q0 -35 -24 -56.5t-59 -21.5t-58.5 21.5t-23.5 56.5t23.5 57.5t58.5 22.5t59 -22.5t24 -57.5zM894 143q0 -21 6.5 -30t18.5 -12q5 -2 10 -5.5t5 -14.5v-57q0 -10 -11 -19t-47 -10q-55 0 -84 30.5t-29 96.5v257h-211v-358q0 -21 -21 -21h-90q-20 0 -20 21v358h-193
v-358q0 -21 -20 -21h-90q-21 0 -21 21v358h-50q-20 0 -20 20v62q0 21 21 21h49v47q0 45 11 82t34.5 63.5t59 41.5t85.5 15q42 0 69 -11.5t41 -20.5q14 -10 6 -29l-28 -65q-4 -8 -8.5 -8t-9.5 3q-8 5 -21.5 10.5t-34.5 5.5q-37 0 -55 -24t-18 -69v-41h193v47q0 45 11 82
t34 63.5t59 41.5t86 15q38 0 63.5 -11.5t37.5 -20.5q13 -9 6 -29l-27 -62q-4 -8 -8 -8.5t-10 3.5q-8 5 -23 9t-32 4q-29 -2 -47.5 -24.5t-18.5 -68.5v-41h322q20 0 20 -22v-317z" />
    <glyph glyph-name="uniFB04" unicode="ffl" horiz-adv-x="986" 
d="M228 379v-358q0 -21 -20 -21h-90q-21 0 -21 21v358h-50q-20 0 -20 20v62q0 21 21 21h49v47q0 45 11 82t34.5 63.5t59 41.5t85.5 15q42 0 69 -11.5t41 -20.5q14 -10 6 -29l-28 -65q-4 -8 -8.5 -8t-9.5 3q-8 5 -21.5 10.5t-34.5 5.5q-37 0 -55 -24t-18 -69v-41h193v47
q0 45 11 82t34 63.5t59 41.5t86 15q42 0 69 -11.5t41 -20.5q13 -10 5 -29l-27 -65q-4 -8 -8.5 -8t-9.5 3q-8 5 -22 10.5t-34 5.5q-37 0 -55 -24t-18 -69v-41h132q20 0 20 -21v-62q0 -20 -19 -20h-133v-358q0 -21 -21 -21h-90q-20 0 -20 21v358h-193zM949 24q0 -10 -10.5 -19
t-47.5 -10q-55 0 -84 30.5t-29 96.5v583q0 21 20 21h91q20 0 20 -21v-562q0 -21 6.5 -30t18.5 -12q5 -2 10 -5.5t5 -14.5v-57z" />
    <glyph glyph-name=".notdef" horiz-adv-x="414" 
 />
    <glyph glyph-name=".null" horiz-adv-x="0" 
 />
    <glyph glyph-name="nonmarkingreturn" horiz-adv-x="333" 
 />
    <glyph glyph-name="space" unicode=" " horiz-adv-x="220" 
 />
    <glyph glyph-name="exclam" unicode="!" horiz-adv-x="273" 
d="M65 764q0 20 20 20h105q22 0 20 -20l-18 -533q-2 -20 -20 -20h-72q-20 0 -20 20zM134 130q31 0 52 -21.5t21 -52.5q0 -30 -21 -51.5t-52 -21.5t-52.5 21.5t-21.5 51.5q0 31 21.5 52.5t52.5 21.5z" />
    <glyph glyph-name="quotedbl" unicode="&#x22;" horiz-adv-x="331" 
d="M53 756q0 20 20 20h49q20 0 20 -20l-4 -156q0 -20 -20 -20h-42q-19 0 -19 20zM190 756q0 20 20 20h49q20 0 20 -20l-4 -156q0 -20 -20 -20h-42q-19 0 -19 20z" />
    <glyph glyph-name="numbersign" unicode="#" horiz-adv-x="633" 
d="M389 327h-117l-29 -133h118zM178 327h-70q-9 0 -12.5 6t-1.5 14l8 34q4 18 22 18h70l15 73q5 20 23 20h51q11 0 16 -6t3 -17l-15 -70h118l16 73q3 20 23 20h50q11 0 16 -6t3 -17l-15 -70h85q17 0 13 -16l-10 -38q-4 -18 -22 -18h-81l-29 -133h73q19 0 14 -18l-8 -35
q-4 -19 -22 -19h-72l-13 -56q-3 -19 -22 -19h-51q-23 0 -19 22l11 53h-117l-12 -56q-5 -19 -23 -19h-51q-10 0 -15.5 5.5t-3.5 16.5l11 53h-80q-8 0 -12 5.5t-1 16.5l7 31q4 19 23 19h79z" />
    <glyph glyph-name="dollar" unicode="$" horiz-adv-x="614" 
d="M265 13q-53 6 -92.5 22t-67 35t-44.5 38.5t-25 31.5q-9 14 6 27l53 49q16 15 28 2q9 -10 25.5 -25.5t41.5 -29.5t57.5 -24.5t71.5 -10.5q53 0 83 20t30 55q0 28 -16 44.5t-42.5 27.5t-60 18.5t-68.5 15.5t-68.5 19.5t-60 31t-42.5 49t-16 74.5q0 39 13.5 74t39.5 62
t65 45t89 23v93q0 20 19 20h70q20 0 20 -20v-95q44 -7 76 -21t54 -30.5t35.5 -33t20.5 -27.5q3 -6 3 -13t-11 -15l-61 -41q-20 -12 -27 0q-6 8 -17.5 19t-28.5 21.5t-41.5 18t-55.5 7.5q-57 0 -88.5 -24t-31.5 -60q0 -25 16 -40.5t42.5 -25t60.5 -16t69 -14.5t69 -20.5
t60.5 -33t42.5 -52.5t16 -79q0 -33 -12 -65.5t-36.5 -58.5t-63 -44.5t-91.5 -24.5v-100q0 -21 -20 -21h-70q-19 0 -19 21v101z" />
    <glyph glyph-name="percent" unicode="%" horiz-adv-x="635" 
d="M153 423q-61 0 -92 38t-31 101q0 64 31 101.5t92 37.5q63 0 94.5 -37.5t31.5 -101.5q0 -63 -31.5 -101t-94.5 -38zM153 487q26 0 37 19.5t11 55.5q0 35 -11 53t-37 18t-37 -18t-11 -53q0 -36 11 -55.5t37 -19.5zM479 -2q-61 0 -92 37.5t-31 101.5q0 63 31 101t92 38
q63 0 94.5 -38t31.5 -101q0 -64 -32 -101.5t-94 -37.5zM479 62q25 0 36.5 19.5t11.5 55.5q0 71 -48 71q-26 0 -37 -18t-11 -53q0 -36 11 -55.5t37 -19.5zM264 20q-6 -20 -24 -20h-47q-10 0 -15.5 6.5t-2.5 15.5l199 658q6 20 23 20h46q10 0 15.5 -6t3.5 -16z" />
    <glyph glyph-name="ampersand" unicode="&#x26;" horiz-adv-x="687" 
d="M483 -91q-20 0 -20 20q0 14 -3 36.5t-6 39.5q-26 -11 -57 -17t-71 -6q-61 0 -111.5 18t-86.5 50.5t-56 78t-20 100.5q0 52 16 87.5t36 58.5t38.5 34t23.5 13q-13 20 -26 51t-13 75q0 35 13 68.5t39.5 59.5t66 42t92.5 16q55 0 95.5 -15.5t67 -41.5t39 -59.5t12.5 -69.5
q0 -8 -1 -23t-5 -30t-11 -26t-19 -11h-76q-11 0 -14.5 7.5t-2.5 19.5q1 8 2.5 18t1.5 22q0 35 -19 61.5t-64 26.5q-38 0 -60 -22.5t-22 -65.5q0 -36 26.5 -67.5t65 -68t82 -82.5t78.5 -109q9 19 16 43t9 71q2 21 21 21h73q19 0 19 -21q0 -39 -7.5 -74.5t-20 -66.5t-28.5 -56
t-33 -44q7 -28 12.5 -68t5.5 -74q0 -10 -4 -15t-16 -5h-78zM343 106q20 0 38 3t34 11q-18 39 -42 71t-48.5 59t-47.5 49t-40 40q-3 -2 -11 -8t-16.5 -17t-15.5 -27.5t-7 -40.5q0 -32 11.5 -58t32.5 -44t49.5 -28t62.5 -10z" />
    <glyph glyph-name="quotesingle" unicode="'" horiz-adv-x="194" 
d="M53 756q0 20 20 20h49q20 0 20 -20l-4 -156q0 -20 -20 -20h-42q-19 0 -19 20z" />
    <glyph glyph-name="parenleft" unicode="(" horiz-adv-x="321" 
d="M171 241q0 -72 10.5 -136t28 -117.5t38.5 -96t42 -72.5q5 -8 3 -13.5t-16 -11.5l-64 -28q-14 -6 -22 -3.5t-15 11.5q-10 14 -32.5 51.5t-45 96.5t-39.5 139t-17 180q0 96 15.5 173.5t37.5 136t44.5 97.5t36.5 59q7 10 15 12.5t22 -3.5l64 -28q14 -7 16 -13t-4 -14
q-12 -17 -32 -52t-39 -88t-33 -123t-14 -157z" />
    <glyph glyph-name="parenright" unicode=")" horiz-adv-x="320" 
d="M279 241q0 -100 -17 -180t-40 -139t-45.5 -96.5t-32.5 -51.5q-6 -9 -14.5 -11.5t-22.5 3.5l-64 29q-14 5 -16 10.5t3 13.5q21 30 42.5 72.5t38.5 96t28 117.5t11 136q0 87 -14 157.5t-33.5 123.5t-39.5 88t-32 52q-5 8 -3 14t15 12l64 28q14 6 22.5 3.5t15.5 -12.5
q13 -20 36 -59t44.5 -97.5t37.5 -136t16 -173.5z" />
    <glyph glyph-name="asterisk" unicode="*" horiz-adv-x="439" 
d="M175 589l-123 10q-11 1 -11 12l4 44q2 10 14 8l121 -28l-51 110q-5 12 4 16l40 18q11 4 14 -9l39 -118l71 103q9 11 17 4l33 -24q10 -8 2 -17l-85 -95l123 -11q13 0 11 -12l-5 -42q0 -5 -3.5 -7.5t-8.5 -1.5l-125 26l53 -110q5 -11 -4 -16l-40 -17q-11 -4 -15 8l-40 115
l-68 -96q-8 -11 -17 -4l-35 24q-9 8 0 17z" />
    <glyph glyph-name="plus" unicode="+" horiz-adv-x="474" 
d="M282 234v-140q0 -20 -20 -20h-55q-20 0 -20 20v140h-125q-20 0 -20 19v54q0 20 20 20h125v124q0 20 20 20h54q21 0 21 -21v-123h129q21 0 21 -20v-54q0 -19 -21 -19h-129z" />
    <glyph glyph-name="comma" unicode="," horiz-adv-x="262" 
d="M49 71q0 32 22.5 55t55.5 23t58.5 -22.5t25.5 -67.5q0 -51 -13 -87t-30.5 -59.5t-35 -36.5t-27.5 -18q-9 -4 -14 4l-26 40q-5 8 3 13q7 4 17 11.5t19 18t16 23t7 26.5q-32 0 -55 22.5t-23 54.5z" />
    <glyph glyph-name="hyphen" unicode="-" horiz-adv-x="405" 
d="M325 319q20 0 20 -20v-54q0 -20 -20 -20h-245q-20 0 -20 20v54q0 20 21 20h244z" />
    <glyph glyph-name="period" unicode="." horiz-adv-x="254" 
d="M49 71q0 32 22.5 55t55.5 23q32 0 54.5 -23t22.5 -55t-22.5 -54.5t-54.5 -22.5q-33 0 -55.5 22.5t-22.5 54.5z" />
    <glyph glyph-name="slash" unicode="/" horiz-adv-x="455" 
d="M48 -228q-11 0 -16.5 6t-3.5 15l271 894q3 9 7.5 14t15.5 5h85q11 0 16.5 -5.5t2.5 -15.5l-269 -893q-6 -20 -23 -20h-86z" />
    <glyph glyph-name="zero" unicode="0" horiz-adv-x="653" 
d="M323 -6q-70 0 -121.5 25.5t-85.5 72t-50.5 112t-16.5 145.5t16.5 145.5t50.5 112.5t85.5 73t121.5 26q72 0 125 -26t88 -73t52 -112.5t17 -145.5t-17 -145.5t-52 -112t-88 -72t-125 -25.5zM323 111q76 0 111 60t35 178q0 119 -35 179.5t-111 60.5q-73 0 -107 -60.5
t-34 -179.5q0 -118 34 -178t107 -60z" />
    <glyph glyph-name="one" unicode="1" horiz-adv-x="476" 
d="M398 15q0 -15 -15 -15h-108q-8 0 -11.5 4.5t-3.5 10.5v484q-8 -16 -26.5 -34t-45.5 -34.5t-61.5 -28t-74.5 -14.5q-5 0 -11.5 2.5t-7.5 12.5l-5 97q-1 11 5.5 14.5t10.5 3.5q44 3 80.5 19.5t64 40t44.5 51t23 51.5q2 9 6.5 14.5t14.5 5.5h101q20 0 20 -20v-665z" />
    <glyph glyph-name="two" unicode="2" horiz-adv-x="592" 
d="M67 0q-20 0 -20 18v49q0 60 26.5 101.5t66 72t85.5 54.5t85.5 49t66 54.5t26.5 71.5q0 52 -27 84t-79 32q-29 0 -49.5 -9.5t-34 -24.5t-21 -32.5t-10.5 -33.5q-1 -5 -6 -10.5t-14 -3.5l-97 24q-11 2 -13.5 11t-1.5 14q4 27 19 59.5t44 60t73 46.5t107 19q57 0 102.5 -17
t78 -47.5t50 -74t17.5 -97.5q0 -53 -23.5 -94.5t-59 -73.5t-77 -57t-77 -46.5t-59 -40t-23.5 -38.5v-8h298q20 0 20 -21v-71q0 -20 -20 -20h-453z" />
    <glyph glyph-name="three" unicode="3" horiz-adv-x="614" 
d="M308 399q15 0 31.5 6t29.5 17t21.5 27.5t8.5 38.5q0 40 -29.5 69t-84.5 29q-44 0 -69.5 -23t-31.5 -47q-1 -4 -5.5 -8t-16.5 0l-94 32q-11 4 -13 10t1 14q6 16 21 40t43.5 46.5t72 39t107.5 16.5t111 -17.5t77.5 -46.5t45 -65.5t14.5 -73.5q0 -42 -16.5 -69t-37.5 -43.5
t-39.5 -23t-22.5 -7.5q2 -1 23.5 -8t46.5 -25.5t45.5 -51t20.5 -84.5q0 -47 -19.5 -83.5t-55 -61.5t-85.5 -38.5t-112 -13.5q-67 0 -112.5 13.5t-75.5 33t-45.5 40.5t-22.5 35q-9 20 9 32l59 40q19 12 29 -1q6 -10 17.5 -23.5t30 -25.5t44 -20.5t59.5 -8.5q63 0 97 24t34 72
q0 24 -11 42t-27.5 29t-36 17t-35.5 6h-66q-20 0 -20 20v60q0 20 21 20h64z" />
    <glyph glyph-name="four" unicode="4" horiz-adv-x="593" 
d="M465 21q0 -21 -20 -21h-97q-19 0 -19 20v121h-279q-21 0 -21 19v66q0 12 2 23.5t10 24.5l210 408q9 18 22 18h110q21 0 11 -20l-221 -427h162v129q0 21 20 21h90q20 0 20 -20v-130h80q20 0 20 -21v-71q0 -20 -21 -20h-79v-120z" />
    <glyph glyph-name="five" unicode="5" horiz-adv-x="613" 
d="M204 443q13 8 32 14q16 5 40.5 10t56.5 5q54 0 98.5 -18t76.5 -50t49.5 -75.5t17.5 -94.5q0 -47 -15 -90t-48 -76.5t-84.5 -53.5t-124.5 -20q-56 0 -98.5 14t-73.5 34t-50.5 40.5t-28.5 34.5q-11 15 7 27l79 52q8 6 12.5 4.5t9.5 -7.5q7 -10 19.5 -23.5t30.5 -26t41 -21
t52 -8.5q66 0 102.5 30t36.5 90q0 24 -9 45.5t-26 37.5t-41.5 25.5t-54.5 9.5q-36 0 -60.5 -12.5t-35.5 -23.5q-6 -5 -12 -8t-17 -3h-94q-20 0 -20 20v355q0 20 21 20h420q20 0 20 -20v-72q0 -20 -21 -20h-308v-145z" />
    <glyph glyph-name="six" unicode="6" horiz-adv-x="627" 
d="M333 -6q-142 0 -213 88.5t-71 257.5q0 178 71.5 272t216.5 94q77 0 127.5 -25t79.5 -60q3 -3 4 -10t-7 -14l-78 -65q-8 -6 -13.5 -3t-8.5 7q-14 18 -39.5 31.5t-64.5 13.5q-69 0 -108 -46.5t-46 -148.5q6 4 20 14.5t35.5 21t49 19t59.5 8.5q52 0 96 -16t76.5 -45t51 -70
t18.5 -92q0 -49 -15.5 -91t-47 -73.5t-80 -49.5t-113.5 -18zM187 266q9 -69 48.5 -110.5t96.5 -41.5t90.5 30t33.5 82q0 48 -31.5 75.5t-93.5 27.5q-29 0 -52.5 -8t-41.5 -19t-31 -21.5t-19 -14.5z" />
    <glyph glyph-name="seven" unicode="7" horiz-adv-x="538" 
d="M25 680q0 20 21 20h452q19 0 19 -21v-39q0 -54 -18.5 -100t-46 -89.5t-60 -87.5t-60.5 -95.5t-48 -112.5t-22 -138q0 -5 -3.5 -11t-16.5 -6h-99q-13 0 -16 6.5t-3 10.5q2 77 20 141.5t44.5 118.5t56 98.5t55 82.5t42.5 69.5t17 60.5h-313q-21 0 -21 21v71z" />
    <glyph glyph-name="eight" unicode="8" horiz-adv-x="633" 
d="M44 192q0 47 18 79t40 52t41 29.5t22 10.5q-3 1 -16.5 8t-29.5 24.5t-28.5 47t-12.5 74.5q0 42 16.5 76.5t47 59.5t74.5 39t99 14q64 0 110 -16.5t76 -42.5t44 -60t14 -68q0 -44 -15.5 -73t-34.5 -47q-22 -21 -49 -33q69 -27 98.5 -76.5t29.5 -108.5q0 -87 -70.5 -137
t-201.5 -50q-57 0 -107 12t-86.5 36t-57.5 61.5t-21 88.5zM265 323q-24 -7 -42 -21q-16 -12 -28.5 -33t-12.5 -55q0 -52 36.5 -79t97.5 -27q62 0 95.5 27t33.5 76q0 34 -22 57.5t-61 32.5zM353 399q17 4 31 16q12 11 22 30t10 52q0 39 -26 69t-75 30q-48 0 -73.5 -28
t-25.5 -66q0 -21 6.5 -36t16 -25t19.5 -15.5t18 -8.5z" />
    <glyph glyph-name="nine" unicode="9" horiz-adv-x="629" 
d="M296 706q141 0 212.5 -88.5t71.5 -257.5q0 -178 -71.5 -272t-217.5 -94q-79 0 -129.5 26.5t-78.5 61.5q-2 2 -3.5 7.5t4.5 11.5l66 66q7 7 10.5 6t6.5 -5q15 -17 44.5 -33t69.5 -16q73 0 115 46.5t50 148.5q-6 -4 -20.5 -14.5t-35.5 -21t-48.5 -19t-59.5 -8.5
q-52 0 -96.5 16t-77 45t-51 70t-18.5 92q0 49 15.5 91t47.5 73.5t80 49.5t114 18zM441 434q-8 69 -47.5 110.5t-96.5 41.5q-58 0 -91.5 -30t-33.5 -82q0 -48 32 -75.5t93 -27.5q29 0 52.5 8t42 19t31 21t18.5 15z" />
    <glyph glyph-name="colon" unicode=":" horiz-adv-x="292" 
d="M68 71q0 32 22.5 55t55.5 23q32 0 54.5 -23t22.5 -55t-22.5 -54.5t-54.5 -22.5q-33 0 -55.5 22.5t-22.5 54.5zM68 489q0 32 22.5 55t55.5 23q32 0 54.5 -23t22.5 -55t-22.5 -54.5t-54.5 -22.5q-33 0 -55.5 22.5t-22.5 54.5z" />
    <glyph glyph-name="semicolon" unicode=";" horiz-adv-x="300" 
d="M71 71q0 32 22.5 55t55.5 23t58.5 -22.5t25.5 -67.5q0 -51 -13 -87t-30.5 -59.5t-35 -36.5t-27.5 -18q-9 -4 -14 4l-26 40q-5 8 3 13q7 4 17 11.5t19 18t16 23t7 26.5q-32 0 -55 22.5t-23 54.5zM69 489q0 32 22.5 55t55.5 23q32 0 54.5 -23t22.5 -55t-22.5 -54.5
t-54.5 -22.5q-33 0 -55.5 22.5t-22.5 54.5z" />
    <glyph glyph-name="less" unicode="&#x3c;" horiz-adv-x="434" 
d="M355 506q11 6 18 2.5t7 -18.5v-59q0 -17 -5.5 -23.5t-16.5 -11.5l-210 -124l211 -123q11 -6 16 -11.5t5 -22.5v-60q0 -15 -7 -18.5t-17 1.5l-300 171q-8 5 -15 11.5t-7 25.5v55q0 18 7.5 24.5t15.5 11.5z" />
    <glyph glyph-name="equal" unicode="=" horiz-adv-x="523" 
d="M440 415q20 0 20 -20v-54q0 -20 -21 -20h-356q-20 0 -20 20v54q0 20 20 20h357zM440 207q20 0 20 -21v-53q0 -20 -21 -20h-356q-20 0 -20 20v53q0 21 20 21h357z" />
    <glyph glyph-name="greater" unicode="&#x3e;" horiz-adv-x="434" 
d="M377 337q8 -5 16 -11.5t8 -24.5v-55q0 -19 -7.5 -25.5t-15.5 -11.5l-299 -170q-11 -6 -17.5 -2.5t-6.5 18.5v60q0 17 4.5 22.5t15.5 11.5l212 123l-211 124q-11 5 -16 11.5t-5 23.5v59q0 29 25 16z" />
    <glyph glyph-name="question" unicode="?" horiz-adv-x="502" 
d="M222 129q30 0 51.5 -21.5t21.5 -52.5q0 -30 -21.5 -51.5t-51.5 -21.5q-31 0 -52.5 21.5t-21.5 51.5q0 31 21.5 52.5t52.5 21.5zM43 560q-11 2 -12 8.5t-1 11.5q3 44 21 80t47 61t68.5 38.5t84.5 13.5q58 0 99.5 -17.5t68 -46.5t39 -67t12.5 -79q0 -45 -12.5 -76.5
t-32 -56.5t-42.5 -45.5t-43 -43t-34.5 -50.5t-17.5 -67q-1 -5 -3.5 -11t-13.5 -6h-89q-11 0 -14 6t-3 11q2 54 15.5 90.5t32 62.5t40 44.5t39 37.5t29.5 41t12 55q0 38 -22 63.5t-64 25.5q-38 0 -62 -22.5t-29 -57.5q-1 -5 -3.5 -12t-13.5 -5z" />
    <glyph glyph-name="at" unicode="@" horiz-adv-x="857" 
d="M826 339q0 -58 -21 -112t-56 -95t-81 -66t-97 -25q-41 0 -58.5 17.5t-19.5 43.5q0 3 1 8.5t2 8.5q-9 -12 -22 -25.5t-30 -25.5t-38.5 -19.5t-47.5 -7.5q-23 0 -46.5 8t-43 25.5t-31.5 45.5t-12 69q0 57 19.5 106.5t52.5 85.5t76.5 56.5t90.5 20.5q23 0 39.5 -5t27.5 -12
t17 -13.5t9 -10.5l6 20q2 11 7.5 15t16.5 4h45q22 0 17 -19q-21 -81 -38 -145l-14 -54t-12.5 -48t-9 -35t-3.5 -15q-3 -14 3 -22t19 -8q20 0 44.5 16.5t46 46.5t36 71.5t14.5 91.5q0 48 -15 89t-45.5 70.5t-76.5 46.5t-107 17q-77 0 -141 -29.5t-110.5 -80.5t-72.5 -119.5
t-26 -146.5q0 -66 21 -114t56 -79.5t80 -46.5t93 -15t86.5 7.5t69.5 18.5t54.5 24t41.5 25q6 4 17 5.5t18 -9.5l20 -28q9 -13 5.5 -21.5t-10.5 -13.5q-19 -15 -47.5 -31.5t-66.5 -30.5t-85.5 -23t-104.5 -9q-70 0 -132.5 22.5t-110 65t-75 105.5t-27.5 144q0 99 33.5 184.5
t93.5 148t142.5 98t180.5 35.5q74 0 135 -23.5t105 -65t68 -97.5t24 -120zM534 347q-6 8 -17 14q-9 5 -23.5 9.5t-37.5 4.5q-26 0 -50 -13t-42 -35.5t-29 -52t-11 -62.5q0 -37 17 -57.5t48 -20.5q23 0 41.5 9.5t33 22t24 26t14.5 22.5z" />
    <glyph glyph-name="A" unicode="A" horiz-adv-x="673" 
d="M460 175h-248l-52 -153q-3 -8 -7 -15t-15 -7h-104q-11 0 -15.5 7.5t-0.5 16.5l237 633q9 23 20 33t31 10h65q21 0 32.5 -10t19.5 -33l233 -633q3 -9 -1.5 -16.5t-15.5 -7.5h-103q-12 0 -16 7t-7 16zM249 280h176l-89 254z" />
    <glyph glyph-name="B" unicode="B" horiz-adv-x="645" 
d="M94 0q-20 0 -20 20v660q0 20 20 20h245q107 0 166.5 -43.5t59.5 -141.5q0 -47 -12 -75t-29.5 -44t-36 -21t-31.5 -5v-2q18 0 44.5 -8.5t51 -28.5t42.5 -53t18 -82q0 -55 -20 -92.5t-53.5 -60.5t-78 -33t-92.5 -10h-274zM338 112q26 0 48 4.5t38.5 16t25.5 30.5t9 48
q0 54 -35 77t-89 23h-123v-199h126zM323 408q56 0 78 25t22 66q0 42 -28.5 65.5t-90.5 23.5h-92v-180h111z" />
    <glyph glyph-name="C" unicode="C" horiz-adv-x="653" 
d="M605 144q11 -11 11.5 -19.5t-6.5 -16.5q-10 -13 -29.5 -32.5t-49.5 -37.5t-70 -31t-92 -13q-72 0 -132.5 22.5t-103.5 66.5t-67 110.5t-24 155.5q0 88 21.5 155t62 112t98 67.5t128.5 22.5q82 0 133.5 -26.5t80.5 -63t40 -75t14 -61.5q1 -18 -19 -22l-85 -13
q-14 -2 -18.5 2.5t-6.5 13.5q-3 14 -10 35.5t-22.5 41t-41 33.5t-64.5 14q-36 0 -67 -14t-53.5 -43t-35.5 -73.5t-13 -105.5q0 -62 16 -106.5t43 -73t61.5 -41.5t71.5 -13q27 0 50.5 8t43 20t34 25t23.5 23q8 8 15 10t15 -7z" />
    <glyph glyph-name="D" unicode="D" horiz-adv-x="669" 
d="M94 0q-20 0 -20 20v660q0 20 20 20h185q69 0 132 -19.5t111 -63t76.5 -112t28.5 -167.5q0 -93 -26 -157.5t-69.5 -104.5t-101 -58t-121.5 -18h-215zM308 112q40 0 73.5 14.5t57.5 43t37.5 71.5t13.5 99q0 116 -51.5 182t-161.5 66h-65v-476h96z" />
    <glyph glyph-name="E" unicode="E" 
d="M94 0q-20 0 -20 20v660q0 20 20 20h402q20 0 20 -20v-71q0 -21 -21 -21h-283v-186h219q20 0 20 -20v-70q0 -20 -21 -20h-218v-180h284q20 0 20 -21v-71q0 -20 -21 -20h-401z" />
    <glyph glyph-name="F" unicode="F" horiz-adv-x="536" 
d="M212 20q0 -20 -20 -20h-98q-20 0 -20 20v660q0 20 20 20h402q20 0 20 -20v-71q0 -21 -21 -21h-283v-193h219q20 0 20 -20v-70q0 -20 -21 -20h-218v-265z" />
    <glyph glyph-name="G" unicode="G" horiz-adv-x="664" 
d="M619 247q0 -47 -15 -92t-47 -81t-82.5 -58t-120.5 -22t-127.5 22.5t-98.5 66.5t-63.5 110.5t-22.5 155.5q0 88 22 155t62.5 112t97.5 67.5t128 22.5q52 0 91 -12.5t67.5 -32t47.5 -44t30.5 -48.5t17.5 -46t9 -36q3 -18 -20 -21l-85 -13q-13 -2 -17.5 2t-6.5 12
q-2 12 -8.5 32t-20.5 39t-39 33t-64 14q-36 0 -67 -14t-53.5 -43t-35.5 -73.5t-13 -105.5q0 -62 14 -106.5t38 -73t55 -41.5t65 -13q37 0 62 11t41 29t23 41.5t7 49.5v15h-137q-20 0 -20 20v63q0 20 21 20h244q21 0 21 -20v-97z" />
    <glyph glyph-name="H" unicode="H" horiz-adv-x="695" 
d="M621 20q0 -20 -20 -20h-98q-20 0 -20 20v258h-271v-258q0 -20 -20 -20h-98q-20 0 -20 20v660q0 20 20 20h98q20 0 20 -20v-289h271v289q0 20 20 20h98q20 0 20 -20v-660z" />
    <glyph glyph-name="I" unicode="I" horiz-adv-x="286" 
d="M212 20q0 -20 -20 -20h-98q-20 0 -20 20v660q0 20 20 20h98q20 0 20 -20v-660z" />
    <glyph glyph-name="J" unicode="J" horiz-adv-x="481" 
d="M274 680q0 20 20 20h98q20 0 20 -20v-440q0 -61 -19 -107t-51 -77t-75.5 -46.5t-91.5 -15.5q-32 0 -58.5 6t-46.5 15t-34.5 19t-23.5 18q-8 6 -8.5 14.5t5.5 15.5l54 62q7 7 13.5 11.5t16.5 -3.5q11 -10 32 -21.5t50 -11.5q47 0 73 28.5t26 85.5v447z" />
    <glyph glyph-name="K" unicode="K" horiz-adv-x="676" 
d="M285 395q35 0 65.5 15t53.5 48.5t37 88t16 133.5q0 20 20 20h95q9 0 15 -3.5t6 -17.5q0 -72 -13.5 -127.5t-34.5 -96.5t-47.5 -68t-53.5 -41q25 -16 42 -39.5t29.5 -50.5t23 -53.5t22.5 -47.5t29 -34.5t42 -13.5h15q8 0 11.5 -4t3.5 -17v-66q0 -14 -20 -20
q-9 -2 -21.5 -3.5t-31.5 -1.5q-53 0 -85.5 21.5t-53.5 53.5t-35.5 69.5t-30.5 69.5t-38 53.5t-59 21.5h-75v-264q0 -20 -20 -20h-98q-20 0 -20 20v660q0 20 20 20h98q20 0 20 -20v-285h73z" />
    <glyph glyph-name="L" unicode="L" horiz-adv-x="532" 
d="M212 112h289q20 0 20 -21v-71q0 -20 -20 -20h-407q-20 0 -20 20v660q0 20 20 20h98q20 0 20 -20v-568z" />
    <glyph glyph-name="M" unicode="M" horiz-adv-x="845" 
d="M74 680q0 20 20 20h91q20 0 28.5 -7.5t16.5 -22.5l193 -407h2l198 407q8 17 17.5 23.5t28.5 6.5h82q20 0 20 -20v-660q0 -20 -20 -20h-95q-20 0 -20 20v414l-151 -309q-11 -21 -26.5 -29t-38.5 -8q-20 0 -38 9t-27 29l-143 307l1 -413q0 -20 -20 -20h-98q-21 0 -21 20
v660z" />
    <glyph glyph-name="N" unicode="N" horiz-adv-x="690" 
d="M502 0q-18 0 -28.5 8t-20.5 25l-241 412v-425q0 -20 -20 -20h-98q-20 0 -20 20v660q0 20 20 20h95q19 0 30 -11t19 -26l240 -424v441q0 20 20 20h98q20 0 20 -20v-660q0 -20 -20 -20h-94z" />
    <glyph glyph-name="O" unicode="O" horiz-adv-x="709" 
d="M355 -6q-64 0 -121 21.5t-99.5 65.5t-67.5 110.5t-25 157.5t24.5 158t67.5 111t99.5 66t121.5 22q64 0 121 -22t99.5 -66t67 -111t24.5 -158t-25 -157.5t-67.5 -110.5t-99 -65.5t-120.5 -21.5zM355 113q34 0 64.5 12.5t54 40.5t37 73t13.5 110q0 66 -14 111t-37 72.5
t-53.5 40t-64.5 12.5t-65 -12.5t-54 -40t-37 -72.5t-14 -111q0 -65 13.5 -110t37 -73t54 -40.5t65.5 -12.5z" />
    <glyph glyph-name="P" unicode="P" horiz-adv-x="614" 
d="M94 0q-20 0 -20 20v660q0 20 20 20h222q127 0 200 -59t73 -180q0 -60 -20 -104t-54.5 -72.5t-81 -42t-99.5 -13.5h-122v-208q0 -21 -20 -21h-98zM310 339q140 0 140 122q0 57 -35 92t-110 35h-93v-249h98z" />
    <glyph glyph-name="Q" unicode="Q" horiz-adv-x="709" 
d="M580 -208q0 -16 -10 -19.5t-17 -3.5q-67 4 -115.5 26.5t-81 55.5t-50 73t-22.5 80q-52 10 -96.5 36t-77 69t-51 103.5t-18.5 139.5q0 91 24.5 158t67.5 111t99.5 66t121.5 22q64 0 121 -22t99.5 -66t67 -111t24.5 -158q0 -82 -20.5 -144.5t-55.5 -106t-83 -69t-103 -32.5
q12 -51 50 -81.5t98 -36.5q7 0 17.5 -4t10.5 -22v-64zM354 115q34 0 65 12.5t54 41t37 73.5t14 110q0 66 -14 110.5t-37.5 72.5t-54 40t-64.5 12t-65 -12t-54 -40t-37 -72.5t-14 -110.5q0 -65 14 -110t37 -73.5t54 -41t65 -12.5z" />
    <glyph glyph-name="R" unicode="R" horiz-adv-x="672" 
d="M660 22q0 -13 -16 -20q-8 -3 -22 -5t-34 -2q-54 0 -87 20t-54 49.5t-35 64t-29.5 64t-37.5 49.5t-59 20h-74v-242q0 -20 -20 -20h-98q-20 0 -20 20v659q0 21 20 21h226q130 0 197 -51t67 -169q0 -39 -11.5 -68.5t-29 -51.5t-39 -36.5t-41.5 -21.5q27 -22 43.5 -55
t32.5 -64t36.5 -53t54.5 -23h15q15 0 15 -18v-67zM304 366q63 0 103.5 28t40.5 82q0 53 -35 82.5t-98 29.5h-103v-222h92z" />
    <glyph glyph-name="S" unicode="S" horiz-adv-x="611" 
d="M490 519q-11 -7 -17.5 -6t-10.5 6q-6 8 -17 20.5t-29 23.5t-43.5 19t-58.5 8q-56 1 -85.5 -23t-29.5 -59q0 -38 28 -57t69.5 -31.5t90 -24t90 -33.5t69.5 -61t28 -106q0 -38 -15 -74t-46.5 -64.5t-81 -45.5t-119.5 -17q-67 0 -115.5 15t-81.5 36t-52.5 43t-27.5 36
q-5 7 -3.5 15t8.5 13l53 49q6 7 14 8t14 -7q9 -11 25 -27t40 -31t55.5 -25.5t70.5 -10.5q56 0 87 22t31 61q0 41 -28 61.5t-70 33t-91.5 23t-91.5 32t-70 60t-28 106.5q0 40 16.5 76t49 63.5t79.5 43.5t108 16q62 0 106.5 -13t74.5 -32t47.5 -39t25.5 -34q3 -5 3 -12
t-11 -15z" />
    <glyph glyph-name="T" unicode="T" horiz-adv-x="633" 
d="M600 700q20 0 20 -20v-71q0 -21 -21 -21h-209v-568q0 -20 -20 -20h-98q-20 0 -20 20v568h-219q-21 0 -21 21v71q0 20 21 20h567z" />
    <glyph glyph-name="U" unicode="U" horiz-adv-x="675" 
d="M469 680q0 20 21 20h97q20 0 20 -20v-391q0 -84 -21 -140.5t-57.5 -91t-85.5 -49t-104 -14.5q-56 0 -105.5 14.5t-86.5 49t-58.5 91t-21.5 140.5l1 391q0 20 20 20h98q20 0 20 -20v-401q0 -74 31 -118.5t102 -44.5q70 0 100 44.5t30 118.5v401z" />
    <glyph glyph-name="V" unicode="V" horiz-adv-x="671" 
d="M508 678q3 9 7 15.5t15 6.5h109q11 0 15.5 -7.5t1.5 -16.5l-237 -634q-9 -25 -19.5 -33.5t-31.5 -8.5h-69q-20 0 -29.5 8t-19.5 34l-233 634q-4 10 0.5 17t15.5 7h117q12 0 16 -6.5t6 -14.5l164 -522z" />
    <glyph glyph-name="W" unicode="W" horiz-adv-x="1018" 
d="M715 157l125 521q2 9 6.5 15.5t16.5 6.5h118q11 0 13.5 -7.5t-0.5 -16.5l-181 -633q-8 -26 -20 -34.5t-33 -8.5h-79q-20 0 -32.5 8.5t-20.5 34.5l-118 424l-121 -424q-7 -26 -19 -34.5t-34 -8.5h-79q-20 0 -32 8.5t-20 34.5l-182 632q-3 10 1 17.5t15 7.5h122
q11 0 15.5 -6.5t6.5 -15.5l120 -521l144 518q2 11 8 18t16 7h83q9 0 14.5 -7t7.5 -18z" />
    <glyph glyph-name="X" unicode="X" horiz-adv-x="654" 
d="M507 0q-11 0 -16.5 7t-10.5 15l-153 238l-153 -238q-5 -8 -11 -15t-17 -7h-108q-12 0 -16.5 7.5t1.5 16.5l211 324l-212 328q-6 9 -1.5 16.5t16.5 7.5h117q11 0 17 -7t11 -15l145 -231l145 231q5 8 10.5 15t16.5 7h117q12 0 16.5 -7.5t-1.5 -16.5l-214 -324l214 -328
q7 -9 2 -16.5t-17 -7.5h-109z" />
    <glyph glyph-name="Y" unicode="Y" horiz-adv-x="665" 
d="M282 0q-20 0 -20 20v273l-240 383q-6 9 -1.5 16.5t16.5 7.5h119q8 0 12 -4t9 -13l156 -273l155 273q5 9 9 13t12 4h119q13 0 17 -7.5t-1 -16.5l-240 -383v-273q0 -20 -20 -20h-102z" />
    <glyph glyph-name="Z" unicode="Z" horiz-adv-x="612" 
d="M61 0q-21 0 -21 20v72q0 11 5 21t14 23l345 452h-343q-21 0 -21 21v71q0 20 21 20h491q20 0 20 -20v-66q0 -17 -4.5 -27t-12.5 -21l-342 -454h339q20 0 20 -21v-71q0 -20 -21 -20h-490z" />
    <glyph glyph-name="bracketleft" unicode="[" horiz-adv-x="379" 
d="M91 -244q-20 0 -20 20v930q0 20 20 20h235q19 0 19 -20v-73q0 -20 -20 -20h-124v-744h125q19 0 19 -20v-73q0 -20 -20 -20h-234z" />
    <glyph glyph-name="backslash" unicode="\" horiz-adv-x="455" 
d="M321 -228q-11 0 -15.5 5t-7.5 15l-270 893q-2 10 3.5 15.5t16.5 5.5h85q10 0 14.5 -5t7.5 -14l271 -894q3 -9 -2.5 -15t-16.5 -6h-86z" />
    <glyph glyph-name="bracketright" unicode="]" horiz-adv-x="379" 
d="M54 -244q-21 0 -21 20v73q0 20 20 20h125v744h-124q-21 0 -21 20v73q0 20 20 20h235q20 0 20 -20v-930q0 -20 -20 -20h-234z" />
    <glyph glyph-name="asciicircum" unicode="^" horiz-adv-x="425" 
d="M72 509q-11 0 -14 7.5t0 15.5l75 179q8 20 26 20h107q11 0 16.5 -5.5t9.5 -14.5l75 -179q3 -8 0 -15.5t-14 -7.5h-71q-20 0 -27 23l-43 104l-42 -105q-5 -11 -10 -16.5t-17 -5.5h-71z" />
    <glyph glyph-name="underscore" unicode="_" horiz-adv-x="432" 
d="M394 0q21 0 21 -20v-53q0 -20 -21 -20h-357q-20 0 -20 20v53q0 20 21 20h356z" />
    <glyph glyph-name="grave" unicode="`" horiz-adv-x="289" 
d="M170 557q-12 0 -17.5 6t-11.5 15l-101 155q-5 8 -1.5 12.5t11.5 4.5h120q9 0 14 -5t9 -13l68 -158q2 -7 -1 -12t-11 -5h-79z" />
    <glyph glyph-name="a" unicode="a" horiz-adv-x="524" 
d="M497 25q0 -10 -10 -20t-47 -10q-41 0 -67 18.5t-31 56.5q-7 -12 -18.5 -25t-29.5 -24.5t-44 -19t-61 -7.5q-75 0 -116 36t-41 93q0 64 44 99t145 35h106v58q0 39 -19.5 56.5t-54.5 17.5t-54 -16t-19 -44q0 -5 1 -11t2 -11q0 -5 -4 -8t-17 -3h-72q-20 0 -25 16t-5 38
q0 61 49.5 99.5t147.5 38.5q105 0 152.5 -47t47.5 -131v-166q0 -20 7 -30t18 -13q3 -1 9 -5t6 -15v-56zM327 188h-94q-35 0 -52 -12.5t-17 -35.5t17 -35t44 -12q30 0 50 12t31 26q13 17 21 38v19z" />
    <glyph glyph-name="b" unicode="b" horiz-adv-x="554" 
d="M81 0q-20 0 -20 21v684q0 21 20 21h90q20 0 20 -21v-277l7 9.5t22 21t40 20.5t62 9q35 0 70 -14t62.5 -44t44.5 -76.5t17 -110.5q0 -68 -17 -115t-45 -77t-65 -43.5t-76 -13.5q-31 0 -54 7.5t-40 18t-27.5 20.5t-16.5 15v-34q0 -21 -20 -21h-74zM191 195q0 -8 4.5 -22.5
t15.5 -29t29.5 -25t45.5 -10.5q44 0 72 32.5t28 100.5q0 36 -9 61.5t-23 41.5t-32.5 23t-36.5 7q-30 0 -48 -13t-29 -29q-12 -18 -17 -42v-95z" />
    <glyph glyph-name="c" unicode="c" horiz-adv-x="503" 
d="M37 240q0 115 57.5 181.5t174.5 66.5q47 0 83 -12.5t60.5 -33.5t37 -49.5t12.5 -61.5q0 -7 -0.5 -17t-3.5 -19.5t-9 -16t-17 -6.5h-61q-15 0 -20.5 3t-5.5 9q0 5 0.5 10t0.5 10q0 29 -17.5 49.5t-59.5 20.5q-49 0 -76 -31.5t-27 -100.5q0 -39 11 -65t28.5 -41t39 -21.5
t42.5 -6.5q38 0 62 13t38 25q8 8 15 10.5t15 -5.5l37 -39q11 -11 11.5 -19.5t-4.5 -14.5q-9 -11 -24.5 -25t-38.5 -27.5t-55 -22.5t-74 -9q-50 0 -92 16t-73.5 47t-49 77t-17.5 106z" />
    <glyph glyph-name="d" unicode="d" horiz-adv-x="569" 
d="M362 292q0 8 -5.5 21.5t-16.5 27t-29 23.5t-44 10q-42 0 -71 -32.5t-29 -100.5q0 -35 8.5 -60.5t23 -41.5t32.5 -23.5t36 -7.5q30 0 48 12.5t28.5 28t14.5 29t4 16.5v98zM533 24q0 -10 -11.5 -19.5t-46.5 -9.5q-41 0 -66.5 18t-31.5 54v6q-4 -9 -13.5 -22t-26.5 -26
t-43 -22t-63 -9q-35 0 -69.5 14.5t-62 44.5t-44.5 76.5t-17 110.5q0 67 17.5 114t47 77t67 43.5t76.5 13.5q33 0 55 -7.5t35.5 -16.5t19.5 -17t6 -9v267q0 21 20 21h90q21 0 21 -21v-560q0 -22 6 -31.5t17 -12.5q6 -2 11.5 -5t5.5 -15v-57z" />
    <glyph glyph-name="e" unicode="e" horiz-adv-x="508" 
d="M169 224v-5q1 -35 13.5 -57.5t30.5 -36t38.5 -19t35.5 -5.5q20 0 36.5 5t30 12t23 15t16.5 15q5 5 10.5 8t11.5 -4l46 -47q11 -11 3 -22t-23 -26t-39 -29t-57 -24t-76 -10q-50 0 -92 16t-73.5 47t-49 77t-17.5 106q0 115 57 181.5t174 66.5q105 0 151.5 -61.5
t46.5 -170.5q0 -19 -4.5 -25.5t-18.5 -6.5h-274zM342 297q0 40 -19.5 64t-61.5 24q-35 0 -58 -20.5t-31 -67.5h170z" />
    <glyph glyph-name="f" unicode="f" horiz-adv-x="401" 
d="M46 379q-20 0 -20 20v62q0 21 20 21h50v47q0 45 11 82t34 63.5t59 41.5t86 15q42 0 69 -11.5t41 -20.5q13 -10 5 -29l-28 -65q-3 -8 -7.5 -8t-9.5 3q-8 5 -22 10.5t-35 5.5q-37 0 -55 -24t-18 -69v-41h133q20 0 20 -21v-62q0 -20 -20 -20h-133v-358q0 -21 -20 -21h-90
q-20 0 -20 21v358h-50z" />
    <glyph glyph-name="g" unicode="g" horiz-adv-x="528" 
d="M199 -28q-64 0 -64 -58q0 -30 26.5 -45.5t99.5 -15.5q76 0 104.5 15.5t28.5 48.5q0 55 -73 55h-122zM364 301q0 38 -27 61.5t-70 23.5t-70 -23t-27 -62q0 -38 26.5 -62t69.5 -24q44 0 71 24t27 62zM317 64q41 0 76.5 -9t61.5 -27t41 -46t15 -66q0 -31 -11 -60.5
t-38.5 -52t-74.5 -36.5t-118 -14q-129 0 -188 39.5t-59 113.5q0 24 6.5 42t16 30.5t19.5 21t18 14.5q-11 11 -25.5 27.5t-14.5 46.5q0 38 18.5 59.5t44.5 31.5q-18 17 -37 47t-19 75t17 79.5t46.5 58.5t69 36.5t84.5 12.5q20 0 36 -3.5t24 -3.5q21 -1 39 5.5t32.5 17.5
t23 24.5t9.5 27.5q1 9 6 11.5t14 1.5l60 -8q8 -2 11 -6.5t3 -7.5q-1 -26 -11.5 -45.5t-26 -33t-35 -21t-38.5 -8.5q29 -20 50.5 -54t21.5 -84q0 -45 -18 -79.5t-48 -58t-69 -36t-82 -12.5q-26 0 -46.5 5t-33.5 10q-47 0 -47 -33q0 -18 14 -25.5t37 -7.5h125z" />
    <glyph glyph-name="h" unicode="h" horiz-adv-x="554" 
d="M61 705q0 21 20 21h90q20 0 20 -21v-280q15 26 45 44.5t81 18.5q46 0 78.5 -15t53 -41t30 -61t9.5 -74v-154q0 -21 6.5 -29.5t18.5 -12.5q5 -2 10 -5.5t5 -14.5v-58q0 -11 -12.5 -19.5t-45.5 -8.5q-56 0 -84.5 30.5t-28.5 96.5v166q0 38 -21 61.5t-58 23.5
q-23 0 -39.5 -9.5t-27 -23.5t-15.5 -31.5t-5 -32.5v-255q0 -21 -20 -21h-90q-20 0 -20 21v684z" />
    <glyph glyph-name="i" unicode="i" horiz-adv-x="265" 
d="M207 647q0 -35 -24 -56.5t-59 -21.5t-58.5 21.5t-23.5 56.5t23.5 57.5t58.5 22.5t59 -22.5t24 -57.5zM229 24q0 -10 -11 -19t-47 -10q-55 0 -84 30.5t-29 96.5v341q0 21 20 21h90q21 0 21 -21v-320q0 -23 8.5 -32t19.5 -11q12 0 12 -19v-57z" />
    <glyph glyph-name="j" unicode="j" horiz-adv-x="252" 
d="M207 649q0 -35 -24 -56t-58 -21q-35 0 -58 21t-23 56q0 34 23 56t58 22q34 0 58 -22t24 -56zM192 -39q0 -47 -11 -85t-34 -65.5t-58.5 -42.5t-85.5 -15q-32 0 -52.5 7.5t-31.5 13.5q-8 5 -9 13t3 16l24 57q6 15 16 14q5 -2 14 -4.5t22 -2.5q38 0 55 26t17 74v495
q0 20 20 20h90q21 0 21 -21v-500z" />
    <glyph glyph-name="k" unicode="k" 
d="M537 24q0 -12 -11.5 -20.5t-41.5 -8.5q-42 0 -67.5 16t-42 40t-28 51.5t-26 51.5t-36 40t-56.5 16h-38v-189q0 -21 -21 -21h-89q-19 0 -19 21v684q0 21 20 21h88q21 0 21 -21v-393h50q30 0 52.5 12.5t38 33.5t23.5 48t10 55q0 7 3.5 14t16.5 7h81q14 0 17.5 -7t2.5 -15
q-1 -31 -8.5 -60.5t-22.5 -54.5t-37.5 -44.5t-52.5 -30.5q22 -12 36 -29t24 -36t18 -37.5t18.5 -33.5t25 -24.5t38.5 -9.5q8 0 10.5 -6t2.5 -17v-53z" />
    <glyph glyph-name="l" unicode="l" horiz-adv-x="266" 
d="M229 24q0 -10 -10.5 -19t-47.5 -10q-55 0 -84 30.5t-29 96.5v583q0 21 20 21h91q20 0 20 -22v-561q0 -34 21 -40q5 -3 12 -5.5t7 -16.5v-57z" />
    <glyph glyph-name="m" unicode="m" horiz-adv-x="862" 
d="M795 143q0 -21 8 -31.5t19 -10.5q13 0 13 -21v-56q0 -10 -11 -19.5t-47 -9.5q-55 0 -84 30.5t-29 96.5v163q0 40 -20.5 64t-58.5 24q-20 0 -34 -7t-23.5 -18t-15 -24.5t-8.5 -26.5v-154q0 -21 8 -31.5t19 -10.5q13 0 13 -21v-56q0 -10 -11 -19.5t-47 -9.5
q-56 0 -84.5 30.5t-28.5 96.5v163q0 40 -20.5 64t-58.5 24q-23 0 -39.5 -9.5t-27 -23.5t-15.5 -31.5t-5 -32.5v-255q0 -21 -20 -21h-90q-20 0 -20 21v318q0 23 -9 31.5t-20 10.5t-11 22v56q0 10 10.5 19t46.5 9q39 0 64.5 -18t31.5 -52v-12q5 15 15.5 30t28 27t42 19t57.5 7
q57 0 93 -23.5t54 -60.5q7 15 17 30t26.5 27t40.5 19.5t60 7.5q46 0 78.5 -15t53 -41t30 -61t9.5 -74v-154z" />
    <glyph glyph-name="n" unicode="n" horiz-adv-x="570" 
d="M77 339q0 20 -6 29t-18 12q-6 2 -11 6t-5 17v56q0 10 10.5 19t46.5 9q39 0 64.5 -17.5t31.5 -52.5v-12q5 15 15.5 30t28 27t42 19t57.5 7q46 0 78.5 -15t53 -41t30 -61t9.5 -74v-154q0 -20 6 -29t17 -12q5 -2 11 -6t6 -16v-56q0 -10 -11 -19.5t-47 -9.5q-56 0 -84.5 30.5
t-28.5 96.5v163q0 40 -20.5 64t-58.5 24q-23 0 -39.5 -9.5t-27 -23.5t-15.5 -31.5t-5 -32.5v-255q0 -21 -20 -21h-90q-20 0 -20 21v318z" />
    <glyph glyph-name="o" unicode="o" horiz-adv-x="525" 
d="M262 -6q-54 0 -95.5 18t-70 50.5t-43.5 78t-15 101.5q0 55 15 100.5t43.5 77.5t70.5 50t95 18t95 -18t71 -50t44 -77.5t15 -100.5q0 -56 -15 -101.5t-44 -78t-70.5 -50.5t-95.5 -18zM262 108q51 0 73 35t22 98t-23 98t-72 35t-72 -35t-23 -98t22.5 -98t72.5 -35z" />
    <glyph glyph-name="p" unicode="p" horiz-adv-x="569" 
d="M37 458q0 10 10.5 19.5t46.5 9.5q41 0 66.5 -18t31.5 -53v-7q4 9 14 22t27 26t42.5 22t62.5 9q36 0 70.5 -14t62 -44t44.5 -76.5t17 -110.5q0 -68 -17.5 -115t-46.5 -77t-66.5 -43.5t-76.5 -13.5q-32 0 -54 7t-36 15.5t-20.5 16.5t-7.5 10v-266q0 -21 -20 -21h-90
q-20 0 -20 21v562q0 35 -27 43q-4 2 -8.5 5.5t-4.5 14.5v56zM207 192q1 -8 6 -22t16 -28t29 -24t44 -10q44 0 72.5 32.5t28.5 100.5q0 36 -9 61.5t-23 41.5t-32.5 23t-36.5 7q-29 0 -47.5 -12.5t-29 -27.5t-14.5 -28.5t-4 -15.5v-98z" />
    <glyph glyph-name="q" unicode="q" horiz-adv-x="553" 
d="M472 490q21 0 21 -21v-692q0 -21 -21 -21h-90q-20 0 -20 21v276q-1 -2 -8 -11t-22.5 -20t-39.5 -19.5t-60 -8.5q-35 0 -70 14.5t-62.5 44.5t-44.5 76.5t-17 110.5q0 67 16.5 114t44.5 77t64.5 43.5t75.5 13.5q31 0 54.5 -7.5t40.5 -17.5t27.5 -20t16.5 -15v41q0 21 20 21
h74zM362 290q0 8 -5 22t-16.5 28t-29.5 24t-44 10q-44 0 -72 -32.5t-28 -100.5q0 -35 9 -60.5t23 -41.5t32.5 -23.5t36.5 -7.5q30 0 48.5 13.5t28.5 29.5t13.5 29.5t3.5 14.5v95z" />
    <glyph glyph-name="r" unicode="r" horiz-adv-x="414" 
d="M77 339q0 24 -10 32t-18 10q-12 1 -12 20v62q0 12 12.5 18t41.5 6q38 0 64.5 -18t33.5 -56v-12q5 15 15 30.5t27 28t41.5 20.5t59.5 8q36 0 61 -11q8 -4 10 -9t-3 -16l-39 -84q-4 -8 -7 -9t-10 1q-8 3 -20 6t-31 3q-23 0 -39 -9t-26.5 -23t-15.5 -30t-5 -31v-255
q0 -21 -20 -21h-90q-20 0 -20 20v319z" />
    <glyph glyph-name="s" unicode="s" horiz-adv-x="493" 
d="M350 304q-21 0 -21 12q1 5 1.5 10t0.5 13q0 22 -17.5 36t-59.5 14q-37 0 -56 -13.5t-19 -37.5q0 -25 20.5 -36.5t51.5 -18.5t66.5 -13t66.5 -19.5t51.5 -38t20.5 -68.5q0 -69 -51 -109.5t-158 -40.5q-50 0 -86.5 9.5t-62 22.5t-41.5 27.5t-24 25.5q-3 5 -4.5 12.5
t6.5 15.5l48 47q8 8 13 8t10 -4q7 -8 19.5 -19t29 -21t38 -16.5t48.5 -6.5q40 0 57 11.5t17 31.5t-20 29.5t-49.5 16t-64 14t-64 23t-49.5 42t-20 72.5q0 29 11 56.5t35 49t63 34.5t95 13q57 0 94.5 -11.5t60.5 -31t32.5 -44.5t9.5 -51q0 -24 -7 -35t-23 -11h-69z" />
    <glyph glyph-name="t" unicode="t" horiz-adv-x="435" 
d="M375 482q21 0 21 -20v-62q0 -21 -21 -21h-145v-168q0 -52 18.5 -77t59.5 -25q21 0 37 6.5t25 12.5q5 2 10 2.5t9 -7.5l27 -64q4 -11 1.5 -16.5t-7.5 -9.5q-15 -11 -44.5 -25t-71.5 -14q-106 0 -150.5 55t-44.5 156v174h-52q-21 0 -21 21v62q0 20 21 20h52v130q0 21 20 21
h90q21 0 21 -22v-129h145z" />
    <glyph glyph-name="u" unicode="u" horiz-adv-x="560" 
d="M523 24q0 -10 -10.5 -19.5t-46.5 -9.5q-45 0 -68.5 20t-30.5 58v3q-7 -14 -19 -28.5t-31 -26.5t-45.5 -19.5t-61.5 -7.5q-42 0 -71 12.5t-47 35.5t-26.5 55t-8.5 71v293q0 21 20 21h90q21 0 21 -21v-264q0 -48 19 -68t49 -20t48.5 13.5t29 30.5t14.5 34t4 25v249
q0 21 20 21h91q20 0 20 -21v-318q0 -35 25 -42q6 -2 10.5 -5.5t4.5 -16.5v-55z" />
    <glyph glyph-name="v" unicode="v" horiz-adv-x="537" 
d="M233 0q-22 0 -30 8.5t-18 33.5l-160 415q-4 10 1 17.5t15 7.5h99q11 0 16 -6.5t8 -14.5l105 -310l107 310q3 8 8.5 14.5t15.5 6.5h94q11 0 15.5 -8t1.5 -17l-159 -415q-10 -25 -20.5 -33.5t-30.5 -8.5h-68z" />
    <glyph glyph-name="w" unicode="w" horiz-adv-x="807" 
d="M527 0q-21 0 -30 9t-17 33l-71 240l-79 -240q-8 -24 -19.5 -33t-31.5 -9h-64q-22 0 -31 9t-17 33l-140 415q-4 10 0.5 17.5t14.5 7.5h101q12 0 15 -6.5t6 -15.5l85 -310l95 305q3 11 8 18t14 7h94q9 0 13 -7.5t7 -17.5l80 -305l84 311q3 8 7 14.5t16 6.5h95q11 0 16 -7.5
t2 -16.5l-139 -417q-8 -23 -19 -32t-32 -9h-63z" />
    <glyph glyph-name="x" unicode="x" horiz-adv-x="530" 
d="M390 0q-11 0 -17.5 7t-11.5 14l-97 141l-95 -140q-5 -8 -11.5 -15t-17.5 -7h-94q-13 0 -17 7.5t4 17.5l155 220l-155 215q-7 10 -3 17.5t17 7.5h97q11 0 17.5 -7t11.5 -15l91 -137l96 137q6 8 12 15t17 7h93q14 0 18 -7.5t-3 -17.5l-155 -216l156 -220q7 -10 2.5 -17
t-17.5 -7h-93z" />
    <glyph glyph-name="y" unicode="y" horiz-adv-x="536" 
d="M295 -101q-12 -31 -28.5 -57.5t-40 -46t-53.5 -31t-69 -11.5q-25 0 -42 3.5t-29 8.5q-9 3 -12 10.5t-1 15.5l10 60q5 19 18 18q7 -1 19.5 -3t27.5 -2q38 0 57.5 22.5t30.5 52.5l23 61l-182 456q-5 11 -1.5 18.5t16.5 7.5h92q11 0 19 -7.5t11 -15.5l111 -303l101 304
q3 8 11.5 15t19.5 7h89q14 0 17 -7.5t-2 -18.5z" />
    <glyph glyph-name="z" unicode="z" horiz-adv-x="481" 
d="M61 0q-21 0 -21 20v62q0 15 8 26.5t22 25.5l218 245h-227q-21 0 -21 20v63q0 20 21 20h360q20 0 20 -20v-57q0 -20 -8.5 -32t-24.5 -29l-208 -241h221q20 0 20 -20v-63q0 -20 -21 -20h-359z" />
    <glyph glyph-name="braceleft" unicode="{" horiz-adv-x="362" 
d="M103 522q0 52 16.5 90t44.5 63.5t64 38t75 12.5q9 -1 16.5 -6t7.5 -18v-73q0 -11 -7.5 -14t-15.5 -4q-38 -6 -58.5 -34.5t-20.5 -76.5v-169q0 -25 -6 -41.5t-14 -26.5t-16 -15t-12 -6q4 -2 12.5 -8t16 -17.5t13.5 -27.5t6 -38v-169q0 -50 21 -77t56 -32q9 -2 17 -6t8 -18
v-70q0 -11 -7.5 -16.5t-15.5 -5.5q-36 1 -72 11.5t-64.5 34t-46.5 62t-18 95.5l1 161q0 36 -21 51.5t-44 15.5q-3 0 -6.5 2.5t-3.5 9.5v82q0 6 3.5 9t6.5 3q23 0 44 15.5t21 51.5z" />
    <glyph glyph-name="bar" unicode="|" horiz-adv-x="250" 
d="M180 -234q0 -20 -20 -20h-70q-20 0 -20 20v950q0 20 20 20h70q20 0 20 -20v-950z" />
    <glyph glyph-name="braceright" unicode="}" horiz-adv-x="362" 
d="M258 361q0 -36 21 -51.5t44 -15.5q3 0 6.5 -3t3.5 -9v-82q0 -7 -3.5 -9.5t-6.5 -2.5q-23 0 -44 -15.5t-21 -51.5l1 -161q0 -57 -18 -95.5t-46.5 -62t-64.5 -34t-72 -11.5q-8 0 -15.5 5.5t-7.5 16.5v70q0 14 8 18t17 6q35 5 56 32t21 77v169q0 22 6 38t13.5 27.5
t15.5 17.5t13 8q-4 1 -12 6t-16 15t-14 26.5t-6 41.5v169q0 48 -20.5 76.5t-58.5 34.5q-8 1 -15.5 4t-7.5 14v73q0 13 7.5 18t16.5 6q39 0 75 -12.5t64 -38t44.5 -63.5t16.5 -90z" />
    <glyph glyph-name="asciitilde" unicode="~" horiz-adv-x="485" 
d="M87 187q-14 0 -17 7q-5 11 -8 23t-3 29q0 38 23.5 66t72.5 28q25 0 47 -6.5t42 -14t38 -13.5t34 -6q11 0 16.5 6.5t5.5 16.5q0 11 -2.5 20t-4.5 15q-2 9 12 9h55q16 0 19 -9q3 -8 6 -20.5t3 -29.5q0 -38 -22.5 -67t-70.5 -29q-29 0 -52 6.5t-42 14t-35 14t-29 6.5
q-12 0 -19.5 -7.5t-7.5 -22.5q0 -8 2.5 -15.5t4.5 -12.5q2 -8 -9 -8h-59z" />
    <glyph glyph-name="exclamdown" unicode="&#xa1;" horiz-adv-x="265" 
d="M136 391q-31 0 -52.5 21.5t-21.5 52.5t21.5 52.5t52.5 21.5q30 0 51.5 -21.5t21.5 -52.5t-21.5 -52.5t-51.5 -21.5zM77 290q0 20 20 20h72q21 0 21 -20l14 -538q0 -20 -19 -20h-105q-22 0 -20 20z" />
    <glyph glyph-name="cent" unicode="&#xa2;" horiz-adv-x="516" 
d="M176 250q0 -57 20.5 -87t46.5 -42v257q-32 -9 -49.5 -40t-17.5 -88zM231 -2q-40 7 -74 27t-58.5 51.5t-38 74.5t-13.5 97q0 104 45.5 168t139.5 78v67q0 20 20 20h42q20 0 20 -21v-64q29 -4 52.5 -13t41.5 -21.5t31 -27t21 -29.5q2 -4 2 -10t-8 -11l-83 -47
q-8 -4 -11.5 -1.5t-5.5 6.5q-4 9 -14 20.5t-30 16.5v-271q39 4 61 21t31 29q6 5 12 7t13 -6l40 -41q17 -16 8 -28q-6 -9 -18 -23.5t-31.5 -28.5t-47 -26t-64.5 -16v-75q0 -20 -20 -20h-43q-20 0 -20 21v76z" />
    <glyph glyph-name="sterling" unicode="&#xa3;" horiz-adv-x="672" 
d="M140 311q-9 15 -19 31.5t-18.5 36t-13.5 42t-5 50.5q0 49 18 92t53.5 74.5t88 50t120.5 18.5q63 0 109.5 -15.5t78 -37.5t50.5 -45.5t28 -39.5q6 -10 5.5 -17.5t-13.5 -13.5l-78 -35q-12 -5 -17.5 -2.5t-10.5 10.5q-6 9 -17.5 21.5t-29.5 24.5t-44 20t-61 8t-60.5 -11.5
t-42.5 -30t-25.5 -41t-8.5 -44.5t5.5 -41.5t14.5 -37.5t19 -35t19 -33h207q21 0 21 -20v-57q0 -20 -21 -20h-184q2 -6 2 -13q-2 -20 -8 -36t-12.5 -27t-12 -17t-6.5 -6h304q20 0 20 -20v-74q0 -20 -20 -20h-464q-20 0 -20 20v45q0 11 2.5 15t7.5 8q7 5 17.5 15t20.5 24
t18 32t10 41q0 10 -1 13h-101q-20 0 -20 20v58q0 20 21 20h74z" />
    <glyph glyph-name="currency" unicode="&#xa4;" horiz-adv-x="604" 
d="M497 380q1 -26 -6 -50.5t-19 -45.5l61 -61q15 -15 1 -29l-38 -39q-14 -14 -28 0l-62 63q-22 -16 -48.5 -25t-55.5 -9t-56.5 10t-49.5 25l-64 -63q-15 -15 -27 -1l-39 38q-14 13 1 28l64 64q-23 41 -25 95q0 52 25 96l-63 63q-14 14 -1 28l38 39q15 13 28 0l63 -64
q22 15 49.5 24t56.5 9q58 0 104 -32l59 60q15 15 28 0l38 -37q13 -15 0 -29l-62 -60q12 -21 20.5 -46t7.5 -51zM397 380q0 20 -7.5 37.5t-20.5 30.5t-30.5 20t-36.5 7q-40 0 -68 -27.5t-28 -67.5t27.5 -67.5t68.5 -27.5q19 0 36.5 7t30.5 20t20.5 30.5t7.5 37.5z" />
    <glyph glyph-name="yen" unicode="&#xa5;" horiz-adv-x="702" 
d="M198 423l-158 248q-5 9 -1 16.5t17 7.5h119q8 0 12 -4t9 -12l155 -269l155 269q5 8 9.5 12t12.5 4h119q12 0 16.5 -7.5t-1.5 -16.5l-159 -248h91q21 0 21 -20v-57q0 -20 -21 -20h-152l-20 -33v-37h112q20 0 20 -21v-56q0 -20 -20 -20h-112v-139q0 -20 -20 -20h-102
q-20 0 -20 20v139h-112q-21 0 -21 20v56q0 21 21 21h112v37l-21 33h-152q-20 0 -20 20v57q0 20 21 20h90z" />
    <glyph glyph-name="brokenbar" unicode="&#xa6;" horiz-adv-x="254" 
d="M72 716q-1 10 4.5 15t14.5 5h71q20 0 20 -21v-341q0 -20 -20 -20h-70q-20 0 -20 21v341zM72 175q0 20 19 20h71q20 0 20 -20v-409q0 -20 -20 -20h-70q-20 0 -20 21v408z" />
    <glyph glyph-name="section" unicode="&#xa7;" horiz-adv-x="638" 
d="M591 193q0 -32 -11 -63t-34 -57q19 -22 29 -51t10 -69q0 -38 -15 -73.5t-46.5 -64t-81 -45.5t-119.5 -17q-67 0 -115.5 15t-81.5 36t-52.5 43t-27.5 36q-9 13 5 27l53 50q6 6 14 7t13 -7q9 -11 26 -26t41.5 -29t56 -24t68.5 -10q55 0 86 21.5t31 57.5q0 42 -27.5 62
t-69.5 32t-90 22t-90 31t-69.5 59.5t-27.5 107.5q0 33 11 64t34 57q-18 21 -29 50t-11 70q0 40 16.5 76.5t48 64.5t78.5 44t109 16q61 0 105 -13.5t74 -32.5t47 -39.5t25 -33.5q4 -6 4 -13t-11 -15l-61 -41q-19 -13 -27 -1q-6 9 -17 20.5t-29 22t-43 18t-58 7.5
q-56 0 -87 -23.5t-31 -58.5q0 -28 16 -45t42.5 -27.5t60.5 -17.5t69.5 -16t69.5 -22t60.5 -36t42.5 -58t16 -88zM445 193q0 34 -19.5 53t-49.5 30.5t-67.5 19.5t-73.5 20q-27 -23 -27 -55t20.5 -49.5t52 -28t70.5 -18t77 -19.5q17 19 17 47z" />
    <glyph glyph-name="dieresis" unicode="&#xa8;" horiz-adv-x="388" 
d="M94 571q-29 0 -48.5 19t-19.5 48q0 27 19.5 47t48.5 20q27 0 46.5 -20t19.5 -47q0 -29 -19.5 -48t-46.5 -19zM297 571q-28 0 -48 19t-20 48q0 27 20 47t48 20t47.5 -20t19.5 -47q0 -29 -19.5 -48t-47.5 -19z" />
    <glyph glyph-name="copyright" unicode="&#xa9;" horiz-adv-x="876" 
d="M438 -33q-84 0 -156.5 30.5t-125.5 83.5t-83.5 125.5t-30.5 156.5t30.5 156.5t83.5 125.5t125.5 83.5t156.5 30.5t156 -30.5t125.5 -83.5t84 -125.5t30.5 -156.5t-30.5 -156.5t-83.5 -125.5t-125.5 -83.5t-156.5 -30.5zM438 59q64 0 119.5 23.5t96.5 64t64 96t23 120.5
t-23 121t-64 97.5t-96.5 65t-119.5 23.5q-65 0 -120 -23.5t-96 -65t-64 -97.5t-23 -121t23 -120.5t63.5 -96t96 -64t120.5 -23.5zM239 357q0 61 15.5 106.5t42.5 76t63.5 45.5t79.5 15q55 0 89 -16.5t53 -39.5t26.5 -47.5t9.5 -39.5q1 -5 -2 -9.5t-11 -6.5l-63 -11
q-8 -2 -11 1t-4 8q-2 8 -5.5 19.5t-12.5 22.5t-25 19t-42 8q-16 0 -33 -6.5t-31.5 -23t-23.5 -44.5t-9 -71q0 -72 31.5 -107.5t76.5 -35.5q39 0 63.5 11.5t36.5 21.5q5 5 9.5 6t9.5 -7l31 -45q9 -13 0 -22q-7 -6 -19.5 -16t-32.5 -19t-47.5 -15.5t-63.5 -6.5q-43 0 -79.5 15
t-63.5 44.5t-42.5 72t-15.5 97.5z" />
    <glyph glyph-name="ordfeminine" unicode="&#xaa;" horiz-adv-x="364" 
d="M45 493q0 38 25 59t85 21h63v25q0 22 -10 30.5t-30 8.5q-42 0 -42 -25q0 -7 -1 -10q-2 -4 -6 -4h-53q-10 0 -12 8q-3 6 -3 20q0 33 28.5 54.5t87.5 21.5q61 0 88.5 -25.5t27.5 -73.5v-99q0 -8 3 -11t9 -5q3 -2 6.5 -3.5t3.5 -7.5v-37q0 -8 -8.5 -13t-29.5 -5
q-16 0 -32.5 9.5t-18.5 29.5v1q-8 -15 -29 -28t-61 -13q-42 0 -66.5 20t-24.5 52zM218 529h-57q-43 0 -43 -24q0 -13 11.5 -20t27.5 -7q17 0 28.5 4.5t18.5 10.5t10.5 12t3.5 10v14z" />
    <glyph glyph-name="guillemotleft" unicode="&#xab;" horiz-adv-x="548" 
d="M64 200q-14 11 -14 29v70q0 17 13 29l131 114q15 14 28 1l39 -44q12 -16 -1 -29l-111 -106l111 -105q14 -14 1 -29l-39 -44q-13 -13 -28 0zM292 200q-14 11 -14 29v70q0 17 13 29l131 114q15 14 28 1l39 -44q14 -16 -1 -29l-111 -106l111 -105q16 -14 1 -29l-39 -44
q-13 -13 -28 0z" />
    <glyph glyph-name="logicalnot" unicode="&#xac;" horiz-adv-x="494" 
d="M329 239h-248q-20 0 -20 20v53q0 20 20 20h327q20 0 20 -20v-189q0 -20 -20 -20h-59q-20 0 -20 20v116z" />
    <glyph glyph-name="registered" unicode="&#xae;" horiz-adv-x="876" 
d="M640 160q0 -19 -44 -19q-33 0 -53.5 12.5t-34 31t-23 40t-20 40t-25 31t-37.5 12.5h-38v-148q0 -14 -13 -14h-73q-13 0 -13 14v417q0 16 16 16h147q81 0 122.5 -32.5t41.5 -105.5q0 -31 -10 -51t-23.5 -32.5t-26.5 -18.5t-18 -8q19 -14 30 -34.5t21 -39.5t22.5 -32.5
t33.5 -13.5h10q8 0 8 -11v-54zM414 388q39 0 60.5 15.5t21.5 44.5q0 61 -76 61h-55v-121h49zM438 -33q-84 0 -156.5 30.5t-125.5 83.5t-83.5 125.5t-30.5 156.5t30.5 156.5t83.5 125.5t125.5 83.5t156.5 30.5t156 -30.5t125.5 -83.5t84 -125.5t30.5 -156.5t-30.5 -156.5
t-83.5 -125.5t-125.5 -83.5t-156.5 -30.5zM438 59q64 0 119.5 23.5t96.5 64t64 96t23 120.5t-23 121t-64 97.5t-96.5 65t-119.5 23.5q-65 0 -120 -23.5t-96 -65t-64 -97.5t-23 -121t23 -120.5t63.5 -96t96 -64t120.5 -23.5z" />
    <glyph glyph-name="macron" unicode="&#xaf;" horiz-adv-x="413" 
d="M347 667q21 0 21 -20v-53q0 -20 -21 -20h-282q-20 0 -20 20v53q0 20 21 20h281z" />
    <glyph glyph-name="degree" unicode="&#xb0;" horiz-adv-x="346" 
d="M305 587q0 -27 -10.5 -51t-28.5 -42t-42 -28t-51 -10t-51 10t-42 28t-28 42t-10 51t10 51t28 42t42 28.5t51 10.5t51 -10.5t42 -28.5t28.5 -42t10.5 -51zM236 587q0 26 -18.5 44.5t-44.5 18.5t-44 -18.5t-18 -44.5t18 -44t44 -18t44.5 18t18.5 44z" />
    <glyph glyph-name="plusminus" unicode="&#xb1;" horiz-adv-x="511" 
d="M301 328v-140q0 -20 -20 -20h-55q-20 0 -20 20v140h-125q-20 0 -20 19v54q0 20 20 20h125v124q0 20 20 20h54q21 0 21 -21v-123h129q21 0 21 -20v-54q0 -19 -21 -19h-129zM433 112q21 0 21 -20v-53q0 -20 -21 -20h-357q-20 0 -20 20v53q0 20 21 20h356z" />
    <glyph glyph-name="uni00B2" unicode="&#xb2;" horiz-adv-x="251" 
d="M39 493q-13 0 -13 12v20q0 33 21 52.5t46.5 33.5t46.5 28t21 36q0 34 -36 34q-18 0 -26.5 -9t-10.5 -18q-2 -7 -10 -6l-47 9q-4 1 -4.5 4t-0.5 5q1 12 7 25t18 24t29.5 18.5t43.5 7.5q46 0 73 -23.5t27 -66.5q0 -31 -17.5 -51.5t-38.5 -34.5t-38.5 -23.5t-17.5 -18.5v-2
h98q13 1 13 -12v-32q0 -12 -13 -12h-171z" />
    <glyph glyph-name="uni00B3" unicode="&#xb3;" horiz-adv-x="257" 
d="M106 604q-10 0 -10 10v27q0 9 10 9h20q10 0 20 8t10 25q0 10 -9 18t-27 8t-24.5 -6.5t-9.5 -11.5q-3 -6 -13 -3l-39 16q-7 2 -4 10q3 6 8.5 15.5t17 18.5t28.5 15t42 6q26 0 44.5 -7t30.5 -18t18 -25t6 -29t-5 -25t-12 -17t-13.5 -10t-10.5 -4q4 -2 12 -5.5t16.5 -11
t14.5 -19.5t6 -30q0 -36 -30 -56.5t-78 -20.5q-27 0 -45.5 5.5t-30 13.5t-17.5 16t-9 14q-3 7 3 12l28 23q8 6 11 0q5 -8 17.5 -18.5t38.5 -10.5q19 0 31 7.5t12 22.5q0 14 -11 21t-25 7h-22z" />
    <glyph glyph-name="acute" unicode="&#xb4;" horiz-adv-x="298" 
d="M49 557q-8 0 -11 5t-1 12l68 158q4 8 9 13t14 5h119q8 0 12 -4.5t-1 -12.5l-101 -155q-6 -9 -11.5 -15t-17.5 -6h-79z" />
    <glyph glyph-name="uni00B5" unicode="&#xb5;" horiz-adv-x="542" 
d="M198 199q0 -45 19 -65.5t49 -20.5q27 0 45 11.5t29.5 27.5t16.5 33t5 28v249q0 20 20 20h90q20 0 20 -20v-442q0 -20 -20 -20h-74q-20 0 -20 20v64q-7 -16 -19.5 -32t-31 -29t-45 -21t-62.5 -8q-10 0 -17 1t-12 3q-6 2 -10 5v-227q0 -20 -20 -20h-74q-20 0 -20 20v686
q0 20 20 20h90q21 0 21 -20v-263v0z" />
    <glyph glyph-name="paragraph" unicode="&#xb6;" horiz-adv-x="647" 
d="M323 241h-70q-55 0 -96.5 16.5t-69 46.5t-41.5 72t-14 93t14 93t41.5 73t69 48t96.5 17h294q21 0 21 -20v-660q0 -20 -20 -20h-38q-20 0 -20 20v618h-90v-618q0 -20 -20 -20h-38q-19 0 -19 20v221z" />
    <glyph glyph-name="periodcentered" unicode="&#xb7;" horiz-adv-x="258" 
d="M52 355q0 32 22.5 55t54.5 23t55 -23t23 -55t-23 -54.5t-55 -22.5t-54.5 22.5t-22.5 54.5z" />
    <glyph glyph-name="cedilla" unicode="&#xb8;" horiz-adv-x="285" 
d="M175 -29q10 0 22 -4.5t21.5 -13.5t16 -23t6.5 -32q0 -44 -30.5 -64.5t-70.5 -20.5q-36 0 -58 13t-31 21q-6 6 -2 12l20 33q6 10 12 4q8 -6 22 -14t35 -8q38 0 38 27q0 11 -15 21.5t-57 11.5q-8 0 -5 7l23 56q4 9 15 9h44q10 0 6 -9z" />
    <glyph glyph-name="uni00B9" unicode="&#xb9;" horiz-adv-x="219" 
d="M180 505q0 -12 -12 -12h-44q-13 0 -13 12v166q-7 -13 -25 -27t-50 -17q-3 0 -7 1t-5 7l-9 48q-1 6 2.5 8.5t6.5 2.5q33 2 55.5 22.5t29.5 39.5q2 4 4.5 7t8.5 3h48q10 0 10 -11v-250z" />
    <glyph glyph-name="ordmasculine" unicode="&#xba;" horiz-adv-x="344" 
d="M172 428q-61 0 -94.5 37.5t-33.5 100.5q0 61 33.5 98t94.5 37t95 -37t34 -98q0 -63 -33.5 -100.5t-95.5 -37.5zM172 495q26 0 39.5 19t13.5 51q0 31 -13.5 51t-39.5 20q-25 0 -39.5 -20t-14.5 -51q0 -32 14 -51t40 -19z" />
    <glyph glyph-name="guillemotright" unicode="&#xbb;" horiz-adv-x="548" 
d="M126 86q-16 -14 -26 -1l-43 47q-12 14 2 26l112 106l-112 107q-14 12 -2 26l42 47q12 12 27 -1l129 -113q15 -14 15 -30v-70q0 -18 -15 -32zM355 86q-16 -13 -27 -1l-43 47q-12 14 2 26l112 106l-112 107q-14 12 -2 26l43 47q5 5 11.5 5.5t14.5 -6.5l130 -113
q15 -14 15 -30v-70q0 -17 -16 -32z" />
    <glyph glyph-name="onequarter" unicode="&#xbc;" horiz-adv-x="601" 
d="M243 20q-3 -10 -8 -15t-16 -5h-48q-10 0 -15 6t-3 15l199 659q6 20 23 20h47q10 0 15.5 -6t2.5 -15zM210 440q0 -13 -12 -13h-44q-13 0 -13 13v166q-7 -13 -25 -27.5t-50 -16.5q-3 -1 -7 0.5t-5 6.5l-9 49q-1 5 2.5 7.5t6.5 2.5q16 1 30 7.5t25 15.5t18.5 19.5t11.5 19.5
q2 4 4.5 7t8.5 3h48q10 0 10 -10v-250zM331 94q0 11 4 19l73 151q2 5 4.5 7t9.5 2h55q13 0 8 -10l-71 -146h55v42q0 13 12 13h43q13 0 13 -12v-43h23q13 0 13 -12v-38q0 -13 -13 -13h-23v-42q0 -12 -13 -12h-50q-12 0 -12 13v41h-118q-13 0 -13 13v27z" />
    <glyph glyph-name="onehalf" unicode="&#xbd;" horiz-adv-x="597" 
d="M243 20q-3 -10 -8 -15t-16 -5h-48q-10 0 -15 6t-3 15l199 659q6 20 23 20h47q10 0 15.5 -6t2.5 -15zM211 440q0 -12 -12 -12h-44q-13 0 -13 12v166q-7 -13 -25.5 -27t-50.5 -17q-2 0 -6 1.5t-5 6.5l-9 48q-2 6 2 8.5t6 2.5q34 2 55.5 22.5t29.5 39.5q2 4 4.5 7t8.5 3h48
q11 0 11 -11v-250zM366 0q-13 0 -13 12v20q0 33 21 52.5t46.5 33.5t46.5 28t21 36q0 34 -36 34q-19 0 -27.5 -9t-10.5 -18q-2 -7 -10 -6l-46 9q-4 1 -4.5 4t-0.5 5q1 12 7 25t18 24t29.5 18.5t43.5 7.5q46 0 73 -23.5t27 -66.5q0 -31 -17.5 -51.5t-38.5 -34.5t-38.5 -23.5
t-17.5 -18.5v-2h97q14 2 14 -12v-32q0 -12 -13 -12h-171z" />
    <glyph glyph-name="threequarters" unicode="&#xbe;" horiz-adv-x="611" 
d="M256 20q-4 -10 -9 -15t-15 -5h-48q-10 0 -15 6t-3 15l199 659q6 20 23 20h47q10 0 15.5 -6t2.5 -15zM341 94q0 11 4 19l73 151q2 5 4.5 7t9.5 2h55q13 0 8 -10l-71 -146h55v42q0 13 12 13h43q13 0 13 -12v-43h23q13 0 13 -12v-38q0 -13 -13 -13h-23v-42q0 -12 -13 -12
h-50q-12 0 -12 13v41h-118q-13 0 -13 13v27zM124 538q-10 0 -10 10v27q0 9 10 9h20q10 0 20 8t10 25q0 10 -9 18t-27 8t-24.5 -6.5t-9.5 -11.5q-3 -6 -13 -3l-39 16q-7 2 -5 10q3 6 9 15.5t17 18.5t28 15t42 6q26 0 45 -7t31 -18t18 -25t6 -29q0 -14 -5 -24.5t-12 -17
t-13.5 -10t-10.5 -4.5q4 -2 12 -5.5t16.5 -11t14.5 -19.5t6 -30q0 -36 -30 -56.5t-79 -20.5q-27 0 -45.5 5.5t-30 13.5t-17 16t-8.5 14q-3 7 3 12l28 23q7 5 11 0q5 -8 17.5 -18.5t38.5 -10.5q19 0 30.5 7.5t11.5 22.5q0 14 -10.5 21t-24.5 7h-22z" />
    <glyph glyph-name="questiondown" unicode="&#xbf;" horiz-adv-x="499" 
d="M279 392q-31 0 -52 21.5t-21 52.5q0 30 21.5 51.5t51.5 21.5t51.5 -21.5t21.5 -51.5q0 -31 -21.5 -52.5t-51.5 -21.5zM457 -44q10 -2 11.5 -8.5t1.5 -11.5q-3 -44 -21 -80t-47.5 -61.5t-68.5 -39t-84 -13.5q-58 0 -99.5 17.5t-68.5 47t-39.5 67.5t-12.5 79
q0 45 12.5 76.5t32 56t42.5 45t43.5 43t35 50.5t17.5 68q0 4 3 10.5t13 6.5h90q11 0 13.5 -6t2.5 -12q-2 -54 -15 -90t-32 -62t-40 -44.5t-39 -37.5t-30 -41t-12 -55q0 -38 22.5 -63.5t64.5 -25.5q38 0 61.5 22t28.5 58q1 5 3.5 11.5t13.5 4.5z" />
    <glyph glyph-name="Agrave" unicode="&#xc0;" horiz-adv-x="673" 
d="M460 175h-248l-52 -153q-3 -8 -7 -15t-15 -7h-104q-11 0 -15.5 7.5t-0.5 16.5l237 633q9 23 20 33t31 10h65q21 0 32.5 -10t19.5 -33l233 -633q3 -9 -1.5 -16.5t-15.5 -7.5h-103q-12 0 -16 7t-7 16zM249 280h176l-89 254z" />
    <glyph glyph-name="Aacute" unicode="&#xc1;" horiz-adv-x="673" 
d="M460 175h-248l-52 -153q-3 -8 -7 -15t-15 -7h-104q-11 0 -15.5 7.5t-0.5 16.5l237 633q9 23 20 33t31 10h65q21 0 32.5 -10t19.5 -33l233 -633q3 -9 -1.5 -16.5t-15.5 -7.5h-103q-12 0 -16 7t-7 16zM249 280h176l-89 254zM306 775q-8 0 -11 5t-1 12l68 158q4 8 9 13t14 5
h119q8 0 12 -4.5t-1 -12.5l-101 -155q-6 -9 -11.5 -15t-17.5 -6h-79z" />
    <glyph glyph-name="Acircumflex" unicode="&#xc2;" horiz-adv-x="673" 
d="M460 175h-248l-52 -153q-3 -8 -7 -15t-15 -7h-104q-11 0 -15.5 7.5t-0.5 16.5l237 633q9 23 20 33t31 10h65q21 0 32.5 -10t19.5 -33l233 -633q3 -9 -1.5 -16.5t-15.5 -7.5h-103q-12 0 -16 7t-7 16zM249 280h176l-89 254zM203 756q-11 0 -15 7.5t0 15.5l70 150
q8 20 25 20h109q10 0 15.5 -5.5t10.5 -14.5l69 -150q4 -8 0.5 -15.5t-15.5 -7.5h-72q-16 0 -23 16l-40 82l-39 -82q-7 -16 -23 -16h-72z" />
    <glyph glyph-name="Atilde" unicode="&#xc3;" horiz-adv-x="673" 
d="M460 175h-248l-52 -153q-3 -8 -7 -15t-15 -7h-104q-11 0 -15.5 7.5t-0.5 16.5l237 633q9 23 20 33t31 10h65q21 0 32.5 -10t19.5 -33l233 -633q3 -9 -1.5 -16.5t-15.5 -7.5h-103q-12 0 -16 7t-7 16zM249 280h176l-89 254zM188 764q-14 0 -17 7q-5 11 -8 23t-3 29
q0 38 23.5 66t72.5 28q25 0 47 -6.5t42 -14t38 -13.5t34 -6q11 0 16.5 6.5t5.5 16.5q0 11 -2.5 20t-4.5 15q-2 9 12 9h55q16 0 19 -9q3 -8 6 -20.5t3 -29.5q0 -38 -22.5 -67t-70.5 -29q-29 0 -52 6.5t-42 14t-35 14t-29 6.5q-12 0 -19.5 -7.5t-7.5 -22.5q0 -8 2.5 -15.5
t4.5 -12.5q2 -8 -9 -8h-59z" />
    <glyph glyph-name="Adieresis" unicode="&#xc4;" horiz-adv-x="673" 
d="M460 175h-248l-52 -153q-3 -8 -7 -15t-15 -7h-104q-11 0 -15.5 7.5t-0.5 16.5l237 633q9 23 20 33t31 10h65q21 0 32.5 -10t19.5 -33l233 -633q3 -9 -1.5 -16.5t-15.5 -7.5h-103q-12 0 -16 7t-7 16zM249 280h176l-89 254zM240 789q-29 0 -48.5 19t-19.5 48q0 27 19.5 47
t48.5 20q27 0 46.5 -20t19.5 -47q0 -29 -19.5 -48t-46.5 -19zM443 789q-28 0 -48 19t-20 48q0 27 20 47t48 20t47.5 -20t19.5 -47q0 -29 -19.5 -48t-47.5 -19z" />
    <glyph glyph-name="Aring" unicode="&#xc5;" horiz-adv-x="673" 
d="M460 175h-248l-52 -153q-3 -8 -7 -15t-15 -7h-104q-11 0 -15.5 7.5t-0.5 16.5l237 633q9 23 20 33t31 10h65q21 0 32.5 -10t19.5 -33l233 -633q3 -9 -1.5 -16.5t-15.5 -7.5h-103q-12 0 -16 7t-7 16zM249 280h176l-89 254zM338 768q-21 0 -39.5 7.5t-32 21t-21 31.5
t-7.5 39q0 43 29 71.5t71 28.5t70.5 -28.5t28.5 -71.5q0 -21 -7.5 -39t-21 -31.5t-31.5 -21t-39 -7.5zM376 867q0 17 -10.5 28t-27.5 11t-28 -11t-11 -28t11 -27.5t28 -10.5t27.5 10.5t10.5 27.5z" />
    <glyph glyph-name="AE" unicode="&#xc6;" horiz-adv-x="863" 
d="M249 280h176l-89 254zM460 175h-248l-52 -153q-2 -8 -6.5 -15t-15.5 -7h-104q-11 0 -16 7.5t-1 16.5l233 633q8 23 19.5 33t31.5 10h501q20 0 20 -20v-71q0 -21 -20 -21h-354l70 -191h216q20 0 20 -20v-70q0 -20 -20 -20h-176l65 -175h179q20 0 20 -21v-71q0 -20 -20 -20
h-266q-12 0 -16 7t-7 16z" />
    <glyph glyph-name="Ccedilla" unicode="&#xc7;" horiz-adv-x="653" 
d="M605 144q11 -11 11.5 -19.5t-6.5 -16.5q-10 -13 -28.5 -32t-46.5 -36.5t-66.5 -30.5t-87.5 -14l-10 -24q10 0 22 -4.5t21.5 -13.5t16 -23t6.5 -32q0 -22 -8 -38t-22 -26.5t-32.5 -15.5t-38.5 -5q-36 0 -58.5 13.5t-30.5 21.5q-2 2 -3 4.5t1 6.5l21 34q3 6 6 5.5t6 -2.5
q7 -6 21.5 -14t34.5 -8q38 0 38 27q0 11 -15 21.5t-57 11.5q-7 0 -4 7l23 56q-62 7 -113 32.5t-87.5 69.5t-56.5 106.5t-20 143.5q0 88 21.5 155t62 112t98 67.5t128.5 22.5q82 0 133.5 -26.5t80.5 -63t40 -75t14 -61.5q1 -18 -19 -22l-85 -13q-14 -2 -18.5 2.5t-6.5 13.5
q-3 14 -10 35.5t-22.5 41t-41 33.5t-64.5 14q-36 0 -67 -14t-53.5 -43t-35.5 -73.5t-13 -105.5q0 -62 16 -106.5t43 -73t61.5 -41.5t71.5 -13q27 0 50.5 8t43 20t34 25t23.5 23q8 8 15 10t15 -7z" />
    <glyph glyph-name="Egrave" unicode="&#xc8;" 
d="M94 0q-20 0 -20 20v660q0 20 20 20h402q20 0 20 -20v-71q0 -21 -21 -21h-283v-186h219q20 0 20 -20v-70q0 -20 -21 -20h-218v-180h284q20 0 20 -21v-71q0 -20 -21 -20h-401zM266 774q-12 0 -17.5 6t-11.5 15l-101 155q-5 8 -1.5 12.5t11.5 4.5h120q9 0 14 -5t9 -13
l68 -158q3 -7 -0.5 -12t-11.5 -5h-79z" />
    <glyph glyph-name="Eacute" unicode="&#xc9;" 
d="M257 775q-8 0 -11 5t-1 12l68 158q4 8 9 13t14 5h119q8 0 12 -4.5t-1 -12.5l-101 -155q-6 -9 -11.5 -15t-17.5 -6h-79zM94 0q-20 0 -20 20v660q0 20 20 20h402q20 0 20 -20v-71q0 -21 -21 -21h-283v-186h219q20 0 20 -20v-70q0 -20 -21 -20h-218v-180h284q20 0 20 -21
v-71q0 -20 -21 -20h-401z" />
    <glyph glyph-name="Ecircumflex" unicode="&#xca;" 
d="M176 756q-11 0 -15 7.5t0 15.5l70 150q8 20 25 20h109q10 0 15.5 -5.5t10.5 -14.5l69 -150q4 -8 0.5 -15.5t-15.5 -7.5h-72q-16 0 -23 16l-40 82l-39 -82q-7 -16 -23 -16h-72zM94 0q-20 0 -20 20v660q0 20 20 20h402q20 0 20 -20v-71q0 -21 -21 -21h-283v-186h219
q20 0 20 -20v-70q0 -20 -21 -20h-218v-180h284q20 0 20 -21v-71q0 -20 -21 -20h-401z" />
    <glyph glyph-name="Edieresis" unicode="&#xcb;" 
d="M206 789q-29 0 -48.5 19t-19.5 48q0 27 19.5 47t48.5 20q27 0 46.5 -20t19.5 -47q0 -29 -19.5 -48t-46.5 -19zM409 789q-28 0 -48 19t-20 48q0 27 20 47t48 20t47.5 -20t19.5 -47q0 -29 -19.5 -48t-47.5 -19zM94 0q-20 0 -20 20v660q0 20 20 20h402q20 0 20 -20v-71
q0 -21 -21 -21h-283v-186h219q20 0 20 -20v-70q0 -20 -21 -20h-218v-180h284q20 0 20 -21v-71q0 -20 -21 -20h-401z" />
    <glyph glyph-name="Igrave" unicode="&#xcc;" horiz-adv-x="286" 
d="M212 20q0 -20 -20 -20h-98q-20 0 -20 20v660q0 20 20 20h98q20 0 20 -20v-660zM97 774q-12 0 -17.5 6t-11.5 15l-101 155q-5 8 -1.5 12.5t11.5 4.5h120q9 0 14 -5t9 -13l68 -158q3 -7 -0.5 -12t-11.5 -5h-79z" />
    <glyph glyph-name="Iacute" unicode="&#xcd;" horiz-adv-x="286" 
d="M212 20q0 -20 -20 -20h-98q-20 0 -20 20v660q0 20 20 20h98q20 0 20 -20v-660zM98 775q-8 0 -11 5t-1 12l68 158q4 8 9 13t14 5h119q8 0 12 -4.5t-1 -12.5l-101 -155q-6 -9 -11.5 -15t-17.5 -6h-79z" />
    <glyph glyph-name="Icircumflex" unicode="&#xce;" horiz-adv-x="286" 
d="M212 20q0 -20 -20 -20h-98q-20 0 -20 20v660q0 20 20 20h98q20 0 20 -20v-660zM4 756q-11 0 -15 7.5t0 15.5l70 150q8 20 25 20h109q10 0 15.5 -5.5t10.5 -14.5l69 -150q4 -8 0.5 -15.5t-15.5 -7.5h-72q-16 0 -23 16l-40 82l-39 -82q-7 -16 -23 -16h-72z" />
    <glyph glyph-name="Idieresis" unicode="&#xcf;" horiz-adv-x="286" 
d="M212 20q0 -20 -20 -20h-98q-20 0 -20 20v660q0 20 20 20h98q20 0 20 -20v-660zM40 754q-29 0 -48.5 19t-19.5 48q0 27 19.5 47t48.5 20q27 0 46.5 -20t19.5 -47q0 -29 -19.5 -48t-46.5 -19zM243 754q-28 0 -48 19t-20 48q0 27 20 47t48 20t47.5 -20t19.5 -47
q0 -29 -19.5 -48t-47.5 -19z" />
    <glyph glyph-name="Eth" unicode="&#xd0;" horiz-adv-x="669" 
d="M94 0q-20 0 -20 20v660q0 20 20 20h185q69 0 132 -19.5t111 -63t76.5 -112t28.5 -167.5q0 -93 -26 -157.5t-69.5 -104.5t-101 -58t-121.5 -18h-215zM308 112q40 0 73.5 14.5t57.5 43t37.5 71.5t13.5 99q0 116 -51.5 182t-161.5 66h-65v-196h155q20 0 20 -20v-47
q0 -20 -21 -20h-154v-193h96z" />
    <glyph glyph-name="Ntilde" unicode="&#xd1;" horiz-adv-x="690" 
d="M502 0q-18 0 -28.5 8t-20.5 25l-241 412v-425q0 -20 -20 -20h-98q-20 0 -20 20v660q0 20 20 20h95q19 0 30 -11t19 -26l240 -424v441q0 20 20 20h98q20 0 20 -20v-660q0 -20 -20 -20h-94zM200 764q-14 0 -17 7q-5 11 -8 23t-3 29q0 38 23.5 66t72.5 28q25 0 47 -6.5
t42 -14t38 -13.5t34 -6q11 0 16.5 6.5t5.5 16.5q0 11 -2.5 20t-4.5 15q-2 9 12 9h55q16 0 19 -9q3 -8 6 -20.5t3 -29.5q0 -38 -22.5 -67t-70.5 -29q-29 0 -52 6.5t-42 14t-35 14t-29 6.5q-12 0 -19.5 -7.5t-7.5 -22.5q0 -8 2.5 -15.5t4.5 -12.5q2 -8 -9 -8h-59z" />
    <glyph glyph-name="Ograve" unicode="&#xd2;" horiz-adv-x="709" 
d="M355 -6q-64 0 -121 21.5t-99.5 65.5t-67.5 110.5t-25 157.5t24.5 158t67.5 111t99.5 66t121.5 22q64 0 121 -22t99.5 -66t67 -111t24.5 -158t-25 -157.5t-67.5 -110.5t-99 -65.5t-120.5 -21.5zM355 113q34 0 64.5 12.5t54 40.5t37 73t13.5 110q0 66 -14 111t-37 72.5
t-53.5 40t-64.5 12.5t-65 -12.5t-54 -40t-37 -72.5t-14 -111q0 -65 13.5 -110t37 -73t54 -40.5t65.5 -12.5zM310 774q-12 0 -17.5 6t-11.5 15l-101 155q-5 8 -1.5 12.5t11.5 4.5h120q9 0 14 -5t9 -13l68 -158q3 -7 -0.5 -12t-11.5 -5h-79z" />
    <glyph glyph-name="Oacute" unicode="&#xd3;" horiz-adv-x="709" 
d="M297 775q-8 0 -11 5t-1 12l68 158q4 8 9 13t14 5h119q8 0 12 -4.5t-1 -12.5l-101 -155q-6 -9 -11.5 -15t-17.5 -6h-79zM355 -6q-64 0 -121 21.5t-99.5 65.5t-67.5 110.5t-25 157.5t24.5 158t67.5 111t99.5 66t121.5 22q64 0 121 -22t99.5 -66t67 -111t24.5 -158
t-25 -157.5t-67.5 -110.5t-99 -65.5t-120.5 -21.5zM355 113q34 0 64.5 12.5t54 40.5t37 73t13.5 110q0 66 -14 111t-37 72.5t-53.5 40t-64.5 12.5t-65 -12.5t-54 -40t-37 -72.5t-14 -111q0 -65 13.5 -110t37 -73t54 -40.5t65.5 -12.5z" />
    <glyph glyph-name="Ocircumflex" unicode="&#xd4;" horiz-adv-x="709" 
d="M223 756q-11 0 -15 7.5t0 15.5l70 150q8 20 25 20h109q10 0 15.5 -5.5t10.5 -14.5l69 -150q4 -8 0.5 -15.5t-15.5 -7.5h-72q-16 0 -23 16l-40 82l-39 -82q-7 -16 -23 -16h-72zM355 -6q-64 0 -121 21.5t-99.5 65.5t-67.5 110.5t-25 157.5t24.5 158t67.5 111t99.5 66
t121.5 22q64 0 121 -22t99.5 -66t67 -111t24.5 -158t-25 -157.5t-67.5 -110.5t-99 -65.5t-120.5 -21.5zM355 113q34 0 64.5 12.5t54 40.5t37 73t13.5 110q0 66 -14 111t-37 72.5t-53.5 40t-64.5 12.5t-65 -12.5t-54 -40t-37 -72.5t-14 -111q0 -65 13.5 -110t37 -73t54 -40.5
t65.5 -12.5z" />
    <glyph glyph-name="Otilde" unicode="&#xd5;" horiz-adv-x="709" 
d="M355 -6q-64 0 -121 21.5t-99.5 65.5t-67.5 110.5t-25 157.5t24.5 158t67.5 111t99.5 66t121.5 22q64 0 121 -22t99.5 -66t67 -111t24.5 -158t-25 -157.5t-67.5 -110.5t-99 -65.5t-120.5 -21.5zM355 113q34 0 64.5 12.5t54 40.5t37 73t13.5 110q0 66 -14 111t-37 72.5
t-53.5 40t-64.5 12.5t-65 -12.5t-54 -40t-37 -72.5t-14 -111q0 -65 13.5 -110t37 -73t54 -40.5t65.5 -12.5zM201 764q-14 0 -17 7q-5 11 -8 23t-3 29q0 38 23.5 66t72.5 28q25 0 47 -6.5t42 -14t38 -13.5t34 -6q11 0 16.5 6.5t5.5 16.5q0 11 -2.5 20t-4.5 15q-2 9 12 9h55
q16 0 19 -9q3 -8 6 -20.5t3 -29.5q0 -38 -22.5 -67t-70.5 -29q-29 0 -52 6.5t-42 14t-35 14t-29 6.5q-12 0 -19.5 -7.5t-7.5 -22.5q0 -8 2.5 -15.5t4.5 -12.5q2 -8 -9 -8h-59z" />
    <glyph glyph-name="Odieresis" unicode="&#xd6;" horiz-adv-x="709" 
d="M257 789q-29 0 -48.5 19t-19.5 48q0 27 19.5 47t48.5 20q27 0 46.5 -20t19.5 -47q0 -29 -19.5 -48t-46.5 -19zM460 789q-28 0 -48 19t-20 48q0 27 20 47t48 20t47.5 -20t19.5 -47q0 -29 -19.5 -48t-47.5 -19zM355 -6q-64 0 -121 21.5t-99.5 65.5t-67.5 110.5t-25 157.5
t24.5 158t67.5 111t99.5 66t121.5 22q64 0 121 -22t99.5 -66t67 -111t24.5 -158t-25 -157.5t-67.5 -110.5t-99 -65.5t-120.5 -21.5zM355 113q34 0 64.5 12.5t54 40.5t37 73t13.5 110q0 66 -14 111t-37 72.5t-53.5 40t-64.5 12.5t-65 -12.5t-54 -40t-37 -72.5t-14 -111
q0 -65 13.5 -110t37 -73t54 -40.5t65.5 -12.5z" />
    <glyph glyph-name="multiply" unicode="&#xd7;" horiz-adv-x="497" 
d="M315 272l120 -120q14 -14 0 -28l-38 -38q-14 -14 -29 0l-120 120l-119 -120q-14 -14 -28 0l-39 38q-14 13 1 28l119 120l-119 120q-14 14 0 28l38 39q14 14 28 -1l119 -119l120 119q15 14 28 1l39 -38q14 -15 -1 -30z" />
    <glyph glyph-name="Oslash" unicode="&#xd8;" horiz-adv-x="708" 
d="M354 -6q-82 0 -148 33l-18 -28q-5 -8 -10 -11.5t-13 -3.5h-95q-9 0 -12.5 4.5t1.5 13.5l61 94q-37 44 -58 106.5t-21 146.5q0 91 24.5 158t67.5 111t99.5 66t121.5 22q78 0 144 -32l19 28q9 14 20 14h96q8 0 12 -5.5t0 -11.5l-61 -93q38 -45 60 -108.5t22 -148.5
q0 -91 -25 -157.5t-67.5 -110.5t-99 -65.5t-120.5 -21.5zM354 113q34 0 64.5 12.5t54 40.5t37 73t13.5 110q0 42 -5.5 75.5t-16.5 59.5l-229 -351q36 -20 82 -20zM184 349q0 -82 21 -134l229 350q-18 11 -38.5 15.5t-41.5 4.5q-34 0 -65 -12.5t-54 -40t-37 -72.5t-14 -111z
" />
    <glyph glyph-name="Ugrave" unicode="&#xd9;" horiz-adv-x="674" 
d="M469 680q0 20 21 20h97q20 0 20 -20v-391q0 -84 -21 -140.5t-57.5 -91t-85.5 -49t-104 -14.5q-56 0 -105.5 14.5t-86.5 49t-58.5 91t-21.5 140.5l1 391q0 20 20 20h98q20 0 20 -20v-401q0 -74 31 -118.5t102 -44.5q70 0 100 44.5t30 118.5v401zM289 774q-12 0 -17.5 6
t-11.5 15l-101 155q-5 8 -1.5 12.5t11.5 4.5h120q9 0 14 -5t9 -13l68 -158q3 -7 -0.5 -12t-11.5 -5h-79z" />
    <glyph glyph-name="Uacute" unicode="&#xda;" horiz-adv-x="674" 
d="M281 775q-8 0 -11 5t-1 12l68 158q4 8 9 13t14 5h119q8 0 12 -4.5t-1 -12.5l-101 -155q-6 -9 -11.5 -15t-17.5 -6h-79zM469 680q0 20 21 20h97q20 0 20 -20v-391q0 -84 -21 -140.5t-57.5 -91t-85.5 -49t-104 -14.5q-56 0 -105.5 14.5t-86.5 49t-58.5 91t-21.5 140.5
l1 391q0 20 20 20h98q20 0 20 -20v-401q0 -74 31 -118.5t102 -44.5q70 0 100 44.5t30 118.5v401z" />
    <glyph glyph-name="Ucircumflex" unicode="&#xdb;" horiz-adv-x="674" 
d="M197 756q-11 0 -15 7.5t0 15.5l70 150q8 20 25 20h109q10 0 15.5 -5.5t10.5 -14.5l69 -150q4 -8 0.5 -15.5t-15.5 -7.5h-72q-16 0 -23 16l-40 82l-39 -82q-7 -16 -23 -16h-72zM469 680q0 20 21 20h97q20 0 20 -20v-391q0 -84 -21 -140.5t-57.5 -91t-85.5 -49t-104 -14.5
q-56 0 -105.5 14.5t-86.5 49t-58.5 91t-21.5 140.5l1 391q0 20 20 20h98q20 0 20 -20v-401q0 -74 31 -118.5t102 -44.5q70 0 100 44.5t30 118.5v401z" />
    <glyph glyph-name="Udieresis" unicode="&#xdc;" horiz-adv-x="674" 
d="M234 789q-29 0 -48.5 19t-19.5 48q0 27 19.5 47t48.5 20q27 0 46.5 -20t19.5 -47q0 -29 -19.5 -48t-46.5 -19zM437 789q-28 0 -48 19t-20 48q0 27 20 47t48 20t47.5 -20t19.5 -47q0 -29 -19.5 -48t-47.5 -19zM469 680q0 20 21 20h97q20 0 20 -20v-391q0 -84 -21 -140.5
t-57.5 -91t-85.5 -49t-104 -14.5q-56 0 -105.5 14.5t-86.5 49t-58.5 91t-21.5 140.5l1 391q0 20 20 20h98q20 0 20 -20v-401q0 -74 31 -118.5t102 -44.5q70 0 100 44.5t30 118.5v401z" />
    <glyph glyph-name="Yacute" unicode="&#xdd;" horiz-adv-x="665" 
d="M282 0q-20 0 -20 20v273l-240 383q-6 9 -1.5 16.5t16.5 7.5h119q8 0 12 -4t9 -13l156 -273l155 273q5 9 9 13t12 4h119q13 0 17 -7.5t-1 -16.5l-240 -383v-273q0 -20 -20 -20h-102zM283 775q-8 0 -11 5t-1 12l68 158q4 8 9 13t14 5h119q8 0 12 -4.5t-1 -12.5l-101 -155
q-6 -9 -11.5 -15t-17.5 -6h-79z" />
    <glyph glyph-name="Thorn" unicode="&#xde;" horiz-adv-x="618" 
d="M310 236q140 0 140 121q0 57 -35 92.5t-110 35.5h-93v-249h98zM316 597q127 0 200 -59.5t73 -180.5q0 -60 -20 -103.5t-54.5 -72t-81 -42t-99.5 -13.5h-122v-106q0 -20 -20 -20h-98q-20 0 -20 20v660q0 20 20 20h98q20 0 20 -20v-83h104z" />
    <glyph glyph-name="germandbls" unicode="&#xdf;" horiz-adv-x="570" 
d="M250 91q4 19 17 17q7 -2 22 -5.5t30 -3.5q41 0 64 19.5t23 57.5q0 28 -10.5 46t-25.5 30.5t-33.5 21.5t-33.5 19.5t-25.5 24t-10.5 35.5q0 26 16.5 43.5t36 35t36 40t16.5 58.5q0 45 -22 74t-65 29q-44 0 -66.5 -32.5t-22.5 -82.5v-497q0 -21 -20 -21h-95q-20 0 -20 21
v520q0 39 12 76.5t38.5 67t68.5 47.5t102 18q49 0 89 -14.5t68.5 -40t44.5 -59.5t16 -73q0 -47 -16.5 -76t-36.5 -50t-36.5 -37.5t-16.5 -37.5q0 -14 11 -24t27.5 -20.5t36 -23.5t36 -33t27.5 -49t11 -71q0 -39 -15.5 -67.5t-42.5 -48t-63 -29t-77 -9.5q-34 0 -57 3.5
t-37 8.5q-18 6 -14 27z" />
    <glyph glyph-name="agrave" unicode="&#xe0;" horiz-adv-x="524" 
d="M497 25q0 -10 -10 -20t-47 -10q-41 0 -67 18.5t-31 56.5q-7 -12 -18.5 -25t-29.5 -24.5t-44 -19t-61 -7.5q-75 0 -116 36t-41 93q0 64 44 99t145 35h106v58q0 39 -19.5 56.5t-54.5 17.5t-54 -16t-19 -44q0 -5 1.5 -11t1.5 -11t-4 -8t-17 -3h-72q-20 0 -25 16t-5 38
q0 61 49.5 99.5t147.5 38.5q105 0 152.5 -47t47.5 -131v-166q0 -20 7 -30t18 -13q3 -1 9 -5t6 -15v-56zM327 188h-94q-35 0 -52 -12.5t-17 -35.5t17 -35t44 -12q30 0 50 12t31 26q13 17 21 38v19zM236 557q-12 0 -17.5 6t-11.5 15l-101 155q-5 8 -1.5 12.5t11.5 4.5h120
q9 0 14 -5t9 -13l68 -158q3 -7 -0.5 -12t-11.5 -5h-79z" />
    <glyph glyph-name="aacute" unicode="&#xe1;" horiz-adv-x="524" 
d="M202 557q-8 0 -11 5t-1 12l68 158q4 8 9 13t14 5h119q8 0 12 -4.5t-1 -12.5l-101 -155q-6 -9 -11.5 -15t-17.5 -6h-79zM497 25q0 -10 -10 -20t-47 -10q-41 0 -67 18.5t-31 56.5q-7 -12 -18.5 -25t-29.5 -24.5t-44 -19t-61 -7.5q-75 0 -116 36t-41 93q0 64 44 99t145 35
h106v58q0 39 -19.5 56.5t-54.5 17.5t-54 -16t-19 -44q0 -5 1.5 -11t1.5 -11t-4 -8t-17 -3h-72q-20 0 -25 16t-5 38q0 61 49.5 99.5t147.5 38.5q105 0 152.5 -47t47.5 -131v-166q0 -20 7 -30t18 -13q3 -1 9 -5t6 -15v-56zM327 188h-94q-35 0 -52 -12.5t-17 -35.5t17 -35
t44 -12q30 0 50 12t31 26q13 17 21 38v19z" />
    <glyph glyph-name="acircumflex" unicode="&#xe2;" horiz-adv-x="524" 
d="M126 538q-11 0 -15 7.5t0 15.5l70 150q8 20 25 20h109q10 0 15.5 -5.5t10.5 -14.5l69 -150q4 -8 0.5 -15.5t-15.5 -7.5h-72q-16 0 -23 16l-40 82l-39 -82q-7 -16 -23 -16h-72zM497 25q0 -10 -10 -20t-47 -10q-41 0 -67 18.5t-31 56.5q-7 -12 -18.5 -25t-29.5 -24.5
t-44 -19t-61 -7.5q-75 0 -116 36t-41 93q0 64 44 99t145 35h106v58q0 39 -19.5 56.5t-54.5 17.5t-54 -16t-19 -44q0 -5 1.5 -11t1.5 -11t-4 -8t-17 -3h-72q-20 0 -25 16t-5 38q0 61 49.5 99.5t147.5 38.5q105 0 152.5 -47t47.5 -131v-166q0 -20 7 -30t18 -13q3 -1 9 -5
t6 -15v-56zM327 188h-94q-35 0 -52 -12.5t-17 -35.5t17 -35t44 -12q30 0 50 12t31 26q13 17 21 38v19z" />
    <glyph glyph-name="atilde" unicode="&#xe3;" horiz-adv-x="524" 
d="M92 546q-14 0 -17 7q-5 11 -8 23t-3 29q0 38 23.5 66t72.5 28q25 0 47 -6.5t42 -14t38 -13.5t34 -6q11 0 16.5 6.5t5.5 16.5q0 11 -2.5 20t-4.5 15q-2 9 12 9h55q16 0 19 -9q3 -8 6 -20.5t3 -29.5q0 -38 -22.5 -67t-70.5 -29q-29 0 -52 6.5t-42 14t-35 14t-29 6.5
q-12 0 -19.5 -7.5t-7.5 -22.5q0 -8 2.5 -15.5t4.5 -12.5q2 -8 -9 -8h-59zM497 25q0 -10 -10 -20t-47 -10q-41 0 -67 18.5t-31 56.5q-7 -12 -18.5 -25t-29.5 -24.5t-44 -19t-61 -7.5q-75 0 -116 36t-41 93q0 64 44 99t145 35h106v58q0 39 -19.5 56.5t-54.5 17.5t-54 -16
t-19 -44q0 -5 1.5 -11t1.5 -11t-4 -8t-17 -3h-72q-20 0 -25 16t-5 38q0 61 49.5 99.5t147.5 38.5q105 0 152.5 -47t47.5 -131v-166q0 -20 7 -30t18 -13q3 -1 9 -5t6 -15v-56zM327 188h-94q-35 0 -52 -12.5t-17 -35.5t17 -35t44 -12q30 0 50 12t31 26q13 17 21 38v19z" />
    <glyph glyph-name="adieresis" unicode="&#xe4;" horiz-adv-x="524" 
d="M158 571q-29 0 -48.5 19t-19.5 48q0 27 19.5 47t48.5 20q27 0 46.5 -20t19.5 -47q0 -29 -19.5 -48t-46.5 -19zM361 571q-28 0 -48 19t-20 48q0 27 20 47t48 20t47.5 -20t19.5 -47q0 -29 -19.5 -48t-47.5 -19zM497 25q0 -10 -10 -20t-47 -10q-41 0 -67 18.5t-31 56.5
q-7 -12 -18.5 -25t-29.5 -24.5t-44 -19t-61 -7.5q-75 0 -116 36t-41 93q0 64 44 99t145 35h106v58q0 39 -19.5 56.5t-54.5 17.5t-54 -16t-19 -44q0 -5 1.5 -11t1.5 -11t-4 -8t-17 -3h-72q-20 0 -25 16t-5 38q0 61 49.5 99.5t147.5 38.5q105 0 152.5 -47t47.5 -131v-166
q0 -20 7 -30t18 -13q3 -1 9 -5t6 -15v-56zM327 188h-94q-35 0 -52 -12.5t-17 -35.5t17 -35t44 -12q30 0 50 12t31 26q13 17 21 38v19z" />
    <glyph glyph-name="aring" unicode="&#xe5;" horiz-adv-x="524" 
d="M261 550q-21 0 -39.5 7.5t-32 21t-21 31.5t-7.5 39q0 43 29 71.5t71 28.5t70.5 -28.5t28.5 -71.5q0 -21 -7.5 -39t-21 -31.5t-31.5 -21t-39 -7.5zM299 649q0 17 -10.5 28t-27.5 11t-28 -11t-11 -28t11 -27.5t28 -10.5t27.5 10.5t10.5 27.5zM497 25q0 -10 -10 -20t-47 -10
q-41 0 -67 18.5t-31 56.5q-7 -12 -18.5 -25t-29.5 -24.5t-44 -19t-61 -7.5q-75 0 -116 36t-41 93q0 64 44 99t145 35h106v58q0 39 -19.5 56.5t-54.5 17.5t-54 -16t-19 -44q0 -5 1.5 -11t1.5 -11t-4 -8t-17 -3h-72q-20 0 -25 16t-5 38q0 61 49.5 99.5t147.5 38.5
q105 0 152.5 -47t47.5 -131v-166q0 -20 7 -30t18 -13q3 -1 9 -5t6 -15v-56zM327 188h-94q-35 0 -52 -12.5t-17 -35.5t17 -35t44 -12q30 0 50 12t31 26q13 17 21 38v19z" />
    <glyph glyph-name="ae" unicode="&#xe6;" horiz-adv-x="812" 
d="M459 224v-7q1 -30 12.5 -51t29 -34.5t37.5 -19.5t39 -6q24 0 42.5 5.5t32 13t21.5 14.5t11 11q6 6 10.5 7.5t9.5 -4.5l46 -47q12 -13 5 -23q-8 -11 -23 -26t-39 -29t-57.5 -24t-76.5 -10q-44 0 -78 11t-58 27.5t-39.5 34.5t-22.5 32q-4 -8 -14.5 -25.5t-30 -35t-50.5 -31
t-77 -13.5q-75 0 -116 36t-41 93q0 64 44 99t145 35h106v58q0 39 -19.5 56.5t-54.5 17.5t-54 -16t-19 -44q0 -7 1 -12t2 -9q0 -6 -4 -9t-17 -3h-72q-20 0 -25 16.5t-5 37.5q0 61 49.5 99.5t147.5 38.5q54 0 90.5 -13t60.5 -36q27 23 64.5 36t85.5 13q104 0 151 -60t47 -172
q0 -19 -5.5 -25.5t-19.5 -6.5h-272zM327 188h-94q-35 0 -52 -12.5t-17 -35.5t17 -35t44 -12q30 0 50 12t31 26q13 17 21 38v19zM632 297q0 37 -19.5 60t-61.5 23q-35 0 -58 -19.5t-31 -63.5h170z" />
    <glyph glyph-name="ccedilla" unicode="&#xe7;" horiz-adv-x="503" 
d="M37 240q0 115 57.5 181.5t174.5 66.5q47 0 83 -12.5t60.5 -33.5t37 -49.5t12.5 -61.5q0 -32 -7 -45q-8 -14 -23 -14h-61q-15 0 -20.5 3t-5.5 9q0 5 0.5 10t0.5 10q0 29 -17.5 49.5t-59.5 20.5q-49 0 -76 -31.5t-27 -100.5q0 -39 11 -65t28.5 -41t39 -21.5t42.5 -6.5
q38 0 62 13t38 25q8 8 15 10.5t15 -5.5l37 -39q11 -11 11.5 -19.5t-4.5 -14.5q-8 -9 -21.5 -22t-33 -25t-45.5 -22t-60 -13q-1 -3 -3 -7t-4 -8.5t-4 -9.5q10 0 22 -4.5t21.5 -13.5t16 -23t6.5 -32q0 -44 -30.5 -64.5t-70.5 -20.5q-37 0 -59 13.5t-30 21.5q-5 5 -2 11l20 34
q4 6 7 5.5t5 -2.5q8 -6 22 -14t35 -8q38 0 38 27q0 11 -15 21.5t-57 11.5q-7 0 -4 7l22 55q-44 4 -80.5 22t-63 49t-41.5 74t-15 99z" />
    <glyph glyph-name="egrave" unicode="&#xe8;" horiz-adv-x="508" 
d="M169 224v-5q1 -35 13.5 -57.5t30.5 -36t38.5 -19t35.5 -5.5q20 0 36.5 5t30 12t23 15t16.5 15q5 5 10.5 8t11.5 -4l46 -47q11 -11 3 -22t-23 -26t-39 -29t-57 -24t-76 -10q-50 0 -92 16t-73.5 47t-49 77t-17.5 106q0 115 57 181.5t174 66.5q105 0 151.5 -61.5
t46.5 -170.5q0 -19 -4.5 -25.5t-18.5 -6.5h-274zM342 297q0 40 -19.5 64t-61.5 24q-35 0 -58 -20.5t-31 -67.5h170zM236 557q-12 0 -17.5 6t-11.5 15l-101 155q-5 8 -1.5 12.5t11.5 4.5h120q9 0 14 -5t9 -13l68 -158q3 -7 -0.5 -12t-11.5 -5h-79z" />
    <glyph glyph-name="eacute" unicode="&#xe9;" horiz-adv-x="508" 
d="M211 557q-8 0 -11 5t-1 12l68 158q4 8 9 13t14 5h119q8 0 12 -4.5t-1 -12.5l-101 -155q-6 -9 -11.5 -15t-17.5 -6h-79zM169 224v-5q1 -35 13.5 -57.5t30.5 -36t38.5 -19t35.5 -5.5q20 0 36.5 5t30 12t23 15t16.5 15q5 5 10.5 8t11.5 -4l46 -47q11 -11 3 -22t-23 -26
t-39 -29t-57 -24t-76 -10q-50 0 -92 16t-73.5 47t-49 77t-17.5 106q0 115 57 181.5t174 66.5q105 0 151.5 -61.5t46.5 -170.5q0 -19 -4.5 -25.5t-18.5 -6.5h-274zM342 297q0 40 -19.5 64t-61.5 24q-35 0 -58 -20.5t-31 -67.5h170z" />
    <glyph glyph-name="ecircumflex" unicode="&#xea;" horiz-adv-x="508" 
d="M127 538q-11 0 -15 7.5t0 15.5l70 150q8 20 25 20h109q10 0 15.5 -5.5t10.5 -14.5l69 -150q4 -8 0.5 -15.5t-15.5 -7.5h-72q-16 0 -23 16l-40 82l-39 -82q-7 -16 -23 -16h-72zM169 224v-5q1 -35 13.5 -57.5t30.5 -36t38.5 -19t35.5 -5.5q20 0 36.5 5t30 12t23 15t16.5 15
q5 5 10.5 8t11.5 -4l46 -47q11 -11 3 -22t-23 -26t-39 -29t-57 -24t-76 -10q-50 0 -92 16t-73.5 47t-49 77t-17.5 106q0 115 57 181.5t174 66.5q105 0 151.5 -61.5t46.5 -170.5q0 -19 -4.5 -25.5t-18.5 -6.5h-274zM342 297q0 40 -19.5 64t-61.5 24q-35 0 -58 -20.5
t-31 -67.5h170z" />
    <glyph glyph-name="edieresis" unicode="&#xeb;" horiz-adv-x="508" 
d="M169 571q-29 0 -48.5 19t-19.5 48q0 27 19.5 47t48.5 20q27 0 46.5 -20t19.5 -47q0 -29 -19.5 -48t-46.5 -19zM372 571q-28 0 -48 19t-20 48q0 27 20 47t48 20t47.5 -20t19.5 -47q0 -29 -19.5 -48t-47.5 -19zM169 224v-5q1 -35 13.5 -57.5t30.5 -36t38.5 -19t35.5 -5.5
q20 0 36.5 5t30 12t23 15t16.5 15q5 5 10.5 8t11.5 -4l46 -47q11 -11 3 -22t-23 -26t-39 -29t-57 -24t-76 -10q-50 0 -92 16t-73.5 47t-49 77t-17.5 106q0 115 57 181.5t174 66.5q105 0 151.5 -61.5t46.5 -170.5q0 -19 -4.5 -25.5t-18.5 -6.5h-274zM342 297q0 40 -19.5 64
t-61.5 24q-35 0 -58 -20.5t-31 -67.5h170z" />
    <glyph glyph-name="igrave" unicode="&#xec;" horiz-adv-x="269" 
d="M229 23q0 -10 -11 -18.5t-47 -9.5q-55 -1 -84 30t-29 96v342q0 20 20 20h90q21 0 21 -21v-319q0 -24 8.5 -32.5t19.5 -10.5q5 -1 8.5 -4.5t3.5 -14.5v-58zM87 557q-12 0 -17.5 6t-11.5 15l-101 155q-5 8 -1.5 12.5t11.5 4.5h120q9 0 14 -5t9 -13l68 -158q3 -7 -0.5 -12
t-11.5 -5h-79z" />
    <glyph glyph-name="iacute" unicode="&#xed;" horiz-adv-x="269" 
d="M76 557q-8 0 -11 5t-1 12l68 158q4 8 9 13t14 5h119q8 0 12 -4.5t-1 -12.5l-101 -155q-6 -9 -11.5 -15t-17.5 -6h-79zM229 23q0 -10 -11 -18.5t-47 -9.5q-55 -1 -84 30t-29 96v342q0 20 20 20h90q21 0 21 -21v-319q0 -24 8.5 -32.5t19.5 -10.5q5 -1 8.5 -4.5t3.5 -14.5
v-58z" />
    <glyph glyph-name="icircumflex" unicode="&#xee;" horiz-adv-x="269" 
d="M-12 538q-11 0 -15 7.5t0 15.5l70 150q8 20 25 20h109q10 0 15.5 -5.5t10.5 -14.5l69 -150q4 -8 0.5 -15.5t-15.5 -7.5h-72q-16 0 -23 16l-40 82l-39 -82q-7 -16 -23 -16h-72zM229 23q0 -10 -11 -18.5t-47 -9.5q-55 -1 -84 30t-29 96v342q0 20 20 20h90q21 0 21 -21v-319
q0 -24 8.5 -32.5t19.5 -10.5q5 -1 8.5 -4.5t3.5 -14.5v-58z" />
    <glyph glyph-name="idieresis" unicode="&#xef;" horiz-adv-x="269" 
d="M29 571q-29 0 -48.5 19t-19.5 48q0 27 19.5 47t48.5 20q27 0 46.5 -20t19.5 -47q0 -29 -19.5 -48t-46.5 -19zM232 571q-28 0 -48 19t-20 48q0 27 20 47t48 20t47.5 -20t19.5 -47q0 -29 -19.5 -48t-47.5 -19zM229 23q0 -10 -11 -18.5t-47 -9.5q-55 -1 -84 30t-29 96v342
q0 20 20 20h90q21 0 21 -21v-319q0 -24 8.5 -32.5t19.5 -10.5q5 -1 8.5 -4.5t3.5 -14.5v-58z" />
    <glyph glyph-name="eth" unicode="&#xf0;" horiz-adv-x="610" 
d="M433 266q-6 6 -18.5 18t-30.5 24t-41 21t-51 9q-60 0 -92.5 -29.5t-32.5 -82.5q0 -54 33.5 -86t90.5 -32t95.5 43t46.5 115zM232 545q-8 12 5 19l52 31q-43 16 -97 17q-3 0 -8 2.5t-5 11.5v94q0 10 5.5 12.5t9.5 2.5q69 -2 125 -17.5t100 -44.5l78 47q13 8 22 -6l23 -35
q10 -13 -4 -21l-59 -36q92 -104 92 -282q0 -72 -17 -135.5t-51.5 -110t-87 -73.5t-124.5 -27q-65 0 -113 18t-79.5 49.5t-46.5 73.5t-15 91q0 51 18 92t50 70t76 45t96 16q33 0 59 -7t46 -16t34 -18t22 -14q-2 54 -20.5 93.5t-50.5 66.5l-89 -54q-6 -4 -11.5 -1.5t-9.5 7.5z
" />
    <glyph glyph-name="ntilde" unicode="&#xf1;" horiz-adv-x="570" 
d="M118 546q-14 0 -17 7q-5 11 -8 23t-3 29q0 38 23.5 66t72.5 28q25 0 47 -6.5t42 -14t38 -13.5t34 -6q11 0 16.5 6.5t5.5 16.5q0 11 -2.5 20t-4.5 15q-2 9 12 9h55q16 0 19 -9q3 -8 6 -20.5t3 -29.5q0 -38 -22.5 -67t-70.5 -29q-29 0 -52 6.5t-42 14t-35 14t-29 6.5
q-12 0 -19.5 -7.5t-7.5 -22.5q0 -8 2.5 -15.5t4.5 -12.5q2 -8 -9 -8h-59zM77 339q0 20 -6 29t-18 12q-6 2 -11 6t-5 17v56q0 10 10.5 19t46.5 9q39 0 64.5 -17.5t31.5 -52.5v-12q5 15 15.5 30t28 27t42 19t57.5 7q46 0 78.5 -15t53 -41t30 -61t9.5 -74v-154q0 -20 6 -29
t17 -12q5 -2 11 -6t6 -16v-56q0 -10 -11 -19.5t-47 -9.5q-56 0 -84.5 30.5t-28.5 96.5v163q0 40 -20.5 64t-58.5 24q-23 0 -39.5 -9.5t-27 -23.5t-15.5 -31.5t-5 -32.5v-255q0 -21 -20 -21h-90q-20 0 -20 21v318z" />
    <glyph glyph-name="ograve" unicode="&#xf2;" horiz-adv-x="525" 
d="M262 -6q-54 0 -95.5 18t-70 50.5t-43.5 78t-15 101.5q0 55 15 100.5t43.5 77.5t70.5 50t95 18t95 -18t71 -50t44 -77.5t15 -100.5q0 -56 -15 -101.5t-44 -78t-70.5 -50.5t-95.5 -18zM262 108q51 0 73 35t22 98t-23 98t-72 35t-72 -35t-23 -98t22.5 -98t72.5 -35zM236 557
q-12 0 -17.5 6t-11.5 15l-101 155q-5 8 -1.5 12.5t11.5 4.5h120q9 0 14 -5t9 -13l68 -158q3 -7 -0.5 -12t-11.5 -5h-79z" />
    <glyph glyph-name="oacute" unicode="&#xf3;" horiz-adv-x="525" 
d="M208 557q-8 0 -11 5t-1 12l68 158q4 8 9 13t14 5h119q8 0 12 -4.5t-1 -12.5l-101 -155q-6 -9 -11.5 -15t-17.5 -6h-79zM262 -6q-54 0 -95.5 18t-70 50.5t-43.5 78t-15 101.5q0 55 15 100.5t43.5 77.5t70.5 50t95 18t95 -18t71 -50t44 -77.5t15 -100.5q0 -56 -15 -101.5
t-44 -78t-70.5 -50.5t-95.5 -18zM262 108q51 0 73 35t22 98t-23 98t-72 35t-72 -35t-23 -98t22.5 -98t72.5 -35z" />
    <glyph glyph-name="ocircumflex" unicode="&#xf4;" horiz-adv-x="525" 
d="M128 538q-11 0 -15 7.5t0 15.5l70 150q8 20 25 20h109q10 0 15.5 -5.5t10.5 -14.5l69 -150q4 -8 0.5 -15.5t-15.5 -7.5h-72q-16 0 -23 16l-40 82l-39 -82q-7 -16 -23 -16h-72zM262 -6q-54 0 -95.5 18t-70 50.5t-43.5 78t-15 101.5q0 55 15 100.5t43.5 77.5t70.5 50t95 18
t95 -18t71 -50t44 -77.5t15 -100.5q0 -56 -15 -101.5t-44 -78t-70.5 -50.5t-95.5 -18zM262 108q51 0 73 35t22 98t-23 98t-72 35t-72 -35t-23 -98t22.5 -98t72.5 -35z" />
    <glyph glyph-name="otilde" unicode="&#xf5;" horiz-adv-x="525" 
d="M262 -6q-54 0 -95.5 18t-70 50.5t-43.5 78t-15 101.5q0 55 15 100.5t43.5 77.5t70.5 50t95 18t95 -18t71 -50t44 -77.5t15 -100.5q0 -56 -15 -101.5t-44 -78t-70.5 -50.5t-95.5 -18zM262 108q51 0 73 35t22 98t-23 98t-72 35t-72 -35t-23 -98t22.5 -98t72.5 -35zM98 546
q-14 0 -17 7q-5 11 -8 23t-3 29q0 38 23.5 66t72.5 28q25 0 47 -6.5t42 -14t38 -13.5t34 -6q11 0 16.5 6.5t5.5 16.5q0 11 -2.5 20t-4.5 15q-2 9 12 9h55q16 0 19 -9q3 -8 6 -20.5t3 -29.5q0 -38 -22.5 -67t-70.5 -29q-29 0 -52 6.5t-42 14t-35 14t-29 6.5q-12 0 -19.5 -7.5
t-7.5 -22.5q0 -8 2.5 -15.5t4.5 -12.5q2 -8 -9 -8h-59z" />
    <glyph glyph-name="odieresis" unicode="&#xf6;" horiz-adv-x="525" 
d="M169 571q-29 0 -48.5 19t-19.5 48q0 27 19.5 47t48.5 20q27 0 46.5 -20t19.5 -47q0 -29 -19.5 -48t-46.5 -19zM372 571q-28 0 -48 19t-20 48q0 27 20 47t48 20t47.5 -20t19.5 -47q0 -29 -19.5 -48t-47.5 -19zM262 -6q-54 0 -95.5 18t-70 50.5t-43.5 78t-15 101.5
q0 55 15 100.5t43.5 77.5t70.5 50t95 18t95 -18t71 -50t44 -77.5t15 -100.5q0 -56 -15 -101.5t-44 -78t-70.5 -50.5t-95.5 -18zM262 108q51 0 73 35t22 98t-23 98t-72 35t-72 -35t-23 -98t22.5 -98t72.5 -35z" />
    <glyph glyph-name="divide" unicode="&#xf7;" horiz-adv-x="458" 
d="M393 337q21 0 21 -21v-53q0 -20 -21 -20h-330q-20 0 -20 20v53q0 21 21 21h329zM146 104q0 35 24.5 60t59.5 25q36 0 61 -25t25 -60q0 -18 -6.5 -33.5t-18.5 -27t-27.5 -18.5t-33.5 -7q-35 0 -59.5 25.5t-24.5 60.5zM146 467q0 35 24 59.5t59 24.5q36 0 61 -24.5
t25 -59.5q0 -18 -6.5 -33.5t-18.5 -27t-27.5 -18.5t-33.5 -7q-17 0 -32.5 7t-26.5 18.5t-17.5 27t-6.5 33.5z" />
    <glyph glyph-name="oslash" unicode="&#xf8;" horiz-adv-x="525" 
d="M262 -6q-57 0 -102 20l-13 -20q-8 -14 -27 -14h-46q-8 0 -12 4t1 11l39 60q-64 67 -64 187q0 55 15 100.5t43.5 77.5t70.5 50t95 18q30 0 57 -6.5t50 -17.5l17 26q8 14 28 14h44q8 0 12 -4.5t-1 -10.5l-43 -67q29 -32 45 -78t16 -102t-15 -101.5t-44 -78t-70.5 -50.5
t-95.5 -18zM167 241q0 -43 10 -72l127 196q-18 9 -42 9q-49 0 -72 -35t-23 -98zM262 108q51 0 73 35t22 98q0 35 -8 65l-124 -192q16 -6 37 -6z" />
    <glyph glyph-name="ugrave" unicode="&#xf9;" horiz-adv-x="560" 
d="M523 24q0 -10 -10.5 -19.5t-46.5 -9.5q-45 0 -68.5 20t-30.5 58v3q-7 -14 -19 -28.5t-31 -26.5t-45.5 -19.5t-61.5 -7.5q-42 0 -71 12.5t-47 35.5t-26.5 55t-8.5 71v293q0 21 20 21h90q21 0 21 -21v-264q0 -48 19 -68t49 -20t48.5 13.5t29 30.5t14.5 34t4 25v249
q0 21 20 21h91q20 0 20 -21v-318q0 -35 25 -42q6 -2 10.5 -5.5t4.5 -16.5v-55zM236 557q-12 0 -17.5 6t-11.5 15l-101 155q-5 8 -1.5 12.5t11.5 4.5h120q9 0 14 -5t9 -13l68 -158q3 -7 -0.5 -12t-11.5 -5h-79z" />
    <glyph glyph-name="uacute" unicode="&#xfa;" horiz-adv-x="560" 
d="M205 557q-8 0 -11 5t-1 12l68 158q4 8 9 13t14 5h119q8 0 12 -4.5t-1 -12.5l-101 -155q-6 -9 -11.5 -15t-17.5 -6h-79zM523 24q0 -10 -10.5 -19.5t-46.5 -9.5q-45 0 -68.5 20t-30.5 58v3q-7 -14 -19 -28.5t-31 -26.5t-45.5 -19.5t-61.5 -7.5q-42 0 -71 12.5t-47 35.5
t-26.5 55t-8.5 71v293q0 21 20 21h90q21 0 21 -21v-264q0 -48 19 -68t49 -20t48.5 13.5t29 30.5t14.5 34t4 25v249q0 21 20 21h91q20 0 20 -21v-318q0 -35 25 -42q6 -2 10.5 -5.5t4.5 -16.5v-55z" />
    <glyph glyph-name="ucircumflex" unicode="&#xfb;" horiz-adv-x="560" 
d="M134 538q-11 0 -15 7.5t0 15.5l70 150q8 20 25 20h109q10 0 15.5 -5.5t10.5 -14.5l69 -150q4 -8 0.5 -15.5t-15.5 -7.5h-72q-16 0 -23 16l-40 82l-39 -82q-7 -16 -23 -16h-72zM523 24q0 -10 -10.5 -19.5t-46.5 -9.5q-45 0 -68.5 20t-30.5 58v3q-7 -14 -19 -28.5
t-31 -26.5t-45.5 -19.5t-61.5 -7.5q-42 0 -71 12.5t-47 35.5t-26.5 55t-8.5 71v293q0 21 20 21h90q21 0 21 -21v-264q0 -48 19 -68t49 -20t48.5 13.5t29 30.5t14.5 34t4 25v249q0 21 20 21h91q20 0 20 -21v-318q0 -35 25 -42q6 -2 10.5 -5.5t4.5 -16.5v-55z" />
    <glyph glyph-name="udieresis" unicode="&#xfc;" horiz-adv-x="560" 
d="M171 571q-29 0 -48.5 19t-19.5 48q0 27 19.5 47t48.5 20q27 0 46.5 -20t19.5 -47q0 -29 -19.5 -48t-46.5 -19zM374 571q-28 0 -48 19t-20 48q0 27 20 47t48 20t47.5 -20t19.5 -47q0 -29 -19.5 -48t-47.5 -19zM523 24q0 -10 -10.5 -19.5t-46.5 -9.5q-45 0 -68.5 20
t-30.5 58v3q-7 -14 -19 -28.5t-31 -26.5t-45.5 -19.5t-61.5 -7.5q-42 0 -71 12.5t-47 35.5t-26.5 55t-8.5 71v293q0 21 20 21h90q21 0 21 -21v-264q0 -48 19 -68t49 -20t48.5 13.5t29 30.5t14.5 34t4 25v249q0 21 20 21h91q20 0 20 -21v-318q0 -35 25 -42q6 -2 10.5 -5.5
t4.5 -16.5v-55z" />
    <glyph glyph-name="yacute" unicode="&#xfd;" horiz-adv-x="536" 
d="M295 -101q-12 -31 -28.5 -57.5t-40 -46t-53.5 -31t-69 -11.5q-25 0 -42 3.5t-29 8.5q-9 3 -12 10.5t-1 15.5l10 60q5 19 18 18q7 -1 19.5 -3t27.5 -2q38 0 57.5 22.5t30.5 52.5l23 61l-182 456q-5 11 -1.5 18.5t16.5 7.5h92q11 0 19 -7.5t11 -15.5l111 -303l101 304
q3 8 11.5 15t19.5 7h89q14 0 17 -7.5t-2 -18.5zM203 557q-8 0 -11 5t-1 12l68 158q4 8 9 13t14 5h119q8 0 12 -4.5t-1 -12.5l-101 -155q-6 -9 -11.5 -15t-17.5 -6h-79z" />
    <glyph glyph-name="thorn" unicode="&#xfe;" horiz-adv-x="554" 
d="M191 191q1 -8 6 -22t16 -27.5t28.5 -23.5t44.5 -10q44 0 72.5 32.5t28.5 100.5q0 36 -9 61.5t-23.5 41.5t-33 23t-36.5 7q-29 0 -47 -12.5t-28.5 -27.5t-14.5 -28.5t-4 -15.5v-99zM81 -244q-20 0 -20 21v928q0 21 19 21h90q21 0 21 -21v-274q7 9 18 19t27 18.5t37 14
t49 5.5q35 0 70 -14t62.5 -44t44.5 -76.5t17 -110.5q0 -68 -17 -115t-45 -77t-65 -43.5t-76 -13.5q-32 0 -55 7.5t-38 17.5q-18 11 -29 26v-268q0 -21 -20 -21h-90z" />
    <glyph glyph-name="ydieresis" unicode="&#xff;" horiz-adv-x="536" 
d="M295 -101q-12 -31 -28.5 -57.5t-40 -46t-53.5 -31t-69 -11.5q-25 0 -42 3.5t-29 8.5q-9 3 -12 10.5t-1 15.5l10 60q5 19 18 18q7 -1 19.5 -3t27.5 -2q38 0 57.5 22.5t30.5 52.5l23 61l-182 456q-5 11 -1.5 18.5t16.5 7.5h92q11 0 19 -7.5t11 -15.5l111 -303l101 304
q3 8 11.5 15t19.5 7h89q14 0 17 -7.5t-2 -18.5zM174 571q-29 0 -48.5 19t-19.5 48q0 27 19.5 47t48.5 20q27 0 46.5 -20t19.5 -47q0 -29 -19.5 -48t-46.5 -19zM377 571q-28 0 -48 19t-20 48q0 27 20 47t48 20t47.5 -20t19.5 -47q0 -29 -19.5 -48t-47.5 -19z" />
    <glyph glyph-name="Amacron" unicode="&#x100;" horiz-adv-x="673" 
d="M460 175h-248l-52 -153q-3 -8 -7 -15t-15 -7h-104q-11 0 -15.5 7.5t-0.5 16.5l237 633q9 23 20 33t31 10h65q21 0 32.5 -10t19.5 -33l233 -633q3 -9 -1.5 -16.5t-15.5 -7.5h-103q-12 0 -16 7t-7 16zM249 280h176l-89 254zM474 885q21 0 21 -20v-53q0 -20 -21 -20h-282
q-20 0 -20 20v53q0 20 21 20h281z" />
    <glyph glyph-name="amacron" unicode="&#x101;" horiz-adv-x="524" 
d="M395 667q21 0 21 -20v-53q0 -20 -21 -20h-282q-20 0 -20 20v53q0 20 21 20h281zM497 25q0 -10 -10 -20t-47 -10q-41 0 -67 18.5t-31 56.5q-7 -12 -18.5 -25t-29.5 -24.5t-44 -19t-61 -7.5q-75 0 -116 36t-41 93q0 64 44 99t145 35h106v58q0 39 -19.5 56.5t-54.5 17.5
t-54 -16t-19 -44q0 -5 1 -11t2 -11q0 -5 -4 -8t-17 -3h-72q-20 0 -25 16t-5 38q0 61 49.5 99.5t147.5 38.5q105 0 152.5 -47t47.5 -131v-166q0 -20 7 -30t18 -13q3 -1 9 -5t6 -15v-56zM327 188h-94q-35 0 -52 -12.5t-17 -35.5t17 -35t44 -12q30 0 50 12t31 26q13 17 21 38
v19z" />
    <glyph glyph-name="Abreve" unicode="&#x102;" horiz-adv-x="673" 
d="M460 175h-248l-52 -153q-3 -8 -7 -15t-15 -7h-104q-11 0 -15.5 7.5t-0.5 16.5l237 633q9 23 20 33t31 10h65q21 0 32.5 -10t19.5 -33l233 -633q3 -9 -1.5 -16.5t-15.5 -7.5h-103q-12 0 -16 7t-7 16zM249 280h176l-89 254zM478 922q16 0 16 -17q0 -28 -9.5 -52t-27.5 -42
t-45 -28t-63 -10q-38 0 -65.5 10.5t-45.5 28.5t-27 42t-9 51q0 7 3.5 12t11.5 5h65q16 0 16 -13q1 -17 11 -33t40 -16q47 0 49 49q0 13 15 13h65z" />
    <glyph glyph-name="abreve" unicode="&#x103;" horiz-adv-x="524" 
d="M385 704q16 0 16 -17q0 -28 -9.5 -52t-27.5 -42t-45 -28t-63 -10q-38 0 -65.5 10.5t-45.5 28.5t-27 42t-9 51q0 7 3.5 12t11.5 5h65q16 0 16 -13q1 -17 11 -33t40 -16q47 0 49 49q0 13 15 13h65zM497 25q0 -10 -10 -20t-47 -10q-41 0 -67 18.5t-31 56.5q-7 -12 -18.5 -25
t-29.5 -24.5t-44 -19t-61 -7.5q-75 0 -116 36t-41 93q0 64 44 99t145 35h106v58q0 39 -19.5 56.5t-54.5 17.5t-54 -16t-19 -44q0 -5 1 -11t2 -11q0 -5 -4 -8t-17 -3h-72q-20 0 -25 16t-5 38q0 61 49.5 99.5t147.5 38.5q105 0 152.5 -47t47.5 -131v-166q0 -20 7 -30t18 -13
q3 -1 9 -5t6 -15v-56zM327 188h-94q-35 0 -52 -12.5t-17 -35.5t17 -35t44 -12q30 0 50 12t31 26q13 17 21 38v19z" />
    <glyph glyph-name="Aogonek" unicode="&#x104;" horiz-adv-x="673" 
d="M651 -134q3 -5 3.5 -8t-4.5 -8q-8 -8 -29.5 -20.5t-55.5 -12.5q-19 0 -37 5t-31.5 15.5t-22 26.5t-8.5 39q0 37 16 62t36 42q-2 1 -8.5 17t-15.5 41t-18.5 54t-18.5 56h-248l-52 -153q-3 -8 -7 -15t-15 -7h-104q-11 0 -15.5 7.5t-0.5 16.5l237 633q9 23 20 33t31 10h65
q21 0 32.5 -10t19.5 -33l232 -633q4 -9 -0.5 -16.5t-15.5 -7.5h-35q-8 -4 -19.5 -10t-21.5 -15t-17 -21.5t-7 -28.5q0 -17 11 -28.5t31 -11.5q16 0 25.5 6.5t16.5 12.5q8 8 12 -1zM246 280h175l-88 254z" />
    <glyph glyph-name="aogonek" unicode="&#x105;" horiz-adv-x="524" 
d="M524 -134q2 -5 2.5 -8t-4.5 -8q-8 -8 -29.5 -20.5t-55.5 -12.5q-19 0 -37 5t-31.5 15.5t-22 26.5t-8.5 39q0 35 15 60t35 42q-18 8 -30 23t-16 42q-7 -12 -18.5 -25t-29.5 -24.5t-44 -19t-61 -7.5q-75 0 -116 36t-41 93q0 64 44 99t145 35h106v58q0 39 -19.5 56.5
t-54.5 17.5t-54 -16t-19 -44q0 -5 1.5 -10.5t1.5 -10.5t-4 -8.5t-17 -3.5h-72q-16 0 -23 13q-5 8 -6 18.5t-1 22.5q0 61 49.5 99.5t147.5 38.5q105 0 152.5 -47t47.5 -131v-166q0 -20 7 -30t18 -13q3 -1 9 -5t6 -15v-56q0 -7 -4 -13.5t-17 -11.5q-9 -4 -21 -10t-22 -15.5
t-17 -22t-7 -28.5q0 -17 10.5 -28t30.5 -11q16 0 26 6t17 13q8 6 12 -1zM327 188h-94q-35 0 -52 -12.5t-17 -35.5t17 -35t44 -12q30 0 50 12t31 26q13 17 21 38v19z" />
    <glyph glyph-name="Cacute" unicode="&#x106;" horiz-adv-x="653" 
d="M283 775q-8 0 -11 5t-1 12l68 158q4 8 9 13t14 5h119q8 0 12 -4.5t-1 -12.5l-101 -155q-6 -9 -11.5 -15t-17.5 -6h-79zM605 144q11 -11 11.5 -19.5t-6.5 -16.5q-10 -13 -29.5 -32.5t-49.5 -37.5t-70 -31t-92 -13q-72 0 -132.5 22.5t-103.5 66.5t-67 110.5t-24 155.5
q0 88 21.5 155t62 112t98 67.5t128.5 22.5q82 0 133.5 -26.5t80.5 -63t40 -75t14 -61.5q1 -18 -19 -22l-85 -13q-14 -2 -18.5 2.5t-6.5 13.5q-3 14 -10 35.5t-22.5 41t-41 33.5t-64.5 14q-36 0 -67 -14t-53.5 -43t-35.5 -73.5t-13 -105.5q0 -62 16 -106.5t43 -73t61.5 -41.5
t71.5 -13q27 0 50.5 8t43 20t34 25t23.5 23q8 8 15 10t15 -7z" />
    <glyph glyph-name="cacute" unicode="&#x107;" horiz-adv-x="503" 
d="M220 557q-8 0 -11 5t-1 12l68 158q4 8 9 13t14 5h119q8 0 12 -4.5t-1 -12.5l-101 -155q-6 -9 -11.5 -15t-17.5 -6h-79zM37 240q0 115 57.5 181.5t174.5 66.5q47 0 83 -12.5t60.5 -33.5t37 -49.5t12.5 -61.5q0 -7 -0.5 -17t-3.5 -19.5t-9 -16t-17 -6.5h-61q-15 0 -20.5 3
t-5.5 9q0 5 0.5 10t0.5 10q0 29 -17.5 49.5t-59.5 20.5q-49 0 -76 -31.5t-27 -100.5q0 -39 11 -65t28.5 -41t39 -21.5t42.5 -6.5q38 0 62 13t38 25q8 8 15 10.5t15 -5.5l37 -39q11 -11 11.5 -19.5t-4.5 -14.5q-9 -11 -24.5 -25t-38.5 -27.5t-55 -22.5t-74 -9q-50 0 -92 16
t-73.5 47t-49 77t-17.5 106z" />
    <glyph glyph-name="Ccircumflex" unicode="&#x108;" horiz-adv-x="653" 
d="M220 756q-11 0 -15 7.5t0 15.5l70 150q8 20 25 20h109q10 0 15.5 -5.5t10.5 -14.5l69 -150q4 -8 0.5 -15.5t-15.5 -7.5h-72q-16 0 -23 16l-40 82l-39 -82q-7 -16 -23 -16h-72zM605 144q11 -11 11.5 -19.5t-6.5 -16.5q-10 -13 -29.5 -32.5t-49.5 -37.5t-70 -31t-92 -13
q-72 0 -132.5 22.5t-103.5 66.5t-67 110.5t-24 155.5q0 88 21.5 155t62 112t98 67.5t128.5 22.5q82 0 133.5 -26.5t80.5 -63t40 -75t14 -61.5q1 -18 -19 -22l-85 -13q-14 -2 -18.5 2.5t-6.5 13.5q-3 14 -10 35.5t-22.5 41t-41 33.5t-64.5 14q-36 0 -67 -14t-53.5 -43
t-35.5 -73.5t-13 -105.5q0 -62 16 -106.5t43 -73t61.5 -41.5t71.5 -13q27 0 50.5 8t43 20t34 25t23.5 23q8 8 15 10t15 -7z" />
    <glyph glyph-name="ccircumflex" unicode="&#x109;" horiz-adv-x="503" 
d="M128 538q-11 0 -15 7.5t0 15.5l70 150q8 20 25 20h109q10 0 15.5 -5.5t10.5 -14.5l69 -150q4 -8 0.5 -15.5t-15.5 -7.5h-72q-16 0 -23 16l-40 82l-39 -82q-7 -16 -23 -16h-72zM37 240q0 115 57.5 181.5t174.5 66.5q47 0 83 -12.5t60.5 -33.5t37 -49.5t12.5 -61.5
q0 -7 -0.5 -17t-3.5 -19.5t-9 -16t-17 -6.5h-61q-15 0 -20.5 3t-5.5 9q0 5 0.5 10t0.5 10q0 29 -17.5 49.5t-59.5 20.5q-49 0 -76 -31.5t-27 -100.5q0 -39 11 -65t28.5 -41t39 -21.5t42.5 -6.5q38 0 62 13t38 25q8 8 15 10.5t15 -5.5l37 -39q11 -11 11.5 -19.5t-4.5 -14.5
q-9 -11 -24.5 -25t-38.5 -27.5t-55 -22.5t-74 -9q-50 0 -92 16t-73.5 47t-49 77t-17.5 106z" />
    <glyph glyph-name="Cdotaccent" unicode="&#x10a;" horiz-adv-x="653" 
d="M605 144q11 -11 11.5 -19.5t-6.5 -16.5q-10 -13 -29.5 -32.5t-49.5 -37.5t-70 -31t-92 -13q-72 0 -132.5 22.5t-103.5 66.5t-67 110.5t-24 155.5q0 88 21.5 155t62 112t98 67.5t128.5 22.5q82 0 133.5 -26.5t80.5 -63t40 -75t14 -61.5q1 -18 -19 -22l-85 -13
q-14 -2 -18.5 2.5t-6.5 13.5q-3 14 -10 35.5t-22.5 41t-41 33.5t-64.5 14q-36 0 -67 -14t-53.5 -43t-35.5 -73.5t-13 -105.5q0 -62 16 -106.5t43 -73t61.5 -41.5t71.5 -13q27 0 50.5 8t43 20t34 25t23.5 23q8 8 15 10t15 -7zM359 803q-28 0 -47.5 19t-19.5 48
q0 28 19.5 47.5t47.5 19.5t47.5 -19.5t19.5 -47.5q0 -29 -19.5 -48t-47.5 -19z" />
    <glyph glyph-name="cdotaccent" unicode="&#x10b;" horiz-adv-x="503" 
d="M37 240q0 115 57.5 181.5t174.5 66.5q47 0 83 -12.5t60.5 -33.5t37 -49.5t12.5 -61.5q0 -7 -0.5 -17t-3.5 -19.5t-9 -16t-17 -6.5h-61q-15 0 -20.5 3t-5.5 9q0 5 0.5 10t0.5 10q0 29 -17.5 49.5t-59.5 20.5q-49 0 -76 -31.5t-27 -100.5q0 -39 11 -65t28.5 -41t39 -21.5
t42.5 -6.5q38 0 62 13t38 25q8 8 15 10.5t15 -5.5l37 -39q11 -11 11.5 -19.5t-4.5 -14.5q-9 -11 -24.5 -25t-38.5 -27.5t-55 -22.5t-74 -9q-50 0 -92 16t-73.5 47t-49 77t-17.5 106zM270 585q-28 0 -47.5 19t-19.5 48q0 28 19.5 47.5t47.5 19.5t47.5 -19.5t19.5 -47.5
q0 -29 -19.5 -48t-47.5 -19z" />
    <glyph glyph-name="Ccaron" unicode="&#x10c;" horiz-adv-x="653" 
d="M290 968q11 0 16.5 -8.5t8.5 -14.5l36 -75l37 75q3 6 8.5 14.5t16.5 8.5h73q12 0 15 -7.5t-1 -15.5l-68 -150q-5 -9 -10.5 -14.5t-15.5 -5.5h-109q-17 0 -25 20l-70 150q-4 8 0 15.5t15 7.5h73zM605 144q11 -11 11.5 -19.5t-6.5 -16.5q-10 -13 -29.5 -32.5t-49.5 -37.5
t-70 -31t-92 -13q-72 0 -132.5 22.5t-103.5 66.5t-67 110.5t-24 155.5q0 88 21.5 155t62 112t98 67.5t128.5 22.5q82 0 133.5 -26.5t80.5 -63t40 -75t14 -61.5q1 -18 -19 -22l-85 -13q-14 -2 -18.5 2.5t-6.5 13.5q-3 14 -10 35.5t-22.5 41t-41 33.5t-64.5 14q-36 0 -67 -14
t-53.5 -43t-35.5 -73.5t-13 -105.5q0 -62 16 -106.5t43 -73t61.5 -41.5t71.5 -13q27 0 50.5 8t43 20t34 25t23.5 23q8 8 15 10t15 -7z" />
    <glyph glyph-name="ccaron" unicode="&#x10d;" horiz-adv-x="503" 
d="M212 750q11 0 16.5 -8.5t8.5 -14.5l36 -75l37 75q3 6 8.5 14.5t16.5 8.5h73q12 0 15 -7.5t-1 -15.5l-68 -150q-5 -9 -10.5 -14.5t-15.5 -5.5h-109q-17 0 -25 20l-70 150q-4 8 0 15.5t15 7.5h73zM37 240q0 115 57.5 181.5t174.5 66.5q47 0 83 -12.5t60.5 -33.5t37 -49.5
t12.5 -61.5q0 -7 -0.5 -17t-3.5 -19.5t-9 -16t-17 -6.5h-61q-15 0 -20.5 3t-5.5 9q0 5 0.5 10t0.5 10q0 29 -17.5 49.5t-59.5 20.5q-49 0 -76 -31.5t-27 -100.5q0 -39 11 -65t28.5 -41t39 -21.5t42.5 -6.5q38 0 62 13t38 25q8 8 15 10.5t15 -5.5l37 -39q11 -11 11.5 -19.5
t-4.5 -14.5q-9 -11 -24.5 -25t-38.5 -27.5t-55 -22.5t-74 -9q-50 0 -92 16t-73.5 47t-49 77t-17.5 106z" />
    <glyph glyph-name="Dcaron" unicode="&#x10e;" horiz-adv-x="669" 
d="M254 968q11 0 16.5 -8.5t8.5 -14.5l36 -75l37 75q3 6 8.5 14.5t16.5 8.5h73q12 0 15 -7.5t-1 -15.5l-68 -150q-5 -9 -10.5 -14.5t-15.5 -5.5h-109q-17 0 -25 20l-70 150q-4 8 0 15.5t15 7.5h73zM94 0q-20 0 -20 20v660q0 20 20 20h185q69 0 132 -19.5t111 -63t76.5 -112
t28.5 -167.5q0 -93 -26 -157.5t-69.5 -104.5t-101 -58t-121.5 -18h-215zM308 112q40 0 73.5 14.5t57.5 43t37.5 71.5t13.5 99q0 116 -51.5 182t-161.5 66h-65v-476h96z" />
    <glyph glyph-name="dcaron" unicode="&#x10f;" horiz-adv-x="593" 
d="M530 653q0 32 22.5 55t54.5 23q33 0 58.5 -22t25.5 -67q0 -43 -12 -73t-28.5 -50.5t-34.5 -31.5t-29 -17q-11 -5 -17 6l-22 35q-7 11 5 16l15 7.5t17.5 10.5t15 14t6.5 17q-32 0 -54.5 22.5t-22.5 54.5zM362 292q0 8 -5.5 21.5t-16.5 27t-29 23.5t-44 10q-42 0 -71 -32.5
t-29 -100.5q0 -35 8.5 -60.5t23 -41.5t32.5 -23.5t36 -7.5q30 0 48 12.5t28.5 28t14.5 29t4 16.5v98zM533 24q0 -10 -11.5 -19.5t-46.5 -9.5q-41 0 -66.5 18t-31.5 54v6q-4 -9 -13.5 -22t-26.5 -26t-43 -22t-63 -9q-35 0 -69.5 14.5t-62 44.5t-44.5 76.5t-17 110.5
q0 67 17.5 114t47 77t67 43.5t76.5 13.5q33 0 55 -7.5t35.5 -16.5t19.5 -17t6 -9v267q0 21 20 21h90q21 0 21 -21v-560q0 -22 6 -31.5t17 -12.5q6 -2 11.5 -5t5.5 -15v-57z" />
    <glyph glyph-name="Dcroat" unicode="&#x110;" horiz-adv-x="673" 
d="M98 0q-20 0 -20 20v282h-30q-21 0 -21 20v47q0 20 20 20h31v291q0 20 20 20h185q69 0 132 -19.5t111 -63t76.5 -112t28.5 -167.5q0 -93 -26 -157.5t-69.5 -104.5t-101 -58t-121.5 -18h-215zM312 112q40 0 73.5 14.5t57.5 43t37.5 71.5t13.5 99q0 116 -51.5 182t-161.5 66
h-65v-199h144q20 0 20 -20v-47q0 -20 -20 -20h-144v-190h96z" />
    <glyph glyph-name="dcroat" unicode="&#x111;" horiz-adv-x="569" 
d="M533 24q0 -10 -11.5 -19.5t-46.5 -9.5q-41 0 -66.5 18t-31.5 54v6q-4 -9 -13.5 -22t-26.5 -26t-43 -22t-63 -9q-35 0 -69.5 14.5t-62 44.5t-44.5 76.5t-17 110.5q0 67 17.5 114t47 77t67 43.5t76.5 13.5q32 0 54 -7t35.5 -16t19.5 -17t7 -10v118h-107q-20 0 -20 20v50
q0 20 21 20h106v59q0 21 20 21h90q21 0 21 -21v-59h33q20 0 20 -20v-50q0 -20 -21 -20h-32v-411q0 -22 6 -31.5t17 -12.5q6 -2 11.5 -5t5.5 -15v-57zM362 292q0 8 -5.5 21.5t-16.5 27t-29 23.5t-44 10q-42 0 -71 -32.5t-29 -100.5q0 -35 8.5 -60.5t23 -41.5t32.5 -23.5
t36 -7.5q30 0 48 12.5t28.5 28t14.5 29t4 16.5v98z" />
    <glyph glyph-name="Emacron" unicode="&#x112;" 
d="M94 0q-20 0 -20 20v660q0 20 20 20h402q20 0 20 -20v-71q0 -21 -21 -21h-283v-186h219q20 0 20 -20v-70q0 -20 -21 -20h-218v-180h284q20 0 20 -21v-71q0 -20 -21 -20h-401zM448 885q21 0 21 -20v-53q0 -20 -21 -20h-282q-20 0 -20 20v53q0 20 21 20h281z" />
    <glyph glyph-name="emacron" unicode="&#x113;" horiz-adv-x="508" 
d="M169 224v-5q1 -35 13.5 -57.5t30.5 -36t38.5 -19t35.5 -5.5q20 0 36.5 5t30 12t23 15t16.5 15q5 5 10.5 8t11.5 -4l46 -47q11 -11 3 -22t-23 -26t-39 -29t-57 -24t-76 -10q-50 0 -92 16t-73.5 47t-49 77t-17.5 106q0 115 57 181.5t174 66.5q105 0 151.5 -61.5
t46.5 -170.5q0 -19 -4.5 -25.5t-18.5 -6.5h-274zM342 297q0 40 -19.5 64t-61.5 24q-35 0 -58 -20.5t-31 -67.5h170zM406 667q21 0 21 -20v-53q0 -20 -21 -20h-282q-20 0 -20 20v53q0 20 21 20h281z" />
    <glyph glyph-name="Ebreve" unicode="&#x114;" 
d="M94 0q-20 0 -20 20v660q0 20 20 20h402q20 0 20 -20v-71q0 -21 -21 -21h-283v-186h219q20 0 20 -20v-70q0 -20 -21 -20h-218v-180h284q20 0 20 -21v-71q0 -20 -21 -20h-401zM434 922q16 0 16 -17q0 -28 -9.5 -52t-27.5 -42t-45 -28t-63 -10q-38 0 -65.5 10.5t-45.5 28.5
t-27 42t-9 51q0 7 3.5 12t11.5 5h65q16 0 16 -13q1 -17 11 -33t40 -16q47 0 49 49q0 13 15 13h65z" />
    <glyph glyph-name="ebreve" unicode="&#x115;" horiz-adv-x="508" 
d="M169 224v-5q1 -35 13.5 -57.5t30.5 -36t38.5 -19t35.5 -5.5q20 0 36.5 5t30 12t23 15t16.5 15q5 5 10.5 8t11.5 -4l46 -47q11 -11 3 -22t-23 -26t-39 -29t-57 -24t-76 -10q-50 0 -92 16t-73.5 47t-49 77t-17.5 106q0 115 57 181.5t174 66.5q105 0 151.5 -61.5
t46.5 -170.5q0 -19 -4.5 -25.5t-18.5 -6.5h-274zM342 297q0 40 -19.5 64t-61.5 24q-35 0 -58 -20.5t-31 -67.5h170zM397 704q16 0 16 -17q0 -28 -9.5 -52t-27.5 -42t-45 -28t-63 -10q-38 0 -65.5 10.5t-45.5 28.5t-27 42t-9 51q0 7 3.5 12t11.5 5h65q16 0 16 -13
q1 -17 11 -33t40 -16q47 0 49 49q0 13 15 13h65z" />
    <glyph glyph-name="Edotaccent" unicode="&#x116;" 
d="M94 0q-20 0 -20 20v660q0 20 20 20h402q20 0 20 -20v-71q0 -21 -21 -21h-283v-186h219q20 0 20 -20v-70q0 -20 -21 -20h-218v-180h284q20 0 20 -21v-71q0 -20 -21 -20h-401zM312 803q-28 0 -47.5 19t-19.5 48q0 28 19.5 47.5t47.5 19.5t47.5 -19.5t19.5 -47.5
q0 -29 -19.5 -48t-47.5 -19z" />
    <glyph glyph-name="edotaccent" unicode="&#x117;" horiz-adv-x="508" 
d="M169 224v-5q1 -35 13.5 -57.5t30.5 -36t38.5 -19t35.5 -5.5q20 0 36.5 5t30 12t23 15t16.5 15q5 5 10.5 8t11.5 -4l46 -47q11 -11 3 -22t-23 -26t-39 -29t-57 -24t-76 -10q-50 0 -92 16t-73.5 47t-49 77t-17.5 106q0 115 57 181.5t174 66.5q105 0 151.5 -61.5
t46.5 -170.5q0 -19 -4.5 -25.5t-18.5 -6.5h-274zM342 297q0 40 -19.5 64t-61.5 24q-35 0 -58 -20.5t-31 -67.5h170zM264 585q-28 0 -47.5 19t-19.5 48q0 28 19.5 47.5t47.5 19.5t47.5 -19.5t19.5 -47.5q0 -29 -19.5 -48t-47.5 -19z" />
    <glyph glyph-name="Eogonek" unicode="&#x118;" 
d="M495 -1q-7 -3 -18 -8.5t-22 -14.5t-19 -22t-8 -30t11 -28t31 -11q15 0 25.5 6.5t16.5 12.5q7 7 12 -1l19 -37q6 -10 -2 -16q-9 -9 -30.5 -21t-54.5 -12q-19 0 -37 5t-31.5 15.5t-21.5 26.5t-8 39q0 32 12.5 56t30.5 41h-307q-20 0 -20 20v659q0 21 20 21h402q20 0 20 -20
v-71q0 -21 -21 -21h-283v-186h219q20 0 20 -20v-70q0 -20 -21 -20h-218v-180h284q20 0 20 -21v-71q0 -9 -5.5 -13t-15.5 -8z" />
    <glyph glyph-name="eogonek" unicode="&#x119;" horiz-adv-x="508" 
d="M37 240q0 115 57 181.5t174 66.5q105 0 151.5 -61.5t46.5 -170.5q0 -19 -4.5 -25.5t-18.5 -6.5h-274v-5q1 -35 13.5 -57.5t30.5 -36t38.5 -19t35.5 -5.5q20 0 36.5 5t30 12t23 15t16.5 15q5 5 10.5 8t11.5 -4l46 -47q11 -11 3 -22q-6 -9 -18 -21t-29.5 -24t-41.5 -22.5
t-55 -16.5q-3 -2 -13.5 -7.5t-22 -14.5t-20 -22t-8.5 -31q0 -17 11 -28t31 -11q15 0 25 6t17 13q9 7 12 -1l19 -37q3 -5 3.5 -8t-4.5 -8q-8 -8 -29.5 -20.5t-55.5 -12.5q-19 0 -37 5t-31.5 15.5t-22 26.5t-8.5 39q0 31 11.5 54t28.5 40q-41 6 -76 24.5t-60 49.5t-39 73
t-14 96zM342 297q0 40 -19.5 64t-61.5 24q-35 0 -58 -20.5t-31 -67.5h170z" />
    <glyph glyph-name="Ecaron" unicode="&#x11a;" 
d="M249 968q11 0 16.5 -8.5t8.5 -14.5l36 -75l37 75q3 6 8.5 14.5t16.5 8.5h73q12 0 15 -7.5t-1 -15.5l-68 -150q-5 -9 -10.5 -14.5t-15.5 -5.5h-109q-17 0 -25 20l-70 150q-4 8 0 15.5t15 7.5h73zM94 0q-20 0 -20 20v660q0 20 20 20h402q20 0 20 -20v-71q0 -21 -21 -21
h-283v-186h219q20 0 20 -20v-70q0 -20 -21 -20h-218v-180h284q20 0 20 -21v-71q0 -20 -21 -20h-401z" />
    <glyph glyph-name="ecaron" unicode="&#x11b;" horiz-adv-x="508" 
d="M203 750q11 0 16.5 -8.5t8.5 -14.5l36 -75l37 75q3 6 8.5 14.5t16.5 8.5h73q12 0 15 -7.5t-1 -15.5l-68 -150q-5 -9 -10.5 -14.5t-15.5 -5.5h-109q-17 0 -25 20l-70 150q-4 8 0 15.5t15 7.5h73zM169 224v-5q1 -35 13.5 -57.5t30.5 -36t38.5 -19t35.5 -5.5q20 0 36.5 5
t30 12t23 15t16.5 15q5 5 10.5 8t11.5 -4l46 -47q11 -11 3 -22t-23 -26t-39 -29t-57 -24t-76 -10q-50 0 -92 16t-73.5 47t-49 77t-17.5 106q0 115 57 181.5t174 66.5q105 0 151.5 -61.5t46.5 -170.5q0 -19 -4.5 -25.5t-18.5 -6.5h-274zM342 297q0 40 -19.5 64t-61.5 24
q-35 0 -58 -20.5t-31 -67.5h170z" />
    <glyph glyph-name="Gcircumflex" unicode="&#x11c;" horiz-adv-x="664" 
d="M211 756q-11 0 -15 7.5t0 15.5l70 150q8 20 25 20h109q10 0 15.5 -5.5t10.5 -14.5l69 -150q4 -8 0.5 -15.5t-15.5 -7.5h-72q-16 0 -23 16l-40 82l-39 -82q-7 -16 -23 -16h-72zM619 247q0 -47 -15 -92t-47 -81t-82.5 -58t-120.5 -22t-127.5 22.5t-98.5 66.5t-63.5 110.5
t-22.5 155.5q0 88 22 155t62.5 112t97.5 67.5t128 22.5q52 0 91 -12.5t67.5 -32t47.5 -44t30.5 -48.5t17.5 -46t9 -36q3 -18 -20 -21l-85 -13q-13 -2 -17.5 2t-6.5 12q-2 12 -8.5 32t-20.5 39t-39 33t-64 14q-36 0 -67 -14t-53.5 -43t-35.5 -73.5t-13 -105.5
q0 -62 14 -106.5t38 -73t55 -41.5t65 -13q37 0 62 11t41 29t23 41.5t7 49.5v15h-137q-20 0 -20 20v63q0 20 21 20h244q21 0 21 -20v-97z" />
    <glyph glyph-name="gcircumflex" unicode="&#x11d;" horiz-adv-x="528" 
d="M125 593q-11 0 -15 7.5t0 15.5l70 150q8 20 25 20h109q10 0 15.5 -5.5t10.5 -14.5l69 -150q4 -8 0.5 -15.5t-15.5 -7.5h-72q-16 0 -23 16l-40 82l-39 -82q-7 -16 -23 -16h-72zM199 -28q-64 0 -64 -58q0 -30 26.5 -45.5t99.5 -15.5q76 0 104.5 15.5t28.5 48.5q0 55 -73 55
h-122zM364 301q0 38 -27 61.5t-70 23.5t-70 -23t-27 -62q0 -38 26.5 -62t69.5 -24q44 0 71 24t27 62zM317 64q41 0 76.5 -9t61.5 -27t41 -46t15 -66q0 -31 -11 -60.5t-38.5 -52t-74.5 -36.5t-118 -14q-129 0 -188 39.5t-59 113.5q0 24 6.5 42t16 30.5t19.5 21t18 14.5
q-11 11 -25.5 27.5t-14.5 46.5q0 38 18.5 59.5t44.5 31.5q-18 17 -37 47t-19 75t17 79.5t46.5 58.5t69 36.5t84.5 12.5q20 0 36 -3.5t24 -3.5q21 -1 39 5.5t32.5 17.5t23 24.5t9.5 27.5q1 9 6 11.5t14 1.5l60 -8q8 -2 11 -6.5t3 -7.5q-1 -26 -11.5 -45.5t-26 -33t-35 -21
t-38.5 -8.5q29 -20 50.5 -54t21.5 -84q0 -45 -18 -79.5t-48 -58t-69 -36t-82 -12.5q-26 0 -46.5 5t-33.5 10q-47 0 -47 -33q0 -18 14 -25.5t37 -7.5h125z" />
    <glyph glyph-name="Gbreve" unicode="&#x11e;" horiz-adv-x="664" 
d="M619 247q0 -47 -15 -92t-47 -81t-82.5 -58t-120.5 -22t-127.5 22.5t-98.5 66.5t-63.5 110.5t-22.5 155.5q0 88 22 155t62.5 112t97.5 67.5t128 22.5q52 0 91 -12.5t67.5 -32t47.5 -44t30.5 -48.5t17.5 -46t9 -36q3 -18 -20 -21l-85 -13q-13 -2 -17.5 2t-6.5 12
q-2 12 -8.5 32t-20.5 39t-39 33t-64 14q-36 0 -67 -14t-53.5 -43t-35.5 -73.5t-13 -105.5q0 -62 14 -106.5t38 -73t55 -41.5t65 -13q37 0 62 11t41 29t23 41.5t7 49.5v15h-137q-20 0 -20 20v63q0 20 21 20h244q21 0 21 -20v-97zM472 922q16 0 16 -17q0 -28 -9.5 -52
t-27.5 -42t-45 -28t-63 -10q-38 0 -65.5 10.5t-45.5 28.5t-27 42t-9 51q0 7 3.5 12t11.5 5h65q16 0 16 -13q1 -17 11 -33t40 -16q47 0 49 49q0 13 15 13h65z" />
    <glyph glyph-name="gbreve" unicode="&#x11f;" horiz-adv-x="528" 
d="M199 -28q-64 0 -64 -58q0 -30 26.5 -45.5t99.5 -15.5q76 0 104.5 15.5t28.5 48.5q0 55 -73 55h-122zM364 301q0 38 -27 61.5t-70 23.5t-70 -23t-27 -62q0 -38 26.5 -62t69.5 -24q44 0 71 24t27 62zM317 64q41 0 76.5 -9t61.5 -27t41 -46t15 -66q0 -31 -11 -60.5
t-38.5 -52t-74.5 -36.5t-118 -14q-129 0 -188 39.5t-59 113.5q0 24 6.5 42t16 30.5t19.5 21t18 14.5q-11 11 -25.5 27.5t-14.5 46.5q0 38 18.5 59.5t44.5 31.5q-18 17 -37 47t-19 75t17 79.5t46.5 58.5t69 36.5t84.5 12.5q20 0 36 -3.5t24 -3.5q21 -1 39 5.5t32.5 17.5
t23 24.5t9.5 27.5q1 9 6 11.5t14 1.5l60 -8q8 -2 11 -6.5t3 -7.5q-1 -26 -11.5 -45.5t-26 -33t-35 -21t-38.5 -8.5q29 -20 50.5 -54t21.5 -84q0 -45 -18 -79.5t-48 -58t-69 -36t-82 -12.5q-26 0 -46.5 5t-33.5 10q-47 0 -47 -33q0 -18 14 -25.5t37 -7.5h125zM410 704
q16 0 16 -17q0 -28 -9.5 -52t-27.5 -42t-45 -28t-63 -10q-38 0 -65.5 10.5t-45.5 28.5t-27 42t-9 51q0 7 3.5 12t11.5 5h65q16 0 16 -13q1 -17 11 -33t40 -16q47 0 49 49q0 13 15 13h65z" />
    <glyph glyph-name="Gdotaccent" unicode="&#x120;" horiz-adv-x="664" 
d="M619 247q0 -47 -15 -92t-47 -81t-82.5 -58t-120.5 -22t-127.5 22.5t-98.5 66.5t-63.5 110.5t-22.5 155.5q0 88 22 155t62.5 112t97.5 67.5t128 22.5q52 0 91 -12.5t67.5 -32t47.5 -44t30.5 -48.5t17.5 -46t9 -36q3 -18 -20 -21l-85 -13q-13 -2 -17.5 2t-6.5 12
q-2 12 -8.5 32t-20.5 39t-39 33t-64 14q-36 0 -67 -14t-53.5 -43t-35.5 -73.5t-13 -105.5q0 -62 14 -106.5t38 -73t55 -41.5t65 -13q37 0 62 11t41 29t23 41.5t7 49.5v15h-137q-20 0 -20 20v63q0 20 21 20h244q21 0 21 -20v-97zM352 803q-28 0 -47.5 19t-19.5 48
q0 28 19.5 47.5t47.5 19.5t47.5 -19.5t19.5 -47.5q0 -29 -19.5 -48t-47.5 -19z" />
    <glyph glyph-name="gdotaccent" unicode="&#x121;" horiz-adv-x="528" 
d="M199 -28q-64 0 -64 -58q0 -30 26.5 -45.5t99.5 -15.5q76 0 104.5 15.5t28.5 48.5q0 55 -73 55h-122zM364 301q0 38 -27 61.5t-70 23.5t-70 -23t-27 -62q0 -38 26.5 -62t69.5 -24q44 0 71 24t27 62zM317 64q41 0 76.5 -9t61.5 -27t41 -46t15 -66q0 -31 -11 -60.5
t-38.5 -52t-74.5 -36.5t-118 -14q-129 0 -188 39.5t-59 113.5q0 24 6.5 42t16 30.5t19.5 21t18 14.5q-11 11 -25.5 27.5t-14.5 46.5q0 38 18.5 59.5t44.5 31.5q-18 17 -37 47t-19 75t17 79.5t46.5 58.5t69 36.5t84.5 12.5q20 0 36 -3.5t24 -3.5q21 -1 39 5.5t32.5 17.5
t23 24.5t9.5 27.5q1 9 6 11.5t14 1.5l60 -8q8 -2 11 -6.5t3 -7.5q-1 -26 -11.5 -45.5t-26 -33t-35 -21t-38.5 -8.5q29 -20 50.5 -54t21.5 -84q0 -45 -18 -79.5t-48 -58t-69 -36t-82 -12.5q-26 0 -46.5 5t-33.5 10q-47 0 -47 -33q0 -18 14 -25.5t37 -7.5h125zM275 585
q-28 0 -47.5 19t-19.5 48q0 28 19.5 47.5t47.5 19.5t47.5 -19.5t19.5 -47.5q0 -29 -19.5 -48t-47.5 -19z" />
    <glyph glyph-name="Gcommaaccent" unicode="&#x122;" horiz-adv-x="664" 
d="M270 -117q0 32 22.5 55t54.5 23q33 0 58.5 -22t25.5 -67q0 -43 -12 -73t-28.5 -50.5t-34.5 -31.5t-29 -17q-11 -5 -17 6l-22 35q-7 11 5 16l15 7.5t17.5 10.5t15 14t6.5 17q-32 0 -54.5 22.5t-22.5 54.5zM619 247q0 -47 -15 -92t-47 -81t-82.5 -58t-120.5 -22
t-127.5 22.5t-98.5 66.5t-63.5 110.5t-22.5 155.5q0 88 22 155t62.5 112t97.5 67.5t128 22.5q52 0 91 -12.5t67.5 -32t47.5 -44t30.5 -48.5t17.5 -46t9 -36q3 -18 -20 -21l-85 -13q-13 -2 -17.5 2t-6.5 12q-2 12 -8.5 32t-20.5 39t-39 33t-64 14q-36 0 -67 -14t-53.5 -43
t-35.5 -73.5t-13 -105.5q0 -62 14 -106.5t38 -73t55 -41.5t65 -13q37 0 62 11t41 29t23 41.5t7 49.5v15h-137q-20 0 -20 20v63q0 20 21 20h244q21 0 21 -20v-97z" />
    <glyph glyph-name="gcommaaccent" unicode="&#x123;" horiz-adv-x="528" 
d="M202 713q0 32 22.5 55t54.5 23q33 0 58.5 -22t25.5 -67q0 -43 -12 -73t-28.5 -50.5t-34.5 -31.5t-29 -17q-11 -5 -17 6l-22 35q-7 11 5 16l15 7.5t17.5 10.5t15 14t6.5 17q-32 0 -54.5 22.5t-22.5 54.5zM199 -28q-64 0 -64 -58q0 -30 26.5 -45.5t99.5 -15.5
q76 0 104.5 15.5t28.5 48.5q0 55 -73 55h-122zM364 301q0 38 -27 61.5t-70 23.5t-70 -23t-27 -62q0 -38 26.5 -62t69.5 -24q44 0 71 24t27 62zM317 64q41 0 76.5 -9t61.5 -27t41 -46t15 -66q0 -31 -11 -60.5t-38.5 -52t-74.5 -36.5t-118 -14q-129 0 -188 39.5t-59 113.5
q0 24 6.5 42t16 30.5t19.5 21t18 14.5q-11 11 -25.5 27.5t-14.5 46.5q0 38 18.5 59.5t44.5 31.5q-18 17 -37 47t-19 75t17 79.5t46.5 58.5t69 36.5t84.5 12.5q20 0 36 -3.5t24 -3.5q21 -1 39 5.5t32.5 17.5t23 24.5t9.5 27.5q1 9 6 11.5t14 1.5l60 -8q8 -2 11 -6.5t3 -7.5
q-1 -26 -11.5 -45.5t-26 -33t-35 -21t-38.5 -8.5q29 -20 50.5 -54t21.5 -84q0 -45 -18 -79.5t-48 -58t-69 -36t-82 -12.5q-26 0 -46.5 5t-33.5 10q-47 0 -47 -33q0 -18 14 -25.5t37 -7.5h125z" />
    <glyph glyph-name="Hcircumflex" unicode="&#x124;" horiz-adv-x="695" 
d="M209 756q-11 0 -15 7.5t0 15.5l70 150q8 20 25 20h109q10 0 15.5 -5.5t10.5 -14.5l69 -150q4 -8 0.5 -15.5t-15.5 -7.5h-72q-16 0 -23 16l-40 82l-39 -82q-7 -16 -23 -16h-72zM621 20q0 -20 -20 -20h-98q-20 0 -20 20v258h-271v-258q0 -20 -20 -20h-98q-20 0 -20 20v660
q0 20 20 20h98q20 0 20 -20v-289h271v289q0 20 20 20h98q20 0 20 -20v-660z" />
    <glyph glyph-name="hcircumflex" unicode="&#x125;" horiz-adv-x="554" 
d="M118 759q-11 0 -15 7.5t0 15.5l70 150q8 20 25 20h109q10 0 15.5 -5.5t10.5 -14.5l69 -150q4 -8 0.5 -15.5t-15.5 -7.5h-72q-16 0 -23 16l-40 82l-39 -82q-7 -16 -23 -16h-72zM61 705q0 21 20 21h90q20 0 20 -21v-280q15 26 45 44.5t81 18.5q46 0 78.5 -15t53 -41t30 -61
t9.5 -74v-154q0 -21 6.5 -29.5t18.5 -12.5q5 -2 10 -5.5t5 -14.5v-58q0 -11 -12.5 -19.5t-45.5 -8.5q-56 0 -84.5 30.5t-28.5 96.5v166q0 38 -21 61.5t-58 23.5q-23 0 -39.5 -9.5t-27 -23.5t-15.5 -31.5t-5 -32.5v-255q0 -21 -20 -21h-90q-20 0 -20 21v684z" />
    <glyph glyph-name="Hbar" unicode="&#x126;" horiz-adv-x="718" 
d="M630 591h48q20 0 20 -20v-48q0 -20 -20 -20h-48v-483q0 -20 -20 -20h-98q-20 0 -20 20v258h-271v-258q0 -20 -20 -20h-98q-20 0 -20 20v483h-43q-20 0 -20 20v48q0 20 21 20h42v89q0 20 20 20h98q20 0 20 -20v-89h271v89q0 20 20 20h98q20 0 20 -20v-89zM492 391v112
h-271v-112h271z" />
    <glyph glyph-name="hbar" unicode="&#x127;" horiz-adv-x="555" 
d="M61 564h-31q-20 0 -20 21v50q0 20 20 20h31v50q0 21 20 21h90q20 0 20 -21v-50h145q21 0 21 -20v-50q0 -21 -21 -21h-145v-139q15 26 45 44.5t81 18.5q46 0 78.5 -15t53 -41t30 -61t9.5 -74v-154q0 -21 6.5 -29.5t18.5 -12.5q5 -2 10 -5.5t5 -14.5v-58q0 -11 -12.5 -19.5
t-45.5 -8.5q-56 0 -84.5 30.5t-28.5 96.5v166q0 38 -21 61.5t-58 23.5q-23 0 -39.5 -9.5t-27 -23.5t-15.5 -31.5t-5 -32.5v-255q0 -21 -20 -21h-90q-20 0 -20 21v543z" />
    <glyph glyph-name="Itilde" unicode="&#x128;" horiz-adv-x="286" 
d="M212 20q0 -20 -20 -20h-98q-20 0 -20 20v660q0 20 20 20h98q20 0 20 -20v-660zM-16 734q-14 0 -17 7q-5 11 -8 23t-3 29q0 38 23.5 66t72.5 28q25 0 47 -6.5t42 -14t38 -13.5t34 -6q11 0 16.5 6.5t5.5 16.5q0 11 -2.5 20t-4.5 15q-2 9 12 9h55q16 0 19 -9q3 -8 6 -20.5
t3 -29.5q0 -38 -22.5 -67t-70.5 -29q-29 0 -52 6.5t-42 14t-35 14t-29 6.5q-12 0 -19.5 -7.5t-7.5 -22.5q0 -8 2.5 -15.5t4.5 -12.5q2 -8 -9 -8h-59z" />
    <glyph glyph-name="itilde" unicode="&#x129;" horiz-adv-x="269" 
d="M229 23q0 -10 -11 -18.5t-47 -9.5q-55 -1 -84 30t-29 96v342q0 20 20 20h90q21 0 21 -21v-319q0 -24 8.5 -32.5t19.5 -10.5q5 -1 8.5 -4.5t3.5 -14.5v-58zM-32 546q-14 0 -17 7q-5 11 -8 23t-3 29q0 38 23.5 66t72.5 28q25 0 47 -6.5t42 -14t38 -13.5t34 -6
q11 0 16.5 6.5t5.5 16.5q0 11 -2.5 20t-4.5 15q-2 9 12 9h55q16 0 19 -9q3 -8 6 -20.5t3 -29.5q0 -38 -22.5 -67t-70.5 -29q-29 0 -52 6.5t-42 14t-35 14t-29 6.5q-12 0 -19.5 -7.5t-7.5 -22.5q0 -8 2.5 -15.5t4.5 -12.5q2 -8 -9 -8h-59z" />
    <glyph glyph-name="Imacron" unicode="&#x12a;" horiz-adv-x="286" 
d="M212 20q0 -20 -20 -20h-98q-20 0 -20 20v660q0 20 20 20h98q20 0 20 -20v-660zM286 853q21 0 21 -20v-53q0 -20 -21 -20h-282q-20 0 -20 20v53q0 20 21 20h281z" />
    <glyph glyph-name="imacron" unicode="&#x12b;" horiz-adv-x="269" 
d="M229 23q0 -10 -11 -18.5t-47 -9.5q-55 -1 -84 30t-29 96v342q0 20 20 20h90q21 0 21 -21v-319q0 -24 8.5 -32.5t19.5 -10.5q5 -1 8.5 -4.5t3.5 -14.5v-58zM269 667q21 0 21 -20v-53q0 -20 -21 -20h-282q-20 0 -20 20v53q0 20 21 20h281z" />
    <glyph glyph-name="Ibreve" unicode="&#x12c;" horiz-adv-x="286" 
d="M212 20q0 -20 -20 -20h-98q-20 0 -20 20v660q0 20 20 20h98q20 0 20 -20v-660zM272 922q16 0 16 -17q0 -28 -9.5 -52t-27.5 -42t-45 -28t-63 -10q-38 0 -65.5 10.5t-45.5 28.5t-27 42t-9 51q0 7 3.5 12t11.5 5h65q16 0 16 -13q1 -17 11 -33t40 -16q47 0 49 49q0 13 15 13
h65z" />
    <glyph glyph-name="ibreve" unicode="&#x12d;" horiz-adv-x="269" 
d="M229 23q0 -10 -11 -18.5t-47 -9.5q-55 -1 -84 30t-29 96v342q0 20 20 20h90q21 0 21 -21v-319q0 -24 8.5 -32.5t19.5 -10.5q5 -1 8.5 -4.5t3.5 -14.5v-58zM261 704q16 0 16 -17q0 -28 -9.5 -52t-27.5 -42t-45 -28t-63 -10q-38 0 -65.5 10.5t-45.5 28.5t-27 42t-9 51
q0 7 3.5 12t11.5 5h65q16 0 16 -13q1 -17 11 -33t40 -16q47 0 49 49q0 13 15 13h65z" />
    <glyph glyph-name="Iogonek" unicode="&#x12e;" horiz-adv-x="287" 
d="M193 0q-52 0 -81.5 -21t-29.5 -55q0 -17 11 -28t31 -11q13 0 22 4.5t15 9.5q12 11 18 1l17 -32q4 -8 3 -12t-5 -8q-10 -8 -31 -19.5t-53 -11.5q-19 0 -37 5t-31.5 15.5t-21.5 26.5t-8 39q0 42 20 68.5t43 42.5v666q0 20 20 20h98q20 0 20 -20v-660q0 -20 -20 -20z" />
    <glyph glyph-name="iogonek" unicode="&#x12f;" horiz-adv-x="265" 
d="M207 647q0 -35 -24 -56.5t-59 -21.5t-58.5 21.5t-23.5 56.5t23.5 57.5t58.5 22.5t59 -22.5t24 -57.5zM258 -135q2 -5 2.5 -7.5t-4.5 -7.5q-8 -8 -29.5 -20.5t-55.5 -12.5q-19 0 -37 5t-31.5 15.5t-22 26.5t-8.5 39q0 35 14 59.5t34 41.5q-62 23 -62 118v341q0 21 20 21
h90q21 0 21 -21v-320q0 -23 8.5 -32t19.5 -11q12 0 12 -19v-57q0 -18 -24 -26q-8 -3 -18.5 -9t-20.5 -15t-17 -21.5t-7 -28.5q0 -17 11 -28t31 -11q15 0 24.5 6t16.5 12q4 4 7 3t5 -4z" />
    <glyph glyph-name="Idotaccent" unicode="&#x130;" horiz-adv-x="286" 
d="M212 20q0 -20 -20 -20h-98q-20 0 -20 20v660q0 20 20 20h98q20 0 20 -20v-660zM140 790q-28 0 -47.5 19t-19.5 48q0 28 19.5 47.5t47.5 19.5t47.5 -19.5t19.5 -47.5q0 -29 -19.5 -48t-47.5 -19z" />
    <glyph glyph-name="dotlessi" unicode="&#x131;" horiz-adv-x="269" 
d="M229 25q0 -10 -11 -18.5t-47 -9.5q-55 -1 -84 30t-29 96v342q0 20 20 20h90q21 0 21 -21v-319q0 -24 8.5 -32.5t19.5 -10.5q5 -1 8.5 -4.5t3.5 -14.5v-58z" />
    <glyph glyph-name="Jcircumflex" unicode="&#x134;" horiz-adv-x="481" 
d="M208 756q-11 0 -15 7.5t0 15.5l70 150q8 20 25 20h109q10 0 15.5 -5.5t10.5 -14.5l69 -150q4 -8 0.5 -15.5t-15.5 -7.5h-72q-16 0 -23 16l-40 82l-39 -82q-7 -16 -23 -16h-72zM274 680q0 20 20 20h98q20 0 20 -20v-440q0 -61 -19 -107t-51 -77t-75.5 -46.5t-91.5 -15.5
q-32 0 -58.5 6t-46.5 15t-34.5 19t-23.5 18q-8 6 -8.5 14.5t5.5 15.5l54 62q7 7 13.5 11.5t16.5 -3.5q11 -10 32 -21.5t50 -11.5q47 0 73 28.5t26 85.5v447z" />
    <glyph glyph-name="jcircumflex" unicode="&#x135;" horiz-adv-x="252" 
d="M192 -39q0 -47 -11 -85t-34 -65.5t-58.5 -42.5t-85.5 -15q-32 0 -52.5 7.5t-31.5 13.5q-8 5 -9 13t3 16l24 57q6 15 16 14q5 -2 14 -4.5t22 -2.5q38 0 55 26t17 74v495q0 20 20 20h90q21 0 21 -21v-500zM-7 538q-11 0 -15 7.5t0 15.5l70 150q8 20 25 20h109
q10 0 15.5 -5.5t10.5 -14.5l69 -150q4 -8 0.5 -15.5t-15.5 -7.5h-72q-16 0 -23 16l-40 82l-39 -82q-7 -16 -23 -16h-72z" />
    <glyph glyph-name="Kcommaaccent" unicode="&#x136;" horiz-adv-x="676" 
d="M238 -117q0 32 22.5 55t54.5 23q33 0 58.5 -22t25.5 -67q0 -43 -12 -73t-28.5 -50.5t-34.5 -31.5t-29 -17q-11 -5 -17 6l-22 35q-7 11 5 16l15 7.5t17.5 10.5t15 14t6.5 17q-32 0 -54.5 22.5t-22.5 54.5zM285 395q35 0 65.5 15t53.5 48.5t37 88t16 133.5q0 20 20 20h95
q9 0 15 -3.5t6 -17.5q0 -72 -13.5 -127.5t-34.5 -96.5t-47.5 -68t-53.5 -41q25 -16 42 -39.5t29.5 -50.5t23 -53.5t22.5 -47.5t29 -34.5t42 -13.5h15q8 0 11.5 -4t3.5 -17v-66q0 -14 -20 -20q-9 -2 -21.5 -3.5t-31.5 -1.5q-53 0 -85.5 21.5t-53.5 53.5t-35.5 69.5
t-30.5 69.5t-38 53.5t-59 21.5h-75v-264q0 -20 -20 -20h-98q-20 0 -20 20v660q0 20 20 20h98q20 0 20 -20v-285h73z" />
    <glyph glyph-name="kcommaaccent" unicode="&#x137;" 
d="M195 -117q0 32 22.5 55t54.5 23q33 0 58.5 -22t25.5 -67q0 -43 -12 -73t-28.5 -50.5t-34.5 -31.5t-29 -17q-11 -5 -17 6l-22 35q-7 11 5 16l15 7.5t17.5 10.5t15 14t6.5 17q-32 0 -54.5 22.5t-22.5 54.5zM537 24q0 -12 -11.5 -20.5t-41.5 -8.5q-42 0 -67.5 16t-42 40
t-28 51.5t-26 51.5t-36 40t-56.5 16h-38v-189q0 -21 -21 -21h-89q-19 0 -19 21v684q0 21 20 21h88q21 0 21 -21v-393h50q30 0 52.5 12.5t38 33.5t23.5 48t10 55q0 7 3.5 14t16.5 7h81q14 0 17.5 -7t2.5 -15q-1 -31 -8.5 -60.5t-22.5 -54.5t-37.5 -44.5t-52.5 -30.5
q22 -12 36 -29t24 -36t18 -37.5t18.5 -33.5t25 -24.5t38.5 -9.5q8 0 10.5 -6t2.5 -17v-53z" />
    <glyph glyph-name="kgreenlandic" unicode="&#x138;" horiz-adv-x="555" 
d="M535 24q0 -13 -12 -21t-41 -8q-42 0 -67.5 16t-42 40t-28 51.5t-26 51.5t-36 40t-56.5 16h-38v-189q0 -21 -21 -21h-89q-19 0 -19 21v440q0 21 20 21h88q21 0 21 -21v-149h50q51 0 85 38.5t39 110.5q0 5 3 13t17 8h82q15 0 17.5 -8t2.5 -13q-2 -30 -9.5 -59.5t-21.5 -55
t-36.5 -45.5t-54.5 -31q22 -12 36 -29t24 -36t18 -37.5t18.5 -33.5t25 -24.5t38.5 -9.5q8 0 10.5 -6t2.5 -17v-53z" />
    <glyph glyph-name="Lacute" unicode="&#x139;" horiz-adv-x="532" 
d="M100 775q-8 0 -11 5t-1 12l68 158q4 8 9 13t14 5h119q8 0 12 -4.5t-1 -12.5l-101 -155q-6 -9 -11.5 -15t-17.5 -6h-79zM212 112h289q20 0 20 -21v-71q0 -20 -20 -20h-407q-20 0 -20 20v660q0 20 20 20h98q20 0 20 -20v-568z" />
    <glyph glyph-name="lacute" unicode="&#x13a;" horiz-adv-x="266" 
d="M82 768q-8 0 -11 5t-1 12l68 158q4 8 9 13t14 5h119q8 0 12 -4.5t-1 -12.5l-101 -155q-6 -9 -11.5 -15t-17.5 -6h-79zM229 24q0 -10 -10.5 -19t-47.5 -10q-55 0 -84 30.5t-29 96.5v583q0 21 20 21h91q20 0 20 -22v-561q0 -34 21 -40q5 -3 12 -5.5t7 -16.5v-57z" />
    <glyph glyph-name="Lcommaaccent" unicode="&#x13b;" horiz-adv-x="532" 
d="M187 -154q0 32 22.5 55t54.5 23q33 0 58.5 -22t25.5 -67q0 -43 -12 -73t-28.5 -50.5t-34.5 -31.5t-29 -17q-11 -5 -17 6l-22 35q-7 11 5 16l15 7.5t17.5 10.5t15 14t6.5 17q-32 0 -54.5 22.5t-22.5 54.5zM212 112h289q20 0 20 -21v-71q0 -20 -20 -20h-407q-20 0 -20 20
v660q0 20 20 20h98q20 0 20 -20v-568z" />
    <glyph glyph-name="lcommaaccent" unicode="&#x13c;" horiz-adv-x="266" 
d="M59 -117q0 32 22.5 55t54.5 23q33 0 58.5 -22t25.5 -67q0 -43 -12 -73t-28.5 -50.5t-34.5 -31.5t-29 -17q-11 -5 -17 6l-22 35q-7 11 5 16l15 7.5t17.5 10.5t15 14t6.5 17q-32 0 -54.5 22.5t-22.5 54.5zM229 24q0 -10 -10.5 -19t-47.5 -10q-55 0 -84 30.5t-29 96.5v583
q0 21 20 21h91q20 0 20 -22v-561q0 -34 21 -40q5 -3 12 -5.5t7 -16.5v-57z" />
    <glyph glyph-name="Lcaron" unicode="&#x13d;" horiz-adv-x="534" 
d="M251 614q0 32 22.5 55t54.5 23q33 0 58.5 -22t25.5 -67q0 -43 -12 -73t-28.5 -50.5t-34.5 -31.5t-29 -17q-11 -5 -17 6l-22 35q-7 11 5 16l15 7.5t17.5 10.5t15 14t6.5 17q-32 0 -54.5 22.5t-22.5 54.5zM212 112h289q20 0 20 -21v-71q0 -20 -20 -20h-407q-20 0 -20 20
v660q0 20 20 20h98q20 0 20 -20v-568z" />
    <glyph glyph-name="lcaron" unicode="&#x13e;" horiz-adv-x="290" 
d="M228 661q0 32 22.5 55t54.5 23q33 0 58.5 -22t25.5 -67q0 -43 -12 -73t-28.5 -50.5t-34.5 -31.5t-29 -17q-11 -5 -17 6l-22 35q-7 11 5 16l15 7.5t17.5 10.5t15 14t6.5 17q-32 0 -54.5 22.5t-22.5 54.5zM229 24q0 -10 -10.5 -19t-47.5 -10q-55 0 -84 30.5t-29 96.5v583
q0 21 20 21h91q20 0 20 -22v-561q0 -34 21 -40q5 -3 12 -5.5t7 -16.5v-57z" />
    <glyph glyph-name="Ldot" unicode="&#x13f;" horiz-adv-x="532" 
d="M212 112h289q20 0 20 -21v-71q0 -20 -20 -20h-407q-20 0 -20 20v660q0 20 20 20h98q20 0 20 -20v-568zM361 178q-28 0 -47.5 19t-19.5 48q0 28 19.5 47.5t47.5 19.5t47.5 -19.5t19.5 -47.5q0 -29 -19.5 -48t-47.5 -19z" />
    <glyph glyph-name="ldot" unicode="&#x140;" horiz-adv-x="342" 
d="M229 24q0 -10 -10.5 -19t-47.5 -10q-55 0 -84 30.5t-29 96.5v583q0 21 20 21h91q20 0 20 -22v-561q0 -34 21 -40q5 -3 12 -5.5t7 -16.5v-57zM294 167q-28 0 -47.5 19t-19.5 48q0 28 19.5 47.5t47.5 19.5t47.5 -19.5t19.5 -47.5q0 -29 -19.5 -48t-47.5 -19z" />
    <glyph glyph-name="Lslash" unicode="&#x141;" horiz-adv-x="564" 
d="M244 448l71 40q9 5 14.5 2t8.5 -8l23 -35q9 -14 -5 -22l-112 -63v-250h289q20 0 20 -21v-71q0 -20 -20 -20h-407q-20 0 -20 20v264l-60 -34q-8 -5 -13.5 -2t-9.5 8l-22 36q-4 6 -3.5 12t8.5 10l100 56v310q0 20 20 20h98q20 0 20 -20v-232z" />
    <glyph glyph-name="lslash" unicode="&#x142;" horiz-adv-x="355" 
d="M282 24q0 -10 -10.5 -19t-47.5 -10q-55 0 -84 30.5t-29 96.5v191l-53 -30q-6 -4 -12 -1.5t-9 7.5l-24 38q-6 12 5 20l93 52v306q0 21 20 21h91q20 0 20 -22v-231l63 36q12 8 22 -5l25 -37q8 -13 -5 -20l-105 -60v-244q0 -34 21 -40q5 -3 12 -5.5t7 -16.5v-57z" />
    <glyph glyph-name="Nacute" unicode="&#x143;" horiz-adv-x="690" 
d="M288 775q-8 0 -11 5t-1 12l68 158q4 8 9 13t14 5h119q8 0 12 -4.5t-1 -12.5l-101 -155q-6 -9 -11.5 -15t-17.5 -6h-79zM502 0q-18 0 -28.5 8t-20.5 25l-241 412v-425q0 -20 -20 -20h-98q-20 0 -20 20v660q0 20 20 20h95q19 0 30 -11t19 -26l240 -424v441q0 20 20 20h98
q20 0 20 -20v-660q0 -20 -20 -20h-94z" />
    <glyph glyph-name="nacute" unicode="&#x144;" horiz-adv-x="570" 
d="M240 557q-8 0 -11 5t-1 12l68 158q4 8 9 13t14 5h119q8 0 12 -4.5t-1 -12.5l-101 -155q-6 -9 -11.5 -15t-17.5 -6h-79zM77 339q0 20 -6 29t-18 12q-6 2 -11 6t-5 17v56q0 10 10.5 19t46.5 9q39 0 64.5 -17.5t31.5 -52.5v-12q5 15 15.5 30t28 27t42 19t57.5 7
q46 0 78.5 -15t53 -41t30 -61t9.5 -74v-154q0 -20 6 -29t17 -12q5 -2 11 -6t6 -16v-56q0 -10 -11 -19.5t-47 -9.5q-56 0 -84.5 30.5t-28.5 96.5v163q0 40 -20.5 64t-58.5 24q-23 0 -39.5 -9.5t-27 -23.5t-15.5 -31.5t-5 -32.5v-255q0 -21 -20 -21h-90q-20 0 -20 21v318z" />
    <glyph glyph-name="Ncommaaccent" unicode="&#x145;" horiz-adv-x="690" 
d="M259 -117q0 32 22.5 55t54.5 23q33 0 58.5 -22t25.5 -67q0 -43 -12 -73t-28.5 -50.5t-34.5 -31.5t-29 -17q-11 -5 -17 6l-22 35q-7 11 5 16l15 7.5t17.5 10.5t15 14t6.5 17q-32 0 -54.5 22.5t-22.5 54.5zM502 0q-18 0 -28.5 8t-20.5 25l-241 412v-425q0 -20 -20 -20h-98
q-20 0 -20 20v660q0 20 20 20h95q19 0 30 -11t19 -26l240 -424v441q0 20 20 20h98q20 0 20 -20v-660q0 -20 -20 -20h-94z" />
    <glyph glyph-name="ncommaaccent" unicode="&#x146;" horiz-adv-x="570" 
d="M226 -117q0 32 22.5 55t54.5 23q33 0 58.5 -22t25.5 -67q0 -43 -12 -73t-28.5 -50.5t-34.5 -31.5t-29 -17q-11 -5 -17 6l-22 35q-7 11 5 16l15 7.5t17.5 10.5t15 14t6.5 17q-32 0 -54.5 22.5t-22.5 54.5zM77 339q0 20 -6 29t-18 12q-6 2 -11 6t-5 17v56q0 10 10.5 19
t46.5 9q39 0 64.5 -17.5t31.5 -52.5v-12q5 15 15.5 30t28 27t42 19t57.5 7q46 0 78.5 -15t53 -41t30 -61t9.5 -74v-154q0 -20 6 -29t17 -12q5 -2 11 -6t6 -16v-56q0 -10 -11 -19.5t-47 -9.5q-56 0 -84.5 30.5t-28.5 96.5v163q0 40 -20.5 64t-58.5 24q-23 0 -39.5 -9.5
t-27 -23.5t-15.5 -31.5t-5 -32.5v-255q0 -21 -20 -21h-90q-20 0 -20 21v318z" />
    <glyph glyph-name="Ncaron" unicode="&#x147;" horiz-adv-x="690" 
d="M295 968q11 0 16.5 -8.5t8.5 -14.5l36 -75l37 75q3 6 8.5 14.5t16.5 8.5h73q12 0 15 -7.5t-1 -15.5l-68 -150q-5 -9 -10.5 -14.5t-15.5 -5.5h-109q-17 0 -25 20l-70 150q-4 8 0 15.5t15 7.5h73zM502 0q-18 0 -28.5 8t-20.5 25l-241 412v-425q0 -20 -20 -20h-98
q-20 0 -20 20v660q0 20 20 20h95q19 0 30 -11t19 -26l240 -424v441q0 20 20 20h98q20 0 20 -20v-660q0 -20 -20 -20h-94z" />
    <glyph glyph-name="ncaron" unicode="&#x148;" horiz-adv-x="570" 
d="M239 750q11 0 16.5 -8.5t8.5 -14.5l36 -75l37 75q3 6 8.5 14.5t16.5 8.5h73q12 0 15 -7.5t-1 -15.5l-68 -150q-5 -9 -10.5 -14.5t-15.5 -5.5h-109q-17 0 -25 20l-70 150q-4 8 0 15.5t15 7.5h73zM77 339q0 20 -6 29t-18 12q-6 2 -11 6t-5 17v56q0 10 10.5 19t46.5 9
q39 0 64.5 -17.5t31.5 -52.5v-12q5 15 15.5 30t28 27t42 19t57.5 7q46 0 78.5 -15t53 -41t30 -61t9.5 -74v-154q0 -20 6 -29t17 -12q5 -2 11 -6t6 -16v-56q0 -10 -11 -19.5t-47 -9.5q-56 0 -84.5 30.5t-28.5 96.5v163q0 40 -20.5 64t-58.5 24q-23 0 -39.5 -9.5t-27 -23.5
t-15.5 -31.5t-5 -32.5v-255q0 -21 -20 -21h-90q-20 0 -20 21v318z" />
    <glyph glyph-name="napostrophe" unicode="&#x149;" horiz-adv-x="607" 
d="M-59 655q0 26 18.5 44.5t44.5 18.5q27 0 48 -18t21 -55q0 -36 -10.5 -61t-24.5 -41.5t-28.5 -25.5t-22.5 -13q-8 -3 -13 5l-19 31q-5 7 4 11q6 2 13.5 6t14.5 9t12 11.5t5 13.5q-26 0 -44.5 18.5t-18.5 45.5zM113 339q0 20 -6 29t-18 12q-6 2 -11 6t-5 17v56
q0 10 10.5 19t46.5 9q39 0 64.5 -17.5t31.5 -52.5v-12q5 15 15.5 30t28 27t42 19t57.5 7q46 0 78.5 -15t53 -41t30 -61t9.5 -74v-154q0 -20 6 -29t17 -12q5 -2 11 -6t6 -16v-56q0 -10 -11 -19.5t-47 -9.5q-56 0 -84.5 30.5t-28.5 96.5v163q0 40 -20.5 64t-58.5 24
q-23 0 -39.5 -9.5t-27 -23.5t-15.5 -31.5t-5 -32.5v-255q0 -21 -20 -21h-90q-20 0 -20 21v318z" />
    <glyph glyph-name="Eng" unicode="&#x14a;" horiz-adv-x="690" 
d="M74 680q0 20 20 20h96q20 0 29 -8.5t20 -30.5l239 -433v451q0 21 20 21h97q21 0 21 -21v-696q0 -61 -19 -106.5t-51 -75.5t-75.5 -45t-91.5 -15q-32 0 -58 6t-46.5 14.5t-35 18.5t-23.5 18q-17 15 -1 33l52 59q17 21 31 8q11 -10 31.5 -21t49.5 -11q47 0 73 28.5t26 84.5
v21q-4 1 -11.5 5t-18.5 22l-236 413v-420q0 -20 -20 -20h-98q-20 0 -20 20v660z" />
    <glyph glyph-name="eng" unicode="&#x14b;" horiz-adv-x="548" 
d="M507 35q0 -47 -11 -85t-34 -65.5t-58.5 -42.5t-85.5 -15q-32 0 -53 8t-32 15q-6 4 -8 9.5t3 16.5l25 60q5 15 16 12q6 -2 13.5 -4t21.5 -2q38 0 55 25.5t17 73.5v244q0 40 -20 64t-58 24q-24 0 -40.5 -9.5t-27 -23.5t-15 -31.5t-4.5 -32.5v-255q0 -21 -20 -21h-90
q-21 0 -21 21v311q0 23 -5.5 35t-24.5 14q-4 1 -9.5 5.5t-5.5 19.5v52q0 16 12.5 22.5t43.5 6.5q42 0 68.5 -19.5t33.5 -52.5v-13q5 16 15 31.5t27 27.5t42 19.5t59 7.5q46 0 78.5 -15t53 -41t30 -61t9.5 -74v-262z" />
    <glyph glyph-name="Omacron" unicode="&#x14c;" horiz-adv-x="709" 
d="M496 885q21 0 21 -20v-53q0 -20 -21 -20h-282q-20 0 -20 20v53q0 20 21 20h281zM355 -6q-64 0 -121 21.5t-99.5 65.5t-67.5 110.5t-25 157.5t24.5 158t67.5 111t99.5 66t121.5 22q64 0 121 -22t99.5 -66t67 -111t24.5 -158t-25 -157.5t-67.5 -110.5t-99 -65.5
t-120.5 -21.5zM355 113q34 0 64.5 12.5t54 40.5t37 73t13.5 110q0 66 -14 111t-37 72.5t-53.5 40t-64.5 12.5t-65 -12.5t-54 -40t-37 -72.5t-14 -111q0 -65 13.5 -110t37 -73t54 -40.5t65.5 -12.5z" />
    <glyph glyph-name="omacron" unicode="&#x14d;" horiz-adv-x="525" 
d="M407 667q21 0 21 -20v-53q0 -20 -21 -20h-282q-20 0 -20 20v53q0 20 21 20h281zM262 -6q-54 0 -95.5 18t-70 50.5t-43.5 78t-15 101.5q0 55 15 100.5t43.5 77.5t70.5 50t95 18t95 -18t71 -50t44 -77.5t15 -100.5q0 -56 -15 -101.5t-44 -78t-70.5 -50.5t-95.5 -18z
M262 108q51 0 73 35t22 98t-23 98t-72 35t-72 -35t-23 -98t22.5 -98t72.5 -35z" />
    <glyph glyph-name="Obreve" unicode="&#x14e;" horiz-adv-x="709" 
d="M355 -6q-64 0 -121 21.5t-99.5 65.5t-67.5 110.5t-25 157.5t24.5 158t67.5 111t99.5 66t121.5 22q64 0 121 -22t99.5 -66t67 -111t24.5 -158t-25 -157.5t-67.5 -110.5t-99 -65.5t-120.5 -21.5zM355 113q34 0 64.5 12.5t54 40.5t37 73t13.5 110q0 66 -14 111t-37 72.5
t-53.5 40t-64.5 12.5t-65 -12.5t-54 -40t-37 -72.5t-14 -111q0 -65 13.5 -110t37 -73t54 -40.5t65.5 -12.5zM491 922q16 0 16 -17q0 -28 -9.5 -52t-27.5 -42t-45 -28t-63 -10q-38 0 -65.5 10.5t-45.5 28.5t-27 42t-9 51q0 7 3.5 12t11.5 5h65q16 0 16 -13q1 -17 11 -33
t40 -16q47 0 49 49q0 13 15 13h65z" />
    <glyph glyph-name="obreve" unicode="&#x14f;" horiz-adv-x="525" 
d="M262 -6q-54 0 -95.5 18t-70 50.5t-43.5 78t-15 101.5q0 55 15 100.5t43.5 77.5t70.5 50t95 18t95 -18t71 -50t44 -77.5t15 -100.5q0 -56 -15 -101.5t-44 -78t-70.5 -50.5t-95.5 -18zM262 108q51 0 73 35t22 98t-23 98t-72 35t-72 -35t-23 -98t22.5 -98t72.5 -35zM396 704
q16 0 16 -17q0 -28 -9.5 -52t-27.5 -42t-45 -28t-63 -10q-38 0 -65.5 10.5t-45.5 28.5t-27 42t-9 51q0 7 3.5 12t11.5 5h65q16 0 16 -13q1 -17 11 -33t40 -16q47 0 49 49q0 13 15 13h65z" />
    <glyph glyph-name="Ohungarumlaut" unicode="&#x150;" horiz-adv-x="709" 
d="M408 775q-8 0 -11 5t0 12l68 158q3 8 8 13t15 5h119q8 0 12 -4.5t-1 -12.5l-102 -155q-5 -9 -11 -15t-18 -6h-79zM214 775q-8 0 -11 5t-1 12l68 158q4 8 9 13t14 5h120q8 0 11.5 -4.5t-1.5 -12.5l-101 -155q-5 -9 -11 -15t-18 -6h-79zM355 -6q-64 0 -121 21.5t-99.5 65.5
t-67.5 110.5t-25 157.5t24.5 158t67.5 111t99.5 66t121.5 22q64 0 121 -22t99.5 -66t67 -111t24.5 -158t-25 -157.5t-67.5 -110.5t-99 -65.5t-120.5 -21.5zM355 113q34 0 64.5 12.5t54 40.5t37 73t13.5 110q0 66 -14 111t-37 72.5t-53.5 40t-64.5 12.5t-65 -12.5t-54 -40
t-37 -72.5t-14 -111q0 -65 13.5 -110t37 -73t54 -40.5t65.5 -12.5z" />
    <glyph glyph-name="ohungarumlaut" unicode="&#x151;" horiz-adv-x="525" 
d="M314 557q-8 0 -11 5t0 12l68 158q3 8 8 13t15 5h119q8 0 12 -4.5t-1 -12.5l-102 -155q-5 -9 -11 -15t-18 -6h-79zM120 557q-8 0 -11 5t-1 12l68 158q4 8 9 13t14 5h120q8 0 11.5 -4.5t-1.5 -12.5l-101 -155q-5 -9 -11 -15t-18 -6h-79zM262 -6q-54 0 -95.5 18t-70 50.5
t-43.5 78t-15 101.5q0 55 15 100.5t43.5 77.5t70.5 50t95 18t95 -18t71 -50t44 -77.5t15 -100.5q0 -56 -15 -101.5t-44 -78t-70.5 -50.5t-95.5 -18zM262 108q51 0 73 35t22 98t-23 98t-72 35t-72 -35t-23 -98t22.5 -98t72.5 -35z" />
    <glyph glyph-name="OE" unicode="&#x152;" horiz-adv-x="1013" 
d="M355 113q34 0 65 12.5t54 40.5t37 73t14 110q0 66 -14 111t-37.5 72.5t-54 40t-64.5 12.5t-65 -12.5t-54 -40t-37 -72.5t-14 -111q0 -65 13.5 -110t37 -73t54 -40.5t65.5 -12.5zM668 397h219q20 0 20 -20v-70q0 -20 -21 -20h-218v-175h283q21 0 21 -21v-71q0 -20 -21 -20
h-409q-12 0 -12 12v45q-8 -4 -22 -14t-35 -21t-50 -19.5t-68 -8.5q-64 0 -121 21.5t-99.5 65.5t-67.5 110.5t-25 157.5t24.5 158t67.5 111t99.5 66t121.5 22q38 0 67 -8.5t50 -19.5t35.5 -21t22.5 -14v46q0 11 12 11h409q21 0 21 -20v-71q0 -21 -21 -21h-283v-191z" />
    <glyph glyph-name="oe" unicode="&#x153;" horiz-adv-x="828" 
d="M489 224v-5q1 -29 11.5 -50t27 -35t37 -21t43.5 -7q40 0 66.5 15.5t39.5 28.5q5 5 10 7t11 -5l47 -47q6 -6 6 -11.5t-3 -10.5q-8 -11 -23 -26t-39 -29t-57.5 -24t-76.5 -10q-51 0 -93 17t-73 51q-28 -32 -68.5 -50t-92.5 -18q-54 0 -95.5 18t-70 50.5t-43.5 78t-15 101.5
q0 55 15 100.5t43.5 77.5t70.5 50t95 18q51 0 91 -17.5t68 -47.5q29 31 70.5 48t96.5 17q53 0 90.5 -16t61.5 -46t35 -73t11 -97q0 -19 -5 -25.5t-19 -6.5h-273zM262 108q51 0 73 35t22 98t-23 98t-72 35t-72 -35t-23 -98t22.5 -98t72.5 -35zM662 297q0 40 -21 61.5
t-60 21.5q-34 0 -58 -19t-32 -64h171z" />
    <glyph glyph-name="Racute" unicode="&#x154;" horiz-adv-x="672" 
d="M243 775q-8 0 -11 5t-1 12l68 158q4 8 9 13t14 5h119q8 0 12 -4.5t-1 -12.5l-101 -155q-6 -9 -11.5 -15t-17.5 -6h-79zM660 22q0 -13 -16 -20q-8 -3 -22 -5t-34 -2q-54 0 -87 20t-54 49.5t-35 64t-29.5 64t-37.5 49.5t-59 20h-74v-242q0 -20 -20 -20h-98q-20 0 -20 20
v659q0 21 20 21h226q130 0 197 -51t67 -169q0 -39 -11.5 -68.5t-29 -51.5t-39 -36.5t-41.5 -21.5q27 -22 43.5 -55t32.5 -64t36.5 -53t54.5 -23h15q15 0 15 -18v-67zM304 366q63 0 103.5 28t40.5 82q0 53 -35 82.5t-98 29.5h-103v-222h92z" />
    <glyph glyph-name="racute" unicode="&#x155;" horiz-adv-x="414" 
d="M123 557q-8 0 -11 5t-1 12l68 158q4 8 9 13t14 5h119q8 0 12 -4.5t-1 -12.5l-101 -155q-6 -9 -11.5 -15t-17.5 -6h-79zM77 339q0 24 -10 32t-18 10q-12 1 -12 20v62q0 12 12.5 18t41.5 6q38 0 64.5 -18t33.5 -56v-12q5 15 15 30.5t27 28t41.5 20.5t59.5 8q36 0 61 -11
q8 -4 10 -9t-3 -16l-39 -84q-4 -8 -7 -9t-10 1q-8 3 -20 6t-31 3q-23 0 -39 -9t-26.5 -23t-15.5 -30t-5 -31v-255q0 -21 -20 -21h-90q-20 0 -20 20v319z" />
    <glyph glyph-name="Rcommaaccent" unicode="&#x156;" horiz-adv-x="672" 
d="M247 -117q0 32 22.5 55t54.5 23q33 0 58.5 -22t25.5 -67q0 -43 -12 -73t-28.5 -50.5t-34.5 -31.5t-29 -17q-11 -5 -17 6l-22 35q-7 11 5 16l15 7.5t17.5 10.5t15 14t6.5 17q-32 0 -54.5 22.5t-22.5 54.5zM660 22q0 -13 -16 -20q-8 -3 -22 -5t-34 -2q-54 0 -87 20
t-54 49.5t-35 64t-29.5 64t-37.5 49.5t-59 20h-74v-242q0 -20 -20 -20h-98q-20 0 -20 20v659q0 21 20 21h226q130 0 197 -51t67 -169q0 -39 -11.5 -68.5t-29 -51.5t-39 -36.5t-41.5 -21.5q27 -22 43.5 -55t32.5 -64t36.5 -53t54.5 -23h15q15 0 15 -18v-67zM304 366
q63 0 103.5 28t40.5 82q0 53 -35 82.5t-98 29.5h-103v-222h92z" />
    <glyph glyph-name="rcommaaccent" unicode="&#x157;" horiz-adv-x="414" 
d="M63 -117q0 32 22.5 55t54.5 23q33 0 58.5 -22t25.5 -67q0 -43 -12 -73t-28.5 -50.5t-34.5 -31.5t-29 -17q-11 -5 -17 6l-22 35q-7 11 5 16l15 7.5t17.5 10.5t15 14t6.5 17q-32 0 -54.5 22.5t-22.5 54.5zM77 339q0 24 -10 32t-18 10q-12 1 -12 20v62q0 12 12.5 18t41.5 6
q38 0 64.5 -18t33.5 -56v-12q5 15 15 30.5t27 28t41.5 20.5t59.5 8q36 0 61 -11q8 -4 10 -9t-3 -16l-39 -84q-4 -8 -7 -9t-10 1q-8 3 -20 6t-31 3q-23 0 -39 -9t-26.5 -23t-15.5 -30t-5 -31v-255q0 -21 -20 -21h-90q-20 0 -20 20v319z" />
    <glyph glyph-name="Rcaron" unicode="&#x158;" horiz-adv-x="672" 
d="M216 968q11 0 16.5 -8.5t8.5 -14.5l36 -75l37 75q3 6 8.5 14.5t16.5 8.5h73q12 0 15 -7.5t-1 -15.5l-68 -150q-5 -9 -10.5 -14.5t-15.5 -5.5h-109q-17 0 -25 20l-70 150q-4 8 0 15.5t15 7.5h73zM660 22q0 -13 -16 -20q-8 -3 -22 -5t-34 -2q-54 0 -87 20t-54 49.5t-35 64
t-29.5 64t-37.5 49.5t-59 20h-74v-242q0 -20 -20 -20h-98q-20 0 -20 20v659q0 21 20 21h226q130 0 197 -51t67 -169q0 -39 -11.5 -68.5t-29 -51.5t-39 -36.5t-41.5 -21.5q27 -22 43.5 -55t32.5 -64t36.5 -53t54.5 -23h15q15 0 15 -18v-67zM304 366q63 0 103.5 28t40.5 82
q0 53 -35 82.5t-98 29.5h-103v-222h92z" />
    <glyph glyph-name="rcaron" unicode="&#x159;" horiz-adv-x="414" 
d="M160 750q11 0 16.5 -8.5t8.5 -14.5l36 -75l37 75q3 6 8.5 14.5t16.5 8.5h73q12 0 15 -7.5t-1 -15.5l-68 -150q-5 -9 -10.5 -14.5t-15.5 -5.5h-109q-17 0 -25 20l-70 150q-4 8 0 15.5t15 7.5h73zM77 339q0 24 -10 32t-18 10q-12 1 -12 20v62q0 12 12.5 18t41.5 6
q38 0 64.5 -18t33.5 -56v-12q5 15 15 30.5t27 28t41.5 20.5t59.5 8q36 0 61 -11q8 -4 10 -9t-3 -16l-39 -84q-4 -8 -7 -9t-10 1q-8 3 -20 6t-31 3q-23 0 -39 -9t-26.5 -23t-15.5 -30t-5 -31v-255q0 -21 -20 -21h-90q-20 0 -20 20v319z" />
    <glyph glyph-name="Sacute" unicode="&#x15a;" horiz-adv-x="611" 
d="M256 775q-8 0 -11 5t-1 12l68 158q4 8 9 13t14 5h119q8 0 12 -4.5t-1 -12.5l-101 -155q-6 -9 -11.5 -15t-17.5 -6h-79zM490 519q-11 -7 -17.5 -6t-10.5 6q-6 8 -17 20.5t-29 23.5t-43.5 19t-58.5 8q-56 1 -85.5 -23t-29.5 -59q0 -38 28 -57t69.5 -31.5t90 -24t90 -33.5
t69.5 -61t28 -106q0 -38 -15 -74t-46.5 -64.5t-81 -45.5t-119.5 -17q-67 0 -115.5 15t-81.5 36t-52.5 43t-27.5 36q-5 7 -3.5 15t8.5 13l53 49q6 7 14 8t14 -7q9 -11 25 -27t40 -31t55.5 -25.5t70.5 -10.5q56 0 87 22t31 61q0 41 -28 61.5t-70 33t-91.5 23t-91.5 32t-70 60
t-28 106.5q0 40 16.5 76t49 63.5t79.5 43.5t108 16q62 0 106.5 -13t74.5 -32t47.5 -39t25.5 -34q3 -5 3 -12t-11 -15z" />
    <glyph glyph-name="sacute" unicode="&#x15b;" horiz-adv-x="493" 
d="M198 557q-8 0 -11 5t-1 12l68 158q4 8 9 13t14 5h119q8 0 12 -4.5t-1 -12.5l-101 -155q-6 -9 -11.5 -15t-17.5 -6h-79zM350 304q-21 0 -21 12q1 5 1.5 10t0.5 13q0 22 -17.5 36t-59.5 14q-37 0 -56 -13.5t-19 -37.5q0 -25 20.5 -36.5t51.5 -18.5t66.5 -13t66.5 -19.5
t51.5 -38t20.5 -68.5q0 -69 -51 -109.5t-158 -40.5q-50 0 -86.5 9.5t-62 22.5t-41.5 27.5t-24 25.5q-3 5 -4.5 12.5t6.5 15.5l48 47q8 8 13 8t10 -4q7 -8 19.5 -19t29 -21t38 -16.5t48.5 -6.5q40 0 57 11.5t17 31.5t-20 29.5t-49.5 16t-64 14t-64 23t-49.5 42t-20 72.5
q0 29 11 56.5t35 49t63 34.5t95 13q57 0 94.5 -11.5t60.5 -31t32.5 -44.5t9.5 -51q0 -24 -7 -35t-23 -11h-69z" />
    <glyph glyph-name="Scircumflex" unicode="&#x15c;" horiz-adv-x="611" 
d="M155 756q-11 0 -15 7.5t0 15.5l70 150q8 20 25 20h109q10 0 15.5 -5.5t10.5 -14.5l69 -150q4 -8 0.5 -15.5t-15.5 -7.5h-72q-16 0 -23 16l-40 82l-39 -82q-7 -16 -23 -16h-72zM490 519q-11 -7 -17.5 -6t-10.5 6q-6 8 -17 20.5t-29 23.5t-43.5 19t-58.5 8q-56 1 -85.5 -23
t-29.5 -59q0 -38 28 -57t69.5 -31.5t90 -24t90 -33.5t69.5 -61t28 -106q0 -38 -15 -74t-46.5 -64.5t-81 -45.5t-119.5 -17q-67 0 -115.5 15t-81.5 36t-52.5 43t-27.5 36q-5 7 -3.5 15t8.5 13l53 49q6 7 14 8t14 -7q9 -11 25 -27t40 -31t55.5 -25.5t70.5 -10.5q56 0 87 22
t31 61q0 41 -28 61.5t-70 33t-91.5 23t-91.5 32t-70 60t-28 106.5q0 40 16.5 76t49 63.5t79.5 43.5t108 16q62 0 106.5 -13t74.5 -32t47.5 -39t25.5 -34q3 -5 3 -12t-11 -15z" />
    <glyph glyph-name="scircumflex" unicode="&#x15d;" horiz-adv-x="493" 
d="M123 538q-11 0 -15 7.5t0 15.5l70 150q8 20 25 20h109q10 0 15.5 -5.5t10.5 -14.5l69 -150q4 -8 0.5 -15.5t-15.5 -7.5h-72q-16 0 -23 16l-40 82l-39 -82q-7 -16 -23 -16h-72zM350 304q-21 0 -21 12q1 5 1.5 10t0.5 13q0 22 -17.5 36t-59.5 14q-37 0 -56 -13.5t-19 -37.5
q0 -25 20.5 -36.5t51.5 -18.5t66.5 -13t66.5 -19.5t51.5 -38t20.5 -68.5q0 -69 -51 -109.5t-158 -40.5q-50 0 -86.5 9.5t-62 22.5t-41.5 27.5t-24 25.5q-3 5 -4.5 12.5t6.5 15.5l48 47q8 8 13 8t10 -4q7 -8 19.5 -19t29 -21t38 -16.5t48.5 -6.5q40 0 57 11.5t17 31.5
t-20 29.5t-49.5 16t-64 14t-64 23t-49.5 42t-20 72.5q0 29 11 56.5t35 49t63 34.5t95 13q57 0 94.5 -11.5t60.5 -31t32.5 -44.5t9.5 -51q0 -24 -7 -35t-23 -11h-69z" />
    <glyph glyph-name="Scedilla" unicode="&#x15e;" horiz-adv-x="611" 
d="M490 519q-11 -7 -17.5 -6t-10.5 6q-6 8 -17 20.5t-29 23.5t-43.5 19t-58.5 8q-56 1 -85.5 -23t-29.5 -59q0 -38 28 -57t69.5 -31.5t90 -24t90 -33.5t69.5 -61t28 -106q0 -35 -13 -69t-40 -61t-69 -45.5t-100 -23.5l-11 -25q10 0 22 -4.5t21.5 -13.5t16 -23t6.5 -32
q0 -44 -30.5 -64.5t-70.5 -20.5q-37 0 -59 13.5t-30 21.5q-5 5 -2 11l20 34q4 6 7 5.5t5 -2.5q8 -6 22 -14t35 -8q38 0 38 27q0 11 -15 21.5t-57 11.5q-8 0 -5 7l23 54q-61 3 -105 18.5t-74.5 35.5t-48 41t-25.5 34q-10 15 5 28l53 49q6 7 14 8t14 -7q9 -11 25 -27t40 -31
t55.5 -25.5t70.5 -10.5q56 0 87 22t31 61q0 41 -28 61.5t-70 33t-91.5 23t-91.5 32t-70 60t-28 106.5q0 40 16.5 76t49 63.5t79.5 43.5t108 16q62 0 106.5 -13t74.5 -32t47.5 -39t25.5 -34q3 -5 3 -12t-11 -15z" />
    <glyph glyph-name="scedilla" unicode="&#x15f;" horiz-adv-x="493" 
d="M350 304q-21 0 -21 12q1 5 1.5 10t0.5 13q0 22 -17.5 36t-59.5 14q-37 0 -56 -13.5t-19 -37.5q0 -25 20.5 -36.5t51.5 -18.5t66.5 -13t66.5 -19.5t51.5 -38t20.5 -68.5q0 -62 -41 -101t-128 -47l-11 -25q10 0 22 -4.5t21.5 -13.5t16 -23t6.5 -32q0 -44 -30.5 -64.5
t-70.5 -20.5q-37 0 -59 13.5t-30 21.5q-5 5 -2 11l20 34q4 6 7 5.5t5 -2.5q8 -6 22 -14t35 -8q38 0 38 27q0 11 -15 21.5t-57 11.5q-8 0 -5 7l23 54q-44 2 -76.5 11.5t-55 22.5t-37 26.5t-21.5 23.5q-3 5 -4.5 12.5t6.5 15.5l48 47q8 8 13 8t10 -4q7 -8 19.5 -19t29 -21
t38 -16.5t48.5 -6.5q40 0 57 11.5t17 31.5t-20 29.5t-49.5 16t-64 14t-64 23t-49.5 42t-20 72.5q0 29 11 56.5t35 49t63 34.5t95 13q57 0 94.5 -11.5t60.5 -31t32.5 -44.5t9.5 -51q0 -24 -7 -35t-23 -11h-69z" />
    <glyph glyph-name="Scaron" unicode="&#x160;" horiz-adv-x="611" 
d="M249 968q11 0 16.5 -8.5t8.5 -14.5l36 -75l37 75q3 6 8.5 14.5t16.5 8.5h73q12 0 15 -7.5t-1 -15.5l-68 -150q-5 -9 -10.5 -14.5t-15.5 -5.5h-109q-17 0 -25 20l-70 150q-4 8 0 15.5t15 7.5h73zM490 519q-11 -7 -17.5 -6t-10.5 6q-6 8 -17 20.5t-29 23.5t-43.5 19
t-58.5 8q-56 1 -85.5 -23t-29.5 -59q0 -38 28 -57t69.5 -31.5t90 -24t90 -33.5t69.5 -61t28 -106q0 -38 -15 -74t-46.5 -64.5t-81 -45.5t-119.5 -17q-67 0 -115.5 15t-81.5 36t-52.5 43t-27.5 36q-5 7 -3.5 15t8.5 13l53 49q6 7 14 8t14 -7q9 -11 25 -27t40 -31t55.5 -25.5
t70.5 -10.5q56 0 87 22t31 61q0 41 -28 61.5t-70 33t-91.5 23t-91.5 32t-70 60t-28 106.5q0 40 16.5 76t49 63.5t79.5 43.5t108 16q62 0 106.5 -13t74.5 -32t47.5 -39t25.5 -34q3 -5 3 -12t-11 -15z" />
    <glyph glyph-name="scaron" unicode="&#x161;" horiz-adv-x="493" 
d="M189 750q11 0 16.5 -8.5t8.5 -14.5l36 -75l37 75q3 6 8.5 14.5t16.5 8.5h73q12 0 15 -7.5t-1 -15.5l-68 -150q-5 -9 -10.5 -14.5t-15.5 -5.5h-109q-17 0 -25 20l-70 150q-4 8 0 15.5t15 7.5h73zM350 304q-21 0 -21 12q1 5 1.5 10t0.5 13q0 22 -17.5 36t-59.5 14
q-37 0 -56 -13.5t-19 -37.5q0 -25 20.5 -36.5t51.5 -18.5t66.5 -13t66.5 -19.5t51.5 -38t20.5 -68.5q0 -69 -51 -109.5t-158 -40.5q-50 0 -86.5 9.5t-62 22.5t-41.5 27.5t-24 25.5q-3 5 -4.5 12.5t6.5 15.5l48 47q8 8 13 8t10 -4q7 -8 19.5 -19t29 -21t38 -16.5t48.5 -6.5
q40 0 57 11.5t17 31.5t-20 29.5t-49.5 16t-64 14t-64 23t-49.5 42t-20 72.5q0 29 11 56.5t35 49t63 34.5t95 13q57 0 94.5 -11.5t60.5 -31t32.5 -44.5t9.5 -51q0 -24 -7 -35t-23 -11h-69z" />
    <glyph glyph-name="Tcommaaccent" unicode="&#x162;" horiz-adv-x="633" 
d="M231 -117q0 32 22.5 55t54.5 23q33 0 58.5 -22t25.5 -67q0 -43 -12 -73t-28.5 -50.5t-34.5 -31.5t-29 -17q-11 -5 -17 6l-22 35q-7 11 5 16l15 7.5t17.5 10.5t15 14t6.5 17q-32 0 -54.5 22.5t-22.5 54.5zM600 700q20 0 20 -20v-71q0 -21 -21 -21h-209v-568q0 -20 -20 -20
h-98q-20 0 -20 20v568h-219q-21 0 -21 21v71q0 20 21 20h567z" />
    <glyph glyph-name="tcommaaccent" unicode="&#x163;" horiz-adv-x="435" 
d="M150 -145q0 32 22.5 55t54.5 23q33 0 58.5 -22t25.5 -67q0 -43 -12 -73t-28.5 -50.5t-34.5 -31.5t-29 -17q-11 -5 -17 6l-22 35q-7 11 5 16l15 7.5t17.5 10.5t15 14t6.5 17q-32 0 -54.5 22.5t-22.5 54.5zM375 482q21 0 21 -20v-62q0 -21 -21 -21h-145v-168
q0 -52 18.5 -77t59.5 -25q21 0 37 6.5t25 12.5q5 2 10 2.5t9 -7.5l27 -64q4 -11 1.5 -16.5t-7.5 -9.5q-15 -11 -44.5 -25t-71.5 -14q-106 0 -150.5 55t-44.5 156v174h-52q-21 0 -21 21v62q0 20 21 20h52v130q0 21 20 21h90q21 0 21 -22v-129h145z" />
    <glyph glyph-name="Tcaron" unicode="&#x164;" horiz-adv-x="633" 
d="M245 968q11 0 16.5 -8.5t8.5 -14.5l36 -75l37 75q3 6 8.5 14.5t16.5 8.5h73q12 0 15 -7.5t-1 -15.5l-68 -150q-5 -9 -10.5 -14.5t-15.5 -5.5h-109q-17 0 -25 20l-70 150q-4 8 0 15.5t15 7.5h73zM600 700q20 0 20 -20v-71q0 -21 -21 -21h-209v-568q0 -20 -20 -20h-98
q-20 0 -20 20v568h-219q-21 0 -21 21v71q0 20 21 20h567z" />
    <glyph glyph-name="tcaron" unicode="&#x165;" horiz-adv-x="435" 
d="M257 695q0 32 22.5 55t54.5 23q33 0 58.5 -22t25.5 -67q0 -43 -12 -73t-28.5 -50.5t-34.5 -31.5t-29 -17q-11 -5 -17 6l-22 35q-7 11 5 16l15 7.5t17.5 10.5t15 14t6.5 17q-32 0 -54.5 22.5t-22.5 54.5zM375 482q21 0 21 -20v-62q0 -21 -21 -21h-145v-168q0 -52 18.5 -77
t59.5 -25q21 0 37 6.5t25 12.5q5 2 10 2.5t9 -7.5l27 -64q4 -11 1.5 -16.5t-7.5 -9.5q-15 -11 -44.5 -25t-71.5 -14q-106 0 -150.5 55t-44.5 156v174h-52q-21 0 -21 21v62q0 20 21 20h52v130q0 21 20 21h90q21 0 21 -22v-129h145z" />
    <glyph glyph-name="Tbar" unicode="&#x166;" horiz-adv-x="643" 
d="M603 700q20 0 20 -20v-71q0 -21 -21 -21h-209v-151h114q20 0 20 -20v-61q0 -21 -20 -21h-114v-315q0 -20 -20 -20h-98q-20 0 -20 20v315h-113q-21 0 -21 21v61q0 20 21 20h113v151h-219q-21 0 -21 21v71q0 20 21 20h567z" />
    <glyph glyph-name="tbar" unicode="&#x167;" horiz-adv-x="435" 
d="M375 482q21 0 21 -20v-62q0 -21 -21 -21h-145v-67h109q20 0 20 -20v-50q0 -9 -5 -15t-15 -6h-109v-10q0 -52 18.5 -77t59.5 -25q21 0 37 6.5t25 12.5q5 2 10 2.5t9 -7.5l27 -64q4 -11 1.5 -16.5t-7.5 -9.5q-15 -11 -44.5 -25t-71.5 -14q-106 0 -150.5 55t-44.5 156v16
h-31q-10 0 -15 6t-5 15v50q0 20 20 20h31v67h-52q-21 0 -21 21v62q0 20 21 20h52v130q0 21 20 21h90q21 0 21 -22v-129h145z" />
    <glyph glyph-name="Utilde" unicode="&#x168;" horiz-adv-x="674" 
d="M469 680q0 20 21 20h97q20 0 20 -20v-391q0 -84 -21 -140.5t-57.5 -91t-85.5 -49t-104 -14.5q-56 0 -105.5 14.5t-86.5 49t-58.5 91t-21.5 140.5l1 391q0 20 20 20h98q20 0 20 -20v-401q0 -74 31 -118.5t102 -44.5q70 0 100 44.5t30 118.5v401zM173 755q-14 0 -17 7
q-5 11 -8 23t-3 29q0 38 23.5 66t72.5 28q25 0 47 -6.5t42 -14t38 -13.5t34 -6q11 0 16.5 6.5t5.5 16.5q0 11 -2.5 20t-4.5 15q-2 9 12 9h55q16 0 19 -9q3 -8 6 -20.5t3 -29.5q0 -38 -22.5 -67t-70.5 -29q-29 0 -52 6.5t-42 14t-35 14t-29 6.5q-12 0 -19.5 -7.5t-7.5 -22.5
q0 -8 2.5 -15.5t4.5 -12.5q2 -8 -9 -8h-59z" />
    <glyph glyph-name="utilde" unicode="&#x169;" horiz-adv-x="560" 
d="M523 24q0 -10 -10.5 -19.5t-46.5 -9.5q-45 0 -68.5 20t-30.5 58v3q-7 -14 -19 -28.5t-31 -26.5t-45.5 -19.5t-61.5 -7.5q-42 0 -71 12.5t-47 35.5t-26.5 55t-8.5 71v293q0 21 20 21h90q21 0 21 -21v-264q0 -48 19 -68t49 -20t48.5 13.5t29 30.5t14.5 34t4 25v249
q0 21 20 21h91q20 0 20 -21v-318q0 -35 25 -42q6 -2 10.5 -5.5t4.5 -16.5v-55zM116 546q-14 0 -17 7q-5 11 -8 23t-3 29q0 38 23.5 66t72.5 28q25 0 47 -6.5t42 -14t38 -13.5t34 -6q11 0 16.5 6.5t5.5 16.5q0 11 -2.5 20t-4.5 15q-2 9 12 9h55q16 0 19 -9q3 -8 6 -20.5
t3 -29.5q0 -38 -22.5 -67t-70.5 -29q-29 0 -52 6.5t-42 14t-35 14t-29 6.5q-12 0 -19.5 -7.5t-7.5 -22.5q0 -8 2.5 -15.5t4.5 -12.5q2 -8 -9 -8h-59z" />
    <glyph glyph-name="Umacron" unicode="&#x16a;" horiz-adv-x="674" 
d="M469 680q0 20 21 20h97q20 0 20 -20v-391q0 -84 -21 -140.5t-57.5 -91t-85.5 -49t-104 -14.5q-56 0 -105.5 14.5t-86.5 49t-58.5 91t-21.5 140.5l1 391q0 20 20 20h98q20 0 20 -20v-401q0 -74 31 -118.5t102 -44.5q70 0 100 44.5t30 118.5v401zM475 885q21 0 21 -20v-53
q0 -20 -21 -20h-282q-20 0 -20 20v53q0 20 21 20h281z" />
    <glyph glyph-name="umacron" unicode="&#x16b;" horiz-adv-x="560" 
d="M523 24q0 -10 -10.5 -19.5t-46.5 -9.5q-45 0 -68.5 20t-30.5 58v3q-7 -14 -19 -28.5t-31 -26.5t-45.5 -19.5t-61.5 -7.5q-42 0 -71 12.5t-47 35.5t-26.5 55t-8.5 71v293q0 21 20 21h90q21 0 21 -21v-264q0 -48 19 -68t49 -20t48.5 13.5t29 30.5t14.5 34t4 25v249
q0 21 20 21h91q20 0 20 -21v-318q0 -35 25 -42q6 -2 10.5 -5.5t4.5 -16.5v-55zM406 667q21 0 21 -20v-53q0 -20 -21 -20h-282q-20 0 -20 20v53q0 20 21 20h281z" />
    <glyph glyph-name="Ubreve" unicode="&#x16c;" horiz-adv-x="674" 
d="M469 680q0 20 21 20h97q20 0 20 -20v-391q0 -84 -21 -140.5t-57.5 -91t-85.5 -49t-104 -14.5q-56 0 -105.5 14.5t-86.5 49t-58.5 91t-21.5 140.5l1 391q0 20 20 20h98q20 0 20 -20v-401q0 -74 31 -118.5t102 -44.5q70 0 100 44.5t30 118.5v401zM466 922q16 0 16 -17
q0 -28 -9.5 -52t-27.5 -42t-45 -28t-63 -10q-38 0 -65.5 10.5t-45.5 28.5t-27 42t-9 51q0 7 3.5 12t11.5 5h65q16 0 16 -13q1 -17 11 -33t40 -16q47 0 49 49q0 13 15 13h65z" />
    <glyph glyph-name="ubreve" unicode="&#x16d;" horiz-adv-x="560" 
d="M523 24q0 -10 -10.5 -19.5t-46.5 -9.5q-45 0 -68.5 20t-30.5 58v3q-7 -14 -19 -28.5t-31 -26.5t-45.5 -19.5t-61.5 -7.5q-42 0 -71 12.5t-47 35.5t-26.5 55t-8.5 71v293q0 21 20 21h90q21 0 21 -21v-264q0 -48 19 -68t49 -20t48.5 13.5t29 30.5t14.5 34t4 25v249
q0 21 20 21h91q20 0 20 -21v-318q0 -35 25 -42q6 -2 10.5 -5.5t4.5 -16.5v-55zM393 704q16 0 16 -17q0 -28 -9.5 -52t-27.5 -42t-45 -28t-63 -10q-38 0 -65.5 10.5t-45.5 28.5t-27 42t-9 51q0 7 3.5 12t11.5 5h65q16 0 16 -13q1 -17 11 -33t40 -16q47 0 49 49q0 13 15 13h65
z" />
    <glyph glyph-name="Uring" unicode="&#x16e;" horiz-adv-x="674" 
d="M334 768q-21 0 -39.5 7.5t-32 21t-21 31.5t-7.5 39q0 43 29 71.5t71 28.5t70.5 -28.5t28.5 -71.5q0 -21 -7.5 -39t-21 -31.5t-31.5 -21t-39 -7.5zM372 867q0 17 -10.5 28t-27.5 11t-28 -11t-11 -28t11 -27.5t28 -10.5t27.5 10.5t10.5 27.5zM469 680q0 20 21 20h97
q20 0 20 -20v-391q0 -84 -21 -140.5t-57.5 -91t-85.5 -49t-104 -14.5q-56 0 -105.5 14.5t-86.5 49t-58.5 91t-21.5 140.5l1 391q0 20 20 20h98q20 0 20 -20v-401q0 -74 31 -118.5t102 -44.5q70 0 100 44.5t30 118.5v401z" />
    <glyph glyph-name="uring" unicode="&#x16f;" horiz-adv-x="560" 
d="M262 550q-21 0 -39.5 7.5t-32 21t-21 31.5t-7.5 39q0 43 29 71.5t71 28.5t70.5 -28.5t28.5 -71.5q0 -21 -7.5 -39t-21 -31.5t-31.5 -21t-39 -7.5zM300 649q0 17 -10.5 28t-27.5 11t-28 -11t-11 -28t11 -27.5t28 -10.5t27.5 10.5t10.5 27.5zM523 24q0 -10 -10.5 -19.5
t-46.5 -9.5q-45 0 -68.5 20t-30.5 58v3q-7 -14 -19 -28.5t-31 -26.5t-45.5 -19.5t-61.5 -7.5q-42 0 -71 12.5t-47 35.5t-26.5 55t-8.5 71v293q0 21 20 21h90q21 0 21 -21v-264q0 -48 19 -68t49 -20t48.5 13.5t29 30.5t14.5 34t4 25v249q0 21 20 21h91q20 0 20 -21v-318
q0 -35 25 -42q6 -2 10.5 -5.5t4.5 -16.5v-55z" />
    <glyph glyph-name="Uhungarumlaut" unicode="&#x170;" horiz-adv-x="674" 
d="M469 680q0 20 21 20h97q20 0 20 -20v-391q0 -84 -21 -140.5t-57.5 -91t-85.5 -49t-104 -14.5q-56 0 -105.5 14.5t-86.5 49t-58.5 91t-21.5 140.5l1 391q0 20 20 20h98q20 0 20 -20v-401q0 -74 31 -118.5t102 -44.5q70 0 100 44.5t30 118.5v401zM378 775q-8 0 -11 5t0 12
l68 158q3 8 8 13t15 5h119q8 0 12 -4.5t-1 -12.5l-102 -155q-5 -9 -11 -15t-18 -6h-79zM184 775q-8 0 -11 5t-1 12l68 158q4 8 9 13t14 5h120q8 0 11.5 -4.5t-1.5 -12.5l-101 -155q-5 -9 -11 -15t-18 -6h-79z" />
    <glyph glyph-name="uhungarumlaut" unicode="&#x171;" horiz-adv-x="560" 
d="M523 24q0 -10 -10.5 -19.5t-46.5 -9.5q-45 0 -68.5 20t-30.5 58v3q-7 -14 -19 -28.5t-31 -26.5t-45.5 -19.5t-61.5 -7.5q-42 0 -71 12.5t-47 35.5t-26.5 55t-8.5 71v293q0 21 20 21h90q21 0 21 -21v-264q0 -48 19 -68t49 -20t48.5 13.5t29 30.5t14.5 34t4 25v249
q0 21 20 21h91q20 0 20 -21v-318q0 -35 25 -42q6 -2 10.5 -5.5t4.5 -16.5v-55zM321 557q-8 0 -11 5t0 12l68 158q3 8 8 13t15 5h119q8 0 12 -4.5t-1 -12.5l-102 -155q-5 -9 -11 -15t-18 -6h-79zM127 557q-8 0 -11 5t-1 12l68 158q4 8 9 13t14 5h120q8 0 11.5 -4.5
t-1.5 -12.5l-101 -155q-5 -9 -11 -15t-18 -6h-79z" />
    <glyph glyph-name="Uogonek" unicode="&#x172;" horiz-adv-x="674" 
d="M607 289q0 -74 -16.5 -126.5t-46 -87t-69.5 -53t-86 -24.5q-8 -3 -18 -9t-19.5 -15t-16 -21.5t-6.5 -28.5q0 -17 10.5 -28t30.5 -11q24 0 43 19q7 7 12 -1l19 -37q5 -9 -2 -16q-14 -13 -35.5 -23t-49.5 -10q-19 0 -37 5t-31.5 15.5t-22 26.5t-8.5 39q0 31 11.5 53.5
t28.5 39.5q-49 4 -91 22t-73 53t-48.5 88.5t-17.5 129.5v391q0 20 21 20h98q19 0 19 -20v-401q0 -74 31 -118.5t102 -44.5q70 0 100 44.5t30 118.5v401q0 20 21 20h97q20 0 20 -20v-391v0z" />
    <glyph glyph-name="uogonek" unicode="&#x173;" horiz-adv-x="560" 
d="M550 -135q2 -5 2.5 -8t-4.5 -8q-8 -8 -29.5 -20.5t-55.5 -12.5q-19 0 -37 5t-31.5 15.5t-22 26.5t-8.5 39q0 35 15.5 60t35.5 42q-39 16 -48 69v3q-7 -14 -19 -28.5t-31 -26.5t-45.5 -19.5t-61.5 -7.5q-42 0 -71 12.5t-47 35.5t-26.5 55t-8.5 71v293q0 21 20 21h90
q21 0 21 -21v-264q0 -48 19 -68t49 -20t48.5 13.5t29 30.5t14.5 34t4 25v249q0 21 20 21h91q20 0 20 -21v-318q0 -35 25 -42q6 -2 10.5 -5.5t4.5 -16.5v-55q0 -11 -8.5 -17t-17.5 -9q-8 -3 -18.5 -9t-20 -15.5t-16.5 -22t-7 -27.5q0 -17 10.5 -28.5t30.5 -11.5
q16 0 25.5 6.5t16.5 12.5q4 4 7 3t5 -4z" />
    <glyph glyph-name="Wcircumflex" unicode="&#x174;" horiz-adv-x="1018" 
d="M373 756q-11 0 -15 7.5t0 15.5l70 150q8 20 25 20h109q10 0 15.5 -5.5t10.5 -14.5l69 -150q4 -8 0.5 -15.5t-15.5 -7.5h-72q-16 0 -23 16l-40 82l-39 -82q-7 -16 -23 -16h-72zM715 157l125 521q2 9 6.5 15.5t16.5 6.5h118q11 0 13.5 -7.5t-0.5 -16.5l-181 -633
q-8 -26 -20 -34.5t-33 -8.5h-79q-20 0 -32.5 8.5t-20.5 34.5l-118 424l-121 -424q-7 -26 -19 -34.5t-34 -8.5h-79q-20 0 -32 8.5t-20 34.5l-182 632q-3 10 1 17.5t15 7.5h122q11 0 15.5 -6.5t6.5 -15.5l120 -521l144 518q2 11 8 18t16 7h83q9 0 14.5 -7t7.5 -18z" />
    <glyph glyph-name="wcircumflex" unicode="&#x175;" horiz-adv-x="807" 
d="M257 538q-11 0 -15 7.5t0 15.5l70 150q8 20 25 20h109q10 0 15.5 -5.5t10.5 -14.5l69 -150q4 -8 0.5 -15.5t-15.5 -7.5h-72q-16 0 -23 16l-40 82l-39 -82q-7 -16 -23 -16h-72zM527 0q-21 0 -30 9t-17 33l-71 240l-79 -240q-8 -24 -19.5 -33t-31.5 -9h-64q-22 0 -31 9
t-17 33l-140 415q-4 10 0.5 17.5t14.5 7.5h101q12 0 15 -6.5t6 -15.5l85 -310l95 305q3 11 8 18t14 7h94q9 0 13 -7.5t7 -17.5l80 -305l84 311q3 8 7 14.5t16 6.5h95q11 0 16 -7.5t2 -16.5l-139 -417q-8 -23 -19 -32t-32 -9h-63z" />
    <glyph glyph-name="Ycircumflex" unicode="&#x176;" horiz-adv-x="665" 
d="M282 0q-20 0 -20 20v273l-240 383q-6 9 -1.5 16.5t16.5 7.5h119q8 0 12 -4t9 -13l156 -273l155 273q5 9 9 13t12 4h119q13 0 17 -7.5t-1 -16.5l-240 -383v-273q0 -20 -20 -20h-102zM196 756q-11 0 -15 7.5t0 15.5l70 150q8 20 25 20h109q10 0 15.5 -5.5t10.5 -14.5
l69 -150q4 -8 0.5 -15.5t-15.5 -7.5h-72q-16 0 -23 16l-40 82l-39 -82q-7 -16 -23 -16h-72z" />
    <glyph glyph-name="ycircumflex" unicode="&#x177;" horiz-adv-x="536" 
d="M295 -101q-12 -31 -28.5 -57.5t-40 -46t-53.5 -31t-69 -11.5q-25 0 -42 3.5t-29 8.5q-9 3 -12 10.5t-1 15.5l10 60q5 19 18 18q7 -1 19.5 -3t27.5 -2q38 0 57.5 22.5t30.5 52.5l23 61l-182 456q-5 11 -1.5 18.5t16.5 7.5h92q11 0 19 -7.5t11 -15.5l111 -303l101 304
q3 8 11.5 15t19.5 7h89q14 0 17 -7.5t-2 -18.5zM127 538q-11 0 -15 7.5t0 15.5l70 150q8 20 25 20h109q10 0 15.5 -5.5t10.5 -14.5l69 -150q4 -8 0.5 -15.5t-15.5 -7.5h-72q-16 0 -23 16l-40 82l-39 -82q-7 -16 -23 -16h-72z" />
    <glyph glyph-name="Ydieresis" unicode="&#x178;" horiz-adv-x="665" 
d="M282 0q-20 0 -20 20v273l-240 383q-6 9 -1.5 16.5t16.5 7.5h119q8 0 12 -4t9 -13l156 -273l155 273q5 9 9 13t12 4h119q13 0 17 -7.5t-1 -16.5l-240 -383v-273q0 -20 -20 -20h-102zM232 789q-29 0 -48.5 19t-19.5 48q0 27 19.5 47t48.5 20q27 0 46.5 -20t19.5 -47
q0 -29 -19.5 -48t-46.5 -19zM435 789q-28 0 -48 19t-20 48q0 27 20 47t48 20t47.5 -20t19.5 -47q0 -29 -19.5 -48t-47.5 -19z" />
    <glyph glyph-name="Zacute" unicode="&#x179;" horiz-adv-x="612" 
d="M230 775q-8 0 -11 5t-1 12l68 158q4 8 9 13t14 5h119q8 0 12 -4.5t-1 -12.5l-101 -155q-6 -9 -11.5 -15t-17.5 -6h-79zM61 0q-21 0 -21 20v72q0 11 5 21t14 23l345 452h-343q-21 0 -21 21v71q0 20 21 20h491q20 0 20 -20v-66q0 -17 -4.5 -27t-12.5 -21l-342 -454h339
q20 0 20 -21v-71q0 -20 -21 -20h-490z" />
    <glyph glyph-name="zacute" unicode="&#x17a;" horiz-adv-x="481" 
d="M208 557q-8 0 -11 5t-1 12l68 158q4 8 9 13t14 5h119q8 0 12 -4.5t-1 -12.5l-101 -155q-6 -9 -11.5 -15t-17.5 -6h-79zM61 0q-21 0 -21 20v62q0 15 8 26.5t22 25.5l218 245h-227q-21 0 -21 20v63q0 20 21 20h360q20 0 20 -20v-57q0 -20 -8.5 -32t-24.5 -29l-208 -241h221
q20 0 20 -20v-63q0 -20 -21 -20h-359z" />
    <glyph glyph-name="Zdotaccent" unicode="&#x17b;" horiz-adv-x="612" 
d="M61 0q-21 0 -21 20v72q0 11 5 21t14 23l345 452h-343q-21 0 -21 21v71q0 20 21 20h491q20 0 20 -20v-66q0 -17 -4.5 -27t-12.5 -21l-342 -454h339q20 0 20 -21v-71q0 -20 -21 -20h-490zM325 803q-28 0 -47.5 19t-19.5 48q0 28 19.5 47.5t47.5 19.5t47.5 -19.5t19.5 -47.5
q0 -29 -19.5 -48t-47.5 -19z" />
    <glyph glyph-name="zdotaccent" unicode="&#x17c;" horiz-adv-x="481" 
d="M61 0q-21 0 -21 20v62q0 15 8 26.5t22 25.5l218 245h-227q-21 0 -21 20v63q0 20 21 20h360q20 0 20 -20v-57q0 -20 -8.5 -32t-24.5 -29l-208 -241h221q20 0 20 -20v-63q0 -20 -21 -20h-359zM297 585q-28 0 -47.5 19t-19.5 48q0 28 19.5 47.5t47.5 19.5t47.5 -19.5
t19.5 -47.5q0 -29 -19.5 -48t-47.5 -19z" />
    <glyph glyph-name="Zcaron" unicode="&#x17d;" horiz-adv-x="612" 
d="M253 968q11 0 16.5 -8.5t8.5 -14.5l36 -75l37 75q3 6 8.5 14.5t16.5 8.5h73q12 0 15 -7.5t-1 -15.5l-68 -150q-5 -9 -10.5 -14.5t-15.5 -5.5h-109q-17 0 -25 20l-70 150q-4 8 0 15.5t15 7.5h73zM61 0q-21 0 -21 20v72q0 11 5 21t14 23l345 452h-343q-21 0 -21 21v71
q0 20 21 20h491q20 0 20 -20v-66q0 -17 -4.5 -27t-12.5 -21l-342 -454h339q20 0 20 -21v-71q0 -20 -21 -20h-490z" />
    <glyph glyph-name="zcaron" unicode="&#x17e;" horiz-adv-x="481" 
d="M199 750q11 0 16.5 -8.5t8.5 -14.5l36 -75l37 75q3 6 8.5 14.5t16.5 8.5h73q12 0 15 -7.5t-1 -15.5l-68 -150q-5 -9 -10.5 -14.5t-15.5 -5.5h-109q-17 0 -25 20l-70 150q-4 8 0 15.5t15 7.5h73zM61 0q-21 0 -21 20v62q0 15 8 26.5t22 25.5l218 245h-227q-21 0 -21 20v63
q0 20 21 20h360q20 0 20 -20v-57q0 -20 -8.5 -32t-24.5 -29l-208 -241h221q20 0 20 -20v-63q0 -20 -21 -20h-359z" />
    <glyph glyph-name="longs" unicode="&#x17f;" horiz-adv-x="308" 
d="M47 379q-20 0 -20 20v62q0 21 21 21h49v47q0 45 11 82t34.5 63.5t59 41.5t85.5 15q42 0 69 -11.5t41 -20.5q14 -10 6 -29l-28 -65q-4 -8 -8.5 -8t-9.5 3q-8 5 -21.5 10.5t-34.5 5.5q-37 0 -55 -24t-18 -69v-502q0 -21 -20 -21h-90q-21 0 -21 21v358h-50z" />
    <glyph glyph-name="florin" unicode="&#x192;" horiz-adv-x="440" 
d="M60 379q-20 0 -20 20v62q0 21 21 21h49v47q0 45 11 82t34.5 63.5t59 41.5t85.5 15q42 0 69 -11.5t41 -20.5q14 -10 6 -29l-28 -65q-4 -8 -8.5 -8t-9.5 3q-8 5 -21.5 10.5t-34.5 5.5q-37 0 -55 -24t-18 -69v-41h133q20 0 20 -21v-62q0 -20 -20 -20h-133v-425
q0 -45 -11 -82t-34 -63.5t-59 -41t-86 -14.5q-42 0 -69 11t-41 21q-13 8 -6 27l28 65q5 14 18 7q8 -5 22 -11t34 -6q37 0 55 24.5t18 68.5v419h-50z" />
    <glyph glyph-name="AEacute" unicode="&#x1fc;" horiz-adv-x="863" 
d="M424 775q-8 0 -11 5t-1 12l68 158q4 8 9 13t14 5h119q8 0 12 -4.5t-1 -12.5l-101 -155q-6 -9 -11.5 -15t-17.5 -6h-79zM249 280h176l-89 254zM460 175h-248l-52 -153q-2 -8 -6.5 -15t-15.5 -7h-104q-11 0 -16 7.5t-1 16.5l233 633q8 23 19.5 33t31.5 10h501q20 0 20 -20
v-71q0 -21 -20 -21h-354l70 -191h216q20 0 20 -20v-70q0 -20 -20 -20h-176l65 -175h179q20 0 20 -21v-71q0 -20 -20 -20h-266q-12 0 -16 7t-7 16z" />
    <glyph glyph-name="aeacute" unicode="&#x1fd;" horiz-adv-x="798" 
d="M347 557q-8 0 -11 5t-1 12l68 158q4 8 9 13t14 5h119q8 0 12 -4.5t-1 -12.5l-101 -155q-6 -9 -11.5 -15t-17.5 -6h-79zM459 224v-7q1 -30 12.5 -51t29 -34.5t37.5 -19.5t39 -6q24 0 42.5 5.5t32 13t21.5 14.5t11 11q6 6 10.5 7.5t9.5 -4.5l46 -47q12 -13 5 -23
q-8 -11 -23 -26t-39 -29t-57.5 -24t-76.5 -10q-44 0 -78 11t-58 27.5t-39.5 34.5t-22.5 32q-4 -8 -14.5 -25.5t-30 -35t-50.5 -31t-77 -13.5q-75 0 -116 36t-41 93q0 64 44 99t145 35h106v58q0 39 -19.5 56.5t-54.5 17.5t-54 -16t-19 -44q0 -7 1 -12t2 -9q0 -6 -4 -9t-17 -3
h-72q-20 0 -25 16.5t-5 37.5q0 61 49.5 99.5t147.5 38.5q54 0 90.5 -13t60.5 -36q27 23 64.5 36t85.5 13q104 0 151 -60t47 -172q0 -19 -5.5 -25.5t-19.5 -6.5h-272zM327 188h-94q-35 0 -52 -12.5t-17 -35.5t17 -35t44 -12q30 0 50 12t31 26q13 17 21 38v19zM632 297
q0 37 -19.5 60t-61.5 23q-35 0 -58 -19.5t-31 -63.5h170z" />
    <glyph glyph-name="Oslashacute" unicode="&#x1fe;" horiz-adv-x="708" 
d="M319 775q-8 0 -11 5t-1 12l68 158q4 8 9 13t14 5h119q8 0 12 -4.5t-1 -12.5l-101 -155q-6 -9 -11.5 -15t-17.5 -6h-79zM354 -6q-82 0 -148 33l-18 -28q-5 -8 -10 -11.5t-13 -3.5h-95q-9 0 -12.5 4.5t1.5 13.5l61 94q-37 44 -58 106.5t-21 146.5q0 91 24.5 158t67.5 111
t99.5 66t121.5 22q78 0 144 -32l19 28q9 14 20 14h96q8 0 12 -5.5t0 -11.5l-61 -93q38 -45 60 -108.5t22 -148.5q0 -91 -25 -157.5t-67.5 -110.5t-99 -65.5t-120.5 -21.5zM354 113q34 0 64.5 12.5t54 40.5t37 73t13.5 110q0 42 -5.5 75.5t-16.5 59.5l-229 -351
q36 -20 82 -20zM184 349q0 -82 21 -134l229 350q-18 11 -38.5 15.5t-41.5 4.5q-34 0 -65 -12.5t-54 -40t-37 -72.5t-14 -111z" />
    <glyph glyph-name="oslashacute" unicode="&#x1ff;" horiz-adv-x="525" 
d="M202 557q-8 0 -11 5t-1 12l68 158q4 8 9 13t14 5h119q8 0 12 -4.5t-1 -12.5l-101 -155q-6 -9 -11.5 -15t-17.5 -6h-79zM262 -6q-57 0 -102 20l-13 -20q-8 -14 -27 -14h-46q-8 0 -12 4t1 11l39 60q-64 67 -64 187q0 55 15 100.5t43.5 77.5t70.5 50t95 18q30 0 57 -6.5
t50 -17.5l17 26q8 14 28 14h44q8 0 12 -4.5t-1 -10.5l-43 -67q29 -32 45 -78t16 -102t-15 -101.5t-44 -78t-70.5 -50.5t-95.5 -18zM167 241q0 -43 10 -72l127 196q-18 9 -42 9q-49 0 -72 -35t-23 -98zM262 108q51 0 73 35t22 98q0 35 -8 65l-124 -192q16 -6 37 -6z" />
    <glyph glyph-name="Scommaaccent" unicode="&#x218;" horiz-adv-x="611" 
d="M233 -117q0 32 22.5 55t54.5 23q33 0 58.5 -22t25.5 -67q0 -43 -12 -73t-28.5 -50.5t-34.5 -31.5t-29 -17q-11 -5 -17 6l-22 35q-7 11 5 16l15 7.5t17.5 10.5t15 14t6.5 17q-32 0 -54.5 22.5t-22.5 54.5zM490 519q-11 -7 -17.5 -6t-10.5 6q-6 8 -17 20.5t-29 23.5
t-43.5 19t-58.5 8q-56 1 -85.5 -23t-29.5 -59q0 -38 28 -57t69.5 -31.5t90 -24t90 -33.5t69.5 -61t28 -106q0 -38 -15 -74t-46.5 -64.5t-81 -45.5t-119.5 -17q-67 0 -115.5 15t-81.5 36t-52.5 43t-27.5 36q-5 7 -3.5 15t8.5 13l53 49q6 7 14 8t14 -7q9 -11 25 -27t40 -31
t55.5 -25.5t70.5 -10.5q56 0 87 22t31 61q0 41 -28 61.5t-70 33t-91.5 23t-91.5 32t-70 60t-28 106.5q0 40 16.5 76t49 63.5t79.5 43.5t108 16q62 0 106.5 -13t74.5 -32t47.5 -39t25.5 -34q3 -5 3 -12t-11 -15z" />
    <glyph glyph-name="scommaaccent" unicode="&#x219;" horiz-adv-x="493" 
d="M181 -117q0 32 22.5 55t54.5 23q33 0 58.5 -22t25.5 -67q0 -43 -12 -73t-28.5 -50.5t-34.5 -31.5t-29 -17q-11 -5 -17 6l-22 35q-7 11 5 16l15 7.5t17.5 10.5t15 14t6.5 17q-32 0 -54.5 22.5t-22.5 54.5zM350 304q-21 0 -21 12q1 5 1.5 10t0.5 13q0 22 -17.5 36t-59.5 14
q-37 0 -56 -13.5t-19 -37.5q0 -25 20.5 -36.5t51.5 -18.5t66.5 -13t66.5 -19.5t51.5 -38t20.5 -68.5q0 -69 -51 -109.5t-158 -40.5q-50 0 -86.5 9.5t-62 22.5t-41.5 27.5t-24 25.5q-3 5 -4.5 12.5t6.5 15.5l48 47q8 8 13 8t10 -4q7 -8 19.5 -19t29 -21t38 -16.5t48.5 -6.5
q40 0 57 11.5t17 31.5t-20 29.5t-49.5 16t-64 14t-64 23t-49.5 42t-20 72.5q0 29 11 56.5t35 49t63 34.5t95 13q57 0 94.5 -11.5t60.5 -31t32.5 -44.5t9.5 -51q0 -24 -7 -35t-23 -11h-69z" />
    <glyph glyph-name="uni021A" unicode="&#x21a;" horiz-adv-x="633" 
d="M233 -117q0 32 22.5 55t54.5 23q33 0 58.5 -22t25.5 -67q0 -43 -12 -73t-28.5 -50.5t-34.5 -31.5t-29 -17q-11 -5 -17 6l-22 35q-7 11 5 16l15 7.5t17.5 10.5t15 14t6.5 17q-32 0 -54.5 22.5t-22.5 54.5zM600 700q20 0 20 -20v-71q0 -21 -21 -21h-209v-568q0 -20 -20 -20
h-98q-20 0 -20 20v568h-219q-21 0 -21 21v71q0 20 21 20h567z" />
    <glyph glyph-name="uni021B" unicode="&#x21b;" horiz-adv-x="435" 
d="M144 -117q0 32 22.5 55t54.5 23q33 0 58.5 -22t25.5 -67q0 -43 -12 -73t-28.5 -50.5t-34.5 -31.5t-29 -17q-11 -5 -17 6l-22 35q-7 11 5 16l15 7.5t17.5 10.5t15 14t6.5 17q-32 0 -54.5 22.5t-22.5 54.5zM375 482q21 0 21 -20v-62q0 -21 -21 -21h-145v-168
q0 -52 18.5 -77t59.5 -25q21 0 37 6.5t25 12.5q5 2 10 2.5t9 -7.5l27 -64q4 -11 1.5 -16.5t-7.5 -9.5q-15 -11 -44.5 -25t-71.5 -14q-106 0 -150.5 55t-44.5 156v174h-52q-21 0 -21 21v62q0 20 21 20h52v130q0 21 20 21h90q21 0 21 -22v-129h145z" />
    <glyph glyph-name="circumflex" unicode="&#x2c6;" horiz-adv-x="381" 
d="M54 538q-11 0 -15 7.5t0 15.5l70 150q8 20 25 20h109q10 0 15.5 -5.5t10.5 -14.5l69 -150q4 -8 0.5 -15.5t-15.5 -7.5h-72q-16 0 -23 16l-40 82l-39 -82q-7 -16 -23 -16h-72z" />
    <glyph glyph-name="caron" unicode="&#x2c7;" horiz-adv-x="359" 
d="M117 750q11 0 16.5 -8.5t8.5 -14.5l36 -75l37 75q3 6 8.5 14.5t16.5 8.5h73q12 0 15 -7.5t-1 -15.5l-68 -150q-5 -9 -10.5 -14.5t-15.5 -5.5h-109q-17 0 -25 20l-70 150q-4 8 0 15.5t15 7.5h73z" />
    <glyph glyph-name="breve" unicode="&#x2d8;" horiz-adv-x="352" 
d="M306 704q16 0 16 -17q0 -28 -9.5 -52t-27.5 -42t-45 -28t-63 -10q-38 0 -65.5 10.5t-45.5 28.5t-27 42t-9 51q0 7 3.5 12t11.5 5h65q16 0 16 -13q1 -17 11 -33t40 -16q47 0 49 49q0 13 15 13h65z" />
    <glyph glyph-name="dotaccent" unicode="&#x2d9;" horiz-adv-x="200" 
d="M100 585q-28 0 -47.5 19t-19.5 48q0 28 19.5 47.5t47.5 19.5t47.5 -19.5t19.5 -47.5q0 -29 -19.5 -48t-47.5 -19z" />
    <glyph glyph-name="ring" unicode="&#x2da;" horiz-adv-x="282" 
d="M141 550q-21 0 -39.5 7.5t-32 21t-21 31.5t-7.5 39q0 43 29 71.5t71 28.5t70.5 -28.5t28.5 -71.5q0 -21 -7.5 -39t-21 -31.5t-31.5 -21t-39 -7.5zM179 649q0 17 -10.5 28t-27.5 11t-28 -11t-11 -28t11 -27.5t28 -10.5t27.5 10.5t10.5 27.5z" />
    <glyph glyph-name="ogonek" unicode="&#x2db;" horiz-adv-x="281" 
d="M45 -97q0 35 15 60t35 42t40.5 26.5t31.5 12.5q11 4 12 -5l8 -30q1 -5 -1.5 -7t-7.5 -4q-8 -3 -18.5 -9t-20 -15t-16.5 -21.5t-7 -28.5q0 -17 10.5 -28t30.5 -11q16 0 25.5 6t17.5 13q7 6 12 -3l19 -36q5 -9 -2 -16q-9 -8 -30 -20t-55 -12q-19 0 -37 5t-31.5 15.5
t-22 26.5t-8.5 39z" />
    <glyph glyph-name="tilde" unicode="&#x2dc;" horiz-adv-x="438" 
d="M63 546q-14 0 -17 7q-5 11 -8 23t-3 29q0 38 23.5 66t72.5 28q25 0 47 -6.5t42 -14t38 -13.5t34 -6q11 0 16.5 6.5t5.5 16.5q0 11 -2.5 20t-4.5 15q-2 9 12 9h55q16 0 19 -9q3 -8 6 -20.5t3 -29.5q0 -38 -22.5 -67t-70.5 -29q-29 0 -52 6.5t-42 14t-35 14t-29 6.5
q-12 0 -19.5 -7.5t-7.5 -22.5q0 -8 2.5 -15.5t4.5 -12.5q2 -8 -9 -8h-59z" />
    <glyph glyph-name="hungarumlaut" unicode="&#x2dd;" horiz-adv-x="456" 
d="M239 557q-8 0 -11 5t0 12l68 158q3 8 8 13t15 5h119q8 0 12 -4.5t-1 -12.5l-102 -155q-5 -9 -11 -15t-18 -6h-79zM45 557q-8 0 -11 5t-1 12l68 158q4 8 9 13t14 5h120q8 0 11.5 -4.5t-1.5 -12.5l-101 -155q-5 -9 -11 -15t-18 -6h-79z" />
    <glyph glyph-name="pi" unicode="&#x3c0;" horiz-adv-x="607" 
d="M558 482q21 0 21 -20v-70q0 -20 -21 -20h-49v-352q0 -20 -20 -20h-81q-20 0 -20 20v352h-162v-258q0 -62 -28.5 -90.5t-84.5 -28.5q-33 0 -40.5 9t-7.5 20v58q0 11 4.5 15t9.5 6q11 3 18.5 12t7.5 29v228h-54q-20 0 -20 20v70q0 20 21 20h506z" />
    <glyph glyph-name="Wgrave" unicode="&#x1e80;" horiz-adv-x="1018" 
d="M715 157l125 521q2 9 6.5 15.5t16.5 6.5h118q11 0 13.5 -7.5t-0.5 -16.5l-181 -633q-8 -26 -20 -34.5t-33 -8.5h-79q-20 0 -32.5 8.5t-20.5 34.5l-118 424l-121 -424q-7 -26 -19 -34.5t-34 -8.5h-79q-20 0 -32 8.5t-20 34.5l-182 632q-3 10 1 17.5t15 7.5h122
q11 0 15.5 -6.5t6.5 -15.5l120 -521l144 518q2 11 8 18t16 7h83q9 0 14.5 -7t7.5 -18zM459 774q-12 0 -17.5 6t-11.5 15l-101 155q-5 8 -1.5 12.5t11.5 4.5h120q9 0 14 -5t9 -13l68 -158q3 -7 -0.5 -12t-11.5 -5h-79z" />
    <glyph glyph-name="wgrave" unicode="&#x1e81;" horiz-adv-x="807" 
d="M527 0q-21 0 -30 9t-17 33l-71 240l-79 -240q-8 -24 -19.5 -33t-31.5 -9h-64q-22 0 -31 9t-17 33l-140 415q-4 10 0.5 17.5t14.5 7.5h101q12 0 15 -6.5t6 -15.5l85 -310l95 305q3 11 8 18t14 7h94q9 0 13 -7.5t7 -17.5l80 -305l84 311q3 8 7 14.5t16 6.5h95q11 0 16 -7.5
t2 -16.5l-139 -417q-8 -23 -19 -32t-32 -9h-63zM358 557q-12 0 -17.5 6t-11.5 15l-101 155q-5 8 -1.5 12.5t11.5 4.5h120q9 0 14 -5t9 -13l68 -158q3 -7 -0.5 -12t-11.5 -5h-79z" />
    <glyph glyph-name="Wacute" unicode="&#x1e82;" horiz-adv-x="1018" 
d="M476 775q-8 0 -11 5t-1 12l68 158q4 8 9 13t14 5h119q8 0 12 -4.5t-1 -12.5l-101 -155q-6 -9 -11.5 -15t-17.5 -6h-79zM715 157l125 521q2 9 6.5 15.5t16.5 6.5h118q11 0 13.5 -7.5t-0.5 -16.5l-181 -633q-8 -26 -20 -34.5t-33 -8.5h-79q-20 0 -32.5 8.5t-20.5 34.5
l-118 424l-121 -424q-7 -26 -19 -34.5t-34 -8.5h-79q-20 0 -32 8.5t-20 34.5l-182 632q-3 10 1 17.5t15 7.5h122q11 0 15.5 -6.5t6.5 -15.5l120 -521l144 518q2 11 8 18t16 7h83q9 0 14.5 -7t7.5 -18z" />
    <glyph glyph-name="wacute" unicode="&#x1e83;" horiz-adv-x="807" 
d="M379 557q-8 0 -11 5t-1 12l68 158q4 8 9 13t14 5h119q8 0 12 -4.5t-1 -12.5l-101 -155q-6 -9 -11.5 -15t-17.5 -6h-79zM527 0q-21 0 -30 9t-17 33l-71 240l-79 -240q-8 -24 -19.5 -33t-31.5 -9h-64q-22 0 -31 9t-17 33l-140 415q-4 10 0.5 17.5t14.5 7.5h101
q12 0 15 -6.5t6 -15.5l85 -310l95 305q3 11 8 18t14 7h94q9 0 13 -7.5t7 -17.5l80 -305l84 311q3 8 7 14.5t16 6.5h95q11 0 16 -7.5t2 -16.5l-139 -417q-8 -23 -19 -32t-32 -9h-63z" />
    <glyph glyph-name="Wdieresis" unicode="&#x1e84;" horiz-adv-x="1018" 
d="M415 789q-29 0 -48.5 19t-19.5 48q0 27 19.5 47t48.5 20q27 0 46.5 -20t19.5 -47q0 -29 -19.5 -48t-46.5 -19zM618 789q-28 0 -48 19t-20 48q0 27 20 47t48 20t47.5 -20t19.5 -47q0 -29 -19.5 -48t-47.5 -19zM715 157l125 521q2 9 6.5 15.5t16.5 6.5h118q11 0 13.5 -7.5
t-0.5 -16.5l-181 -633q-8 -26 -20 -34.5t-33 -8.5h-79q-20 0 -32.5 8.5t-20.5 34.5l-118 424l-121 -424q-7 -26 -19 -34.5t-34 -8.5h-79q-20 0 -32 8.5t-20 34.5l-182 632q-3 10 1 17.5t15 7.5h122q11 0 15.5 -6.5t6.5 -15.5l120 -521l144 518q2 11 8 18t16 7h83
q9 0 14.5 -7t7.5 -18z" />
    <glyph glyph-name="wdieresis" unicode="&#x1e85;" horiz-adv-x="807" 
d="M314 571q-29 0 -48.5 19t-19.5 48q0 27 19.5 47t48.5 20q27 0 46.5 -20t19.5 -47q0 -29 -19.5 -48t-46.5 -19zM517 571q-28 0 -48 19t-20 48q0 27 20 47t48 20t47.5 -20t19.5 -47q0 -29 -19.5 -48t-47.5 -19zM527 0q-21 0 -30 9t-17 33l-71 240l-79 -240
q-8 -24 -19.5 -33t-31.5 -9h-64q-22 0 -31 9t-17 33l-140 415q-4 10 0.5 17.5t14.5 7.5h101q12 0 15 -6.5t6 -15.5l85 -310l95 305q3 11 8 18t14 7h94q9 0 13 -7.5t7 -17.5l80 -305l84 311q3 8 7 14.5t16 6.5h95q11 0 16 -7.5t2 -16.5l-139 -417q-8 -23 -19 -32t-32 -9h-63z
" />
    <glyph glyph-name="Ygrave" unicode="&#x1ef2;" horiz-adv-x="665" 
d="M282 0q-20 0 -20 20v273l-240 383q-6 9 -1.5 16.5t16.5 7.5h119q8 0 12 -4t9 -13l156 -273l155 273q5 9 9 13t12 4h119q13 0 17 -7.5t-1 -16.5l-240 -383v-273q0 -20 -20 -20h-102z" />
    <glyph glyph-name="ygrave" unicode="&#x1ef3;" horiz-adv-x="536" 
d="M295 -101q-12 -31 -28.5 -57.5t-40 -46t-53.5 -31t-69 -11.5q-25 0 -42 3.5t-29 8.5q-9 3 -12 10.5t-1 15.5l10 60q5 19 18 18q7 -1 19.5 -3t27.5 -2q38 0 57.5 22.5t30.5 52.5l23 61l-182 456q-5 11 -1.5 18.5t16.5 7.5h92q11 0 19 -7.5t11 -15.5l111 -303l101 304
q3 8 11.5 15t19.5 7h89q14 0 17 -7.5t-2 -18.5zM236 557q-12 0 -17.5 6t-11.5 15l-101 155q-5 8 -1.5 12.5t11.5 4.5h120q9 0 14 -5t9 -13l68 -158q3 -7 -0.5 -12t-11.5 -5h-79z" />
    <glyph glyph-name="endash" unicode="&#x2013;" horiz-adv-x="560" 
d="M480 319q20 0 20 -20v-54q0 -20 -21 -20h-399q-20 0 -20 20v54q0 20 21 20h399z" />
    <glyph glyph-name="emdash" unicode="&#x2014;" horiz-adv-x="894" 
d="M814 319q20 0 20 -20v-54q0 -20 -21 -20h-733q-20 0 -20 20v54q0 20 21 20h733z" />
    <glyph glyph-name="quoteleft" unicode="&#x2018;" horiz-adv-x="200" 
d="M179 721q0 -32 -22.5 -55t-54.5 -23q-33 0 -59 22.5t-26 67.5q0 52 13.5 88.5t31.5 60t36 35.5t27 17q7 5 12 -3l27 -42q4 -5 -2 -11q-6 -4 -16 -11.5t-19.5 -18t-17 -23t-7.5 -27.5q32 0 54.5 -22.5t22.5 -54.5z" />
    <glyph glyph-name="quoteright" unicode="&#x2019;" horiz-adv-x="249" 
d="M46 640q0 32 22.5 55.5t55.5 23.5t58.5 -23t25.5 -68q0 -52 -13.5 -88t-31 -59.5t-35.5 -36t-27 -17.5q-8 -3 -12 3l-27 42q-5 8 2 11q6 4 16 11.5t19.5 18t17 23t7.5 27.5q-32 0 -55 22.5t-23 54.5z" />
    <glyph glyph-name="quotesinglbase" unicode="&#x201a;" horiz-adv-x="262" 
d="M49 71q0 32 22.5 55t55.5 23t58.5 -22.5t25.5 -67.5q0 -52 -13 -88.5t-31 -60t-35.5 -36t-26.5 -16.5q-8 -5 -14 4l-26 41q-5 6 2 11q6 4 16 11.5t19.5 18t17 23t7.5 27.5q-32 0 -55 22.5t-23 54.5z" />
    <glyph glyph-name="quotedblleft" unicode="&#x201c;" horiz-adv-x="400" 
d="M379 722q0 -32 -23 -55.5t-55 -23.5q-33 0 -58.5 23t-25.5 68q0 52 13.5 88t31 59.5t35.5 36t27 17.5q8 3 12 -3l27 -42q5 -8 -2 -11q-6 -4 -16 -11.5t-19.5 -18t-17 -23t-7.5 -27.5q32 0 55 -22.5t23 -54.5zM181 722q0 -32 -22.5 -55.5t-54.5 -23.5q-33 0 -58.5 23
t-25.5 68q0 52 13 88t31 59.5t36 36t27 17.5q7 3 12 -3l27 -42q4 -7 -2 -11t-16 -11.5t-19.5 -18t-17 -23t-7.5 -27.5q32 0 54.5 -22.5t22.5 -54.5z" />
    <glyph glyph-name="quotedblright" unicode="&#x201d;" horiz-adv-x="449" 
d="M45 639q0 32 22.5 55t55.5 23t58.5 -22.5t25.5 -67.5q0 -52 -13.5 -88.5t-31 -60t-35.5 -36t-27 -16.5q-8 -5 -12 3l-27 42q-5 6 2 11q6 4 16 11.5t19.5 18t17 23t7.5 27.5q-32 0 -55 22.5t-23 54.5zM246 639q0 32 22.5 55t54.5 23q33 0 58.5 -22.5t25.5 -67.5
q0 -52 -13 -88.5t-31 -60t-36 -36t-27 -16.5q-7 -5 -12 3l-27 42q-4 5 2 11q6 4 16 11.5t19.5 18t17 23t7.5 27.5q-32 0 -54.5 22.5t-22.5 54.5z" />
    <glyph glyph-name="quotedblbase" unicode="&#x201e;" horiz-adv-x="456" 
d="M49 71q0 32 22.5 55t55.5 23t58.5 -22.5t25.5 -67.5q0 -52 -13.5 -88.5t-31 -60t-35.5 -36t-27 -16.5q-8 -5 -12 3l-27 42q-5 6 2 11q6 4 16 11.5t19.5 18t17 23t7.5 27.5q-32 0 -55 22.5t-23 54.5zM244 71q0 32 22.5 55t54.5 23q33 0 58.5 -22.5t25.5 -67.5
q0 -52 -13 -88.5t-31 -60t-36 -36t-27 -16.5q-7 -5 -12 3l-27 42q-4 5 2 11q6 4 16 11.5t19.5 18t17 23t7.5 27.5q-32 0 -54.5 22.5t-22.5 54.5z" />
    <glyph glyph-name="dagger" unicode="&#x2020;" horiz-adv-x="379" 
d="M174 122q-18 0 -20 21l-14 348h-88q-21 0 -21 20v30q0 20 21 20h88v146q0 20 19 20h60q20 0 20 -20v-146h89q20 0 20 -20v-30q0 -20 -21 -20h-88l-16 -349q0 -20 -18 -20h-31z" />
    <glyph glyph-name="daggerdbl" unicode="&#x2021;" horiz-adv-x="410" 
d="M160 363l-5 128h-88q-20 0 -20 20v30q0 20 20 20h88v146q0 20 20 20h59q20 0 20 -20v-146h89q20 0 20 -20v-30q0 -20 -20 -20h-89l-5 -128h92q20 0 20 -20v-31q0 -20 -21 -20h-95l-6 -150q-2 -20 -19 -20h-30q-10 0 -14.5 6t-5.5 15l-6 149h-95q-20 0 -20 20v31
q0 20 21 20h90z" />
    <glyph glyph-name="bullet" unicode="&#x2022;" horiz-adv-x="397" 
d="M328 290q0 -27 -10 -50.5t-28 -41.5t-41.5 -28t-50.5 -10t-50.5 10t-41 28t-27.5 41.5t-10 50.5t10 50.5t27.5 41.5t41 28t50.5 10t50.5 -10t41.5 -28t28 -41.5t10 -50.5z" />
    <glyph glyph-name="ellipsis" unicode="&#x2026;" horiz-adv-x="612" 
d="M118 -6q-28 0 -48 19.5t-20 47.5t20 48t48 20t47.5 -20t19.5 -48t-19.5 -47.5t-47.5 -19.5zM303 -6q-28 0 -48 19.5t-20 47.5t20 48t48 20t47.5 -20t19.5 -48t-19.5 -47.5t-47.5 -19.5zM494 -6q-27 0 -47 19.5t-20 47.5t20 48t47 20q28 0 47.5 -20t19.5 -48t-19.5 -47.5
t-47.5 -19.5z" />
    <glyph glyph-name="perthousand" unicode="&#x2030;" horiz-adv-x="924" 
d="M153 423q-60 0 -91.5 38t-31.5 101q0 64 31.5 101.5t91.5 37.5q63 0 95 -37.5t32 -101.5q0 -63 -32 -101t-95 -38zM153 487q26 0 37 19.5t11 55.5q0 35 -11 53t-37 18t-37 -18t-11 -53q0 -36 11 -55.5t37 -19.5zM479 -2q-60 0 -91.5 37.5t-31.5 101.5q0 63 31.5 101
t91.5 38q63 0 95 -38t32 -101q0 -64 -32 -101.5t-95 -37.5zM479 62q26 0 37 19.5t11 55.5q0 35 -11 53t-37 18t-37 -18t-11 -53q0 -36 11 -55.5t37 -19.5zM769 -2q-61 0 -92 37.5t-31 101.5q0 63 31 101t92 38q63 0 94.5 -38t31.5 -101q0 -64 -31.5 -101.5t-94.5 -37.5z
M769 62q26 0 37 19.5t11 55.5q0 35 -11 53t-37 18t-37 -18t-11 -53q0 -36 11 -55.5t37 -19.5zM265 20q-6 -20 -24 -20h-47q-10 0 -15.5 6.5t-2.5 15.5l199 658q6 20 23 20h46q11 0 16.5 -6t2.5 -16z" />
    <glyph glyph-name="guilsinglleft" unicode="&#x2039;" horiz-adv-x="319" 
d="M65 198q-16 15 -16 32v70q0 16 15 30l130 113q8 7 14.5 6.5t11.5 -5.5l43 -47q10 -14 -2 -26l-113 -107l113 -106q12 -13 2 -26l-43 -47q-11 -12 -27 1l-128 112v0z" />
    <glyph glyph-name="guilsinglright" unicode="&#x203a;" horiz-adv-x="319" 
d="M126 86q-16 -14 -26 -1l-43 47q-12 14 2 26l112 106l-112 107q-14 12 -2 26l42 47q12 12 27 -1l129 -113q15 -14 15 -30v-70q0 -18 -15 -32z" />
    <glyph glyph-name="fraction" unicode="&#x2044;" horiz-adv-x="108" 
d="M-94 0q-10 0 -15.5 5.5t-3.5 15.5l208 686q6 20 23 20h85q11 0 16.5 -6t2.5 -15l-207 -687q-3 -9 -7.5 -14t-14.5 -5h-87z" />
    <glyph glyph-name="uni2070" unicode="&#x2070;" horiz-adv-x="298" 
d="M147 492q-60 0 -91.5 37.5t-31.5 101.5q0 63 31.5 101t91.5 38q63 0 94.5 -38t31.5 -101q0 -64 -31.5 -101.5t-94.5 -37.5zM147 556q26 0 37 19.5t11 55.5q0 35 -11 53t-37 18t-37 -18t-11 -53q0 -36 11 -55.5t37 -19.5z" />
    <glyph glyph-name="uni2074" unicode="&#x2074;" horiz-adv-x="278" 
d="M18 586q0 11 4 19l73 151q2 5 4.5 7t9.5 2h55q13 0 8 -10l-71 -146h55v42q0 13 12 13h43q13 0 13 -12v-43h23q13 0 13 -12v-38q0 -13 -13 -13h-23v-42q0 -12 -13 -12h-50q-12 0 -12 13v41h-118q-13 0 -13 13v27z" />
    <glyph glyph-name="uni2075" unicode="&#x2075;" horiz-adv-x="272" 
d="M99 663q4 2 11 5q5 2 14 4t20 2q50 0 78 -24.5t28 -69.5q0 -17 -7 -33.5t-21.5 -29t-36.5 -20.5t-52 -8q-24 0 -42 4.5t-30.5 11.5t-21 14t-12.5 12q-5 4 1 10l35 32q5 6 9 2q8 -5 23.5 -13t37.5 -8t33 10t11 22q0 13 -10 21.5t-30 8.5q-13 0 -21.5 -3.5t-13.5 -7.5
q-3 -2 -6.5 -4t-10.5 -2h-37q-13 0 -13 13v141q0 12 13 12h170q12 0 12 -12v-34q0 -13 -13 -13h-118v-43z" />
    <glyph glyph-name="uni2076" unicode="&#x2076;" horiz-adv-x="278" 
d="M24 627q0 69 33.5 105.5t95.5 36.5q33 0 53 -11.5t28 -19.5q6 -6 0 -13l-31 -30q-5 -6 -13 0q-5 3 -13 6.5t-21 3.5q-23 0 -40.5 -13.5t-21.5 -42.5q6 6 16 10q8 4 19.5 7.5t27.5 3.5q44 0 72 -24.5t28 -63.5q0 -38 -25.5 -64.5t-80.5 -26.5q-61 0 -94 35t-33 101z
M96 595q4 -22 19.5 -32t35.5 -10q17 0 28.5 7.5t11.5 21.5t-11 21.5t-29 7.5q-23 0 -36.5 -6.5t-18.5 -9.5z" />
    <glyph glyph-name="uni2077" unicode="&#x2077;" horiz-adv-x="234" 
d="M61 492q-7 0 -8.5 4t-1.5 7q2 41 16.5 72.5t31 55.5t29.5 42t13 33h-110q-13 0 -13 12v36q0 11 13 11h175q13 0 13 -11v-17q0 -31 -14 -55.5t-31 -50t-31.5 -56t-16.5 -73.5q0 -2 -2 -6t-8 -4h-55z" />
    <glyph glyph-name="uni2078" unicode="&#x2078;" horiz-adv-x="282" 
d="M210 638q26 -9 37.5 -27t11.5 -39q0 -37 -30.5 -58.5t-85.5 -21.5q-25 0 -47 5t-38 14.5t-25.5 25t-9.5 36.5q0 16 7 27.5t15.5 19t16.5 11.5t11 6q-2 0 -8 3t-12 10t-11 18t-5 28q0 33 28.5 53.5t77.5 20.5q54 0 79 -23t25 -50q0 -16 -5 -27t-11.5 -18t-12.5 -10.5
t-8 -3.5zM123 618q-9 -4 -15 -8q-5 -5 -9.5 -11t-4.5 -16q0 -13 13 -22t36 -9q22 0 34 9t12 20q0 24 -28 30zM159 654q5 0 9 4q3 3 6 9t3 17q0 10 -9.5 18.5t-24.5 8.5q-17 0 -26.5 -7.5t-9.5 -17.5q0 -14 8.5 -18t13.5 -6z" />
    <glyph glyph-name="uni2079" unicode="&#x2079;" horiz-adv-x="277" 
d="M22 675q0 38 25.5 64.5t80.5 26.5q60 0 92 -35t32 -101q0 -69 -33 -105.5t-96 -36.5q-34 0 -53.5 12t-27.5 20q-6 5 0 11l32 32q4 4 11 0q5 -4 13.5 -7.5t21.5 -3.5q23 0 41 13.5t21 42.5q-7 -7 -16 -11q-8 -4 -19.5 -7t-26.5 -3q-43 0 -70.5 24t-27.5 64zM183 662
q-4 22 -19.5 32t-35.5 10q-17 0 -28.5 -7.5t-11.5 -21.5t11 -21.5t28 -7.5q23 0 37 6.5t19 9.5z" />
    <glyph glyph-name="uni2080" unicode="&#x2080;" horiz-adv-x="297" 
d="M147 -100q-60 0 -91.5 37.5t-31.5 101.5q0 63 31.5 101t91.5 38q63 0 94.5 -38t31.5 -101q0 -64 -31.5 -101.5t-94.5 -37.5zM147 -36q26 0 37 19.5t11 55.5q0 35 -11 53t-37 18t-37 -18t-11 -53q0 -36 11 -55.5t37 -19.5z" />
    <glyph glyph-name="uni2081" unicode="&#x2081;" horiz-adv-x="237" 
d="M197 -86q0 -13 -12 -13h-44q-13 0 -13 13v166q-7 -13 -25 -27.5t-50 -16.5h-7t-5 7l-9 49q-1 6 2.5 8.5t6.5 2.5q33 2 55 22.5t30 39.5q2 4 4.5 6.5t8.5 2.5h48q10 0 10 -10v-250z" />
    <glyph glyph-name="uni2082" unicode="&#x2082;" horiz-adv-x="259" 
d="M39 -98q-13 0 -13 12v20q0 33 21 52.5t46 33.5t46 28t21 36q0 34 -36 34q-18 0 -26.5 -9t-10.5 -18q-2 -7 -10 -6l-47 9q-4 1 -4.5 4t-0.5 5q1 12 7 25t18 24t30 18.5t44 7.5q46 0 73 -23.5t27 -66.5q0 -31 -17.5 -51.5t-38.5 -34.5t-38.5 -23.5t-17.5 -18.5v-2h97
q13 1 13 -12v-32q0 -12 -12 -12h-171z" />
    <glyph glyph-name="uni2083" unicode="&#x2083;" horiz-adv-x="262" 
d="M109 13q-10 0 -10 10v26q0 10 10 10h20q10 0 20 7.5t10 24.5q0 11 -9 19t-26 8q-19 0 -25.5 -6.5t-9.5 -11.5q-3 -7 -13 -3l-39 15q-7 3 -4 11q3 6 8.5 15t17 18t28.5 15t42 6q26 0 44.5 -7t30.5 -18t18 -25t6 -29q0 -14 -5 -24.5t-12 -17t-13.5 -10t-10.5 -4.5
q4 -2 12 -5.5t16.5 -11t14.5 -19.5t6 -29q0 -36 -30 -57t-78 -21q-27 0 -45.5 5.5t-30 13.5t-17.5 16.5t-9 14.5t3 11l28 23q8 6 11 1q5 -8 17.5 -18.5t38.5 -10.5q19 0 31 7.5t12 21.5t-11 21.5t-24 7.5h-23z" />
    <glyph glyph-name="uni2084" unicode="&#x2084;" horiz-adv-x="278" 
d="M18 -4q0 11 4 19l73 151q2 5 4.5 7t9.5 2h55q13 0 8 -10l-71 -146h55v42q0 13 12 13h43q13 0 13 -12v-43h23q13 0 13 -12v-38q0 -13 -13 -13h-23v-42q0 -12 -13 -12h-50q-12 0 -12 13v41h-118q-13 0 -13 13v27z" />
    <glyph glyph-name="uni2085" unicode="&#x2085;" horiz-adv-x="271" 
d="M99 75q4 2 11 5q5 2 14 4t20 2q50 0 78 -24.5t28 -69.5q0 -17 -7 -33.5t-21.5 -29t-36.5 -20.5t-52 -8q-24 0 -42 4.5t-30.5 11.5t-21 14t-12.5 12q-5 4 1 10l35 32q5 6 9 2q8 -5 23.5 -13t37.5 -8t33 10t11 22q0 13 -10 21.5t-30 8.5q-13 0 -21.5 -3.5t-13.5 -7.5
q-3 -2 -6.5 -4t-10.5 -2h-37q-13 0 -13 13v141q0 12 13 12h170q12 0 12 -12v-34q0 -13 -13 -13h-118v-43z" />
    <glyph glyph-name="uni2086" unicode="&#x2086;" horiz-adv-x="278" 
d="M203 104q-5 -6 -13 0q-5 3 -13 6.5t-21 3.5q-23 0 -40.5 -13.5t-21.5 -42.5q6 6 16 10q8 4 19.5 7.5t27.5 3.5q44 0 72 -24.5t28 -63.5q0 -38 -25.5 -64.5t-80.5 -26.5q-61 0 -94 35t-33 101q0 69 33.5 105.5t95.5 36.5q33 0 53 -11.5t28 -19.5q6 -6 0 -13zM96 4
q4 -22 19.5 -32t35.5 -10q17 0 28.5 7.5t11.5 21.5t-11 21.5t-29 7.5q-23 0 -36.5 -6.5t-18.5 -9.5z" />
    <glyph glyph-name="uni2087" unicode="&#x2087;" horiz-adv-x="232" 
d="M61 -98q-8 0 -9 4t-1 7q2 41 16 72.5t30.5 55.5t29.5 42t13 33h-109q-14 0 -14 12v36q0 11 13 11h176q13 0 13 -11v-17q0 -31 -14 -55.5t-31 -50t-31.5 -56t-16.5 -73.5q0 -2 -2 -6t-9 -4h-54z" />
    <glyph glyph-name="uni2088" unicode="&#x2088;" horiz-adv-x="282" 
d="M210 47q26 -9 37.5 -26.5t11.5 -38.5q0 -38 -30.5 -59.5t-85.5 -21.5q-25 0 -47 5t-38 14.5t-25.5 25t-9.5 36.5q0 16 7 28t15.5 19.5t16.5 11.5t11 5q-2 0 -8 3t-12 10t-11 18t-5 28q0 33 28.5 53.5t77.5 20.5q54 0 79 -23t25 -50q0 -16 -5 -27t-11.5 -18t-12.5 -10.5
t-8 -3.5zM123 27q-9 -4 -15 -8q-5 -5 -9.5 -11t-4.5 -16q0 -12 13 -21.5t36 -9.5q22 0 34 9.5t12 20.5q0 24 -28 29zM159 63q5 0 9 4q3 3 6 9t3 17t-9.5 19.5t-24.5 8.5q-17 0 -26.5 -8t-9.5 -18q0 -14 8.5 -18t13.5 -6z" />
    <glyph glyph-name="uni2089" unicode="&#x2089;" horiz-adv-x="273" 
d="M71 -25q4 4 11 0q5 -4 14 -7.5t21 -3.5q23 0 41 13.5t21 42.5q-7 -7 -16 -11q-8 -4 -19.5 -7t-26.5 -3q-43 0 -70.5 24.5t-27.5 63.5q0 38 25.5 64.5t80.5 26.5q60 0 92 -35t32 -101q0 -69 -33 -105.5t-95 -36.5q-35 0 -54.5 12t-27.5 20q-5 5 0 12zM180 74
q-4 22 -19.5 32t-35.5 10q-17 0 -28.5 -7.5t-11.5 -21.5t11 -21.5t29 -7.5q23 0 36.5 6.5t18.5 9.5z" />
    <glyph glyph-name="Euro" unicode="&#x20ac;" horiz-adv-x="681" 
d="M112 441q22 124 99 186t193 62q42 0 76 -7.5t60.5 -20.5t46 -29.5t34.5 -35.5q4 -5 5.5 -14.5t-9.5 -17.5l-72 -52q-14 -10 -23.5 -4t-13.5 11q-15 18 -39.5 30.5t-62.5 12.5q-49 0 -87 -29t-55 -92h175q20 0 20 -20v-41q0 -20 -20 -20h-187v-38h187q20 0 20 -20v-43
q0 -20 -20 -20h-166q21 -58 62.5 -82.5t87.5 -24.5q38 0 68 15t50 32q8 8 17 9.5t18 -7.5l50 -50q11 -12 10.5 -22t-7.5 -18q-13 -13 -32 -28t-44.5 -28t-58 -21.5t-72.5 -8.5q-115 0 -196.5 58t-109.5 176h-58q-20 0 -20 20v43q0 20 21 20h45v38h-46q-20 0 -20 20v41
q0 20 21 20h53z" />
    <glyph glyph-name="trademark" unicode="&#x2122;" horiz-adv-x="852" 
d="M354 715q20 0 20 -21v-37q0 -21 -21 -21h-86v-281q0 -20 -19 -20h-63q-20 0 -20 21v280h-92q-21 0 -21 21v37q0 21 21 21h281zM698 549l-70 -148q-3 -6 -11 -12t-26 -6q-17 0 -26 6t-12 12l-69 148v-194q0 -20 -19 -20h-46q-20 0 -20 21v339q0 20 21 20h42q17 0 26 -6.5
t16 -22.5l86 -194l89 194q7 16 16.5 22.5t26.5 6.5h40q20 0 20 -20v-340q0 -20 -20 -20h-44q-20 0 -20 21v193z" />
    <glyph glyph-name="uni2126" unicode="&#x2126;" horiz-adv-x="879" 
d="M260 88v19q-54 12 -94.5 40t-67.5 65.5t-40.5 80.5t-13.5 85q0 80 28.5 145t81 111.5t125 72t161.5 25.5q88 0 161 -25.5t125 -72t80.5 -111.5t28.5 -145q0 -42 -13.5 -85t-40.5 -80.5t-67.5 -65.5t-93.5 -40v-19h148q21 0 21 -20v-49q0 -21 -21 -21h-221q-21 0 -21 21
v170q44 0 78.5 16t58 42.5t36 60.5t12.5 70q0 52 -20 96.5t-55.5 76t-85.5 49.5t-110 18t-110 -18t-86 -49.5t-56 -76t-20 -96.5q0 -36 12.5 -70t36 -60.5t58 -42.5t78.5 -16v-170q0 -21 -20 -21h-222q-20 0 -20 21v49q0 20 20 20h149z" />
    <glyph glyph-name="estimated" unicode="&#x212e;" horiz-adv-x="815" 
d="M47 363q0 83 27 151t75.5 116.5t116 75t149.5 26.5q78 0 143 -24t113.5 -68t77.5 -105.5t34 -136.5q1 -11 -5 -23t-32 -12h-572l-1 -217q45 -54 106 -83t136 -29q54 0 103 14t87 38q4 4 10 -1l19 -20q5 -7 0 -9q-45 -30 -100 -46t-119 -16q-83 0 -150.5 26.5t-116 75
t-75 116.5t-26.5 151zM657 591q-45 48 -106 74.5t-136 26.5q-73 0 -134.5 -26t-106.5 -72v-191h483v188z" />
    <glyph glyph-name="onethird" unicode="&#x2153;" horiz-adv-x="594" 
d="M239 20q-6 -20 -23 -20h-48q-11 0 -16 6t-2 15l199 659q6 20 23 20h46q11 0 16 -6t3 -15zM211 440q0 -13 -12 -13h-44q-13 0 -13 13v166q-7 -13 -25.5 -27.5t-50.5 -16.5q-2 -1 -6 0t-5 7l-9 49q-2 5 2 7.5t6 2.5q17 1 31 7.5t24.5 15.5t18 19.5t11.5 19.5q2 4 4.5 7
t8.5 3h48q11 0 11 -10v-250zM433 111q-10 0 -10 10v27q0 9 10 9h20q10 0 20 8t10 25q0 10 -9 18t-27 8t-24.5 -6.5t-9.5 -11.5q-3 -6 -13 -3l-39 16q-7 2 -4 10q3 6 8.5 15.5t16.5 18.5t28 15t42 6q26 0 45 -7t31 -18t18 -25t6 -29t-5 -25t-12 -17t-13.5 -10t-10.5 -4
q4 -2 12 -5.5t16.5 -11t14.5 -19.5t6 -30q0 -36 -30 -56.5t-79 -20.5q-27 0 -45 5.5t-29.5 13.5t-17.5 16t-9 14q-3 7 3 12l28 23q7 5 11 0q5 -8 17.5 -18.5t38.5 -10.5q19 0 31 7.5t12 22.5q0 14 -11 21t-25 7h-22z" />
    <glyph glyph-name="twothirds" unicode="&#x2154;" horiz-adv-x="606" 
d="M265 20q-4 -10 -9 -15t-15 -5h-48q-10 0 -15 6t-3 15l199 659q6 20 23 20h47q10 0 15.5 -6t2.5 -15zM447 112q-10 0 -10 10v26q0 10 10 10h20q10 0 20 7.5t10 24.5q0 11 -9 19t-26 8q-19 0 -25.5 -6.5t-9.5 -11.5q-3 -7 -13 -3l-39 15q-7 3 -4 11q3 6 8.5 15.5t17 18
t28.5 15t42 6.5q26 0 44.5 -7t30.5 -18.5t18 -25.5t6 -29q0 -14 -5 -24t-12 -17t-13.5 -10t-10.5 -4q4 -2 12 -5.5t16.5 -11t14.5 -19.5t6 -30q0 -36 -30 -56.5t-78 -20.5q-27 0 -45.5 5.5t-30 13.5t-17.5 16t-9 14t3 11l28 23q8 6 11 1q5 -8 17.5 -18.5t38.5 -10.5
q19 0 31 7.5t12 21.5t-11 21.5t-24 7.5h-23zM61 427q-13 0 -13 12v20q0 33 21 52.5t46 33.5t46 27.5t21 35.5q0 16 -9.5 25.5t-26.5 9.5q-18 0 -26.5 -9.5t-10.5 -17.5q-2 -7 -10 -6l-47 8q-4 1 -4.5 4.5t-0.5 5.5q1 11 7 24t18 24.5t30 19t44 7.5q46 0 72.5 -23.5
t26.5 -66.5q0 -31 -17.5 -51.5t-38.5 -34.5t-38.5 -24t-17.5 -19v-1h98q13 0 13 -12v-32q0 -12 -13 -12h-170z" />
    <glyph glyph-name="oneeighth" unicode="&#x215b;" horiz-adv-x="613" 
d="M243 20q-3 -10 -8 -15t-16 -5h-48q-10 0 -15 6t-3 15l199 659q6 20 23 20h47q10 0 15.5 -6t2.5 -15zM211 440q0 -13 -12 -13h-44q-13 0 -13 13v166q-7 -13 -25.5 -27.5t-50.5 -16.5q-2 -1 -6 0.5t-5 6.5l-9 49q-2 5 2 7.5t6 2.5q17 1 31 7.5t24.5 15.5t18 19.5t11.5 19.5
q2 4 4.5 7t8.5 3h48q11 0 11 -10v-250zM532 145q26 -9 37 -27t11 -39q0 -37 -30.5 -58.5t-84.5 -21.5q-25 0 -47 5t-38.5 14.5t-26 25t-9.5 36.5q0 16 7 27.5t16 19t17 11.5t10 6q-2 0 -8 3t-12 10t-11 18t-5 28q0 33 29 53.5t77 20.5q55 0 79.5 -23t24.5 -50q0 -16 -5 -27
t-11.5 -18t-12.5 -10.5t-7 -3.5zM445 125q-9 -4 -15 -8q-6 -5 -10.5 -11t-4.5 -16q0 -13 13.5 -22t36.5 -9q22 0 33.5 9t11.5 20q0 24 -27 30zM481 161q4 0 8 4q3 3 6 9t3 17q0 10 -9 18.5t-25 8.5q-17 0 -26 -7.5t-9 -17.5q0 -14 8 -18t13 -6z" />
    <glyph glyph-name="threeeighths" unicode="&#x215c;" horiz-adv-x="621" 
d="M255 20q-6 -20 -23 -20h-48q-11 0 -16 6t-2 15l199 659q6 20 23 20h46q11 0 16 -6t3 -15zM122 538q-10 0 -10 10v26q0 10 10 10h20q10 0 20 7.5t10 24.5q0 11 -9 19t-27 8t-24.5 -6.5t-9.5 -11.5q-4 -7 -13 -3l-39 15q-8 4 -5 11q3 6 9 15.5t17 18t28 15t42 6.5
q26 0 45 -7t31 -18.5t18 -25.5t6 -29q0 -14 -5 -24t-12 -17t-13.5 -10t-10.5 -4q4 -2 12 -5.5t16.5 -11t14.5 -19.5t6 -30q0 -36 -30 -56.5t-79 -20.5q-27 0 -45.5 5.5t-30 13.5t-17.5 16t-8 14q-3 6 2 11l29 23q7 5 11 1q5 -8 17.5 -18.5t38.5 -10.5q19 0 30.5 7.5
t11.5 21.5t-10.5 21.5t-24.5 7.5h-22zM542 144q26 -9 37.5 -26.5t11.5 -38.5q0 -38 -30.5 -59.5t-84.5 -21.5q-51 0 -86 19.5t-35 61.5q0 16 7 28t15.5 19.5t16.5 11.5t11 5q-2 0 -8 3t-12 10t-11 18t-5 28q0 33 28.5 53.5t77.5 20.5q54 0 79 -23t25 -50q0 -16 -5 -27
t-11.5 -18t-12.5 -10.5t-8 -3.5zM455 124q-9 -4 -15 -8q-5 -5 -9.5 -11t-4.5 -16q0 -12 13.5 -21.5t36.5 -9.5q21 0 33 9.5t12 20.5q0 24 -28 29zM491 160q5 0 9 4q3 3 6 9t3 17t-9 19.5t-25 8.5q-17 0 -26.5 -8t-9.5 -18q0 -14 8.5 -18t13.5 -6z" />
    <glyph glyph-name="fiveeighths" unicode="&#x215d;" horiz-adv-x="632" 
d="M263 20q-6 -20 -23 -20h-48q-11 0 -16 6t-2 15l199 659q6 20 23 20h46q11 0 16 -6t3 -15zM553 144q26 -9 37.5 -26.5t11.5 -38.5q0 -38 -30.5 -59.5t-84.5 -21.5q-51 0 -86 19.5t-35 61.5q0 16 7 28t15.5 19.5t16.5 11.5t11 5q-2 0 -8 3t-12 10t-11 18t-5 28
q0 33 28.5 53.5t77.5 20.5q54 0 79 -23t25 -50q0 -16 -5 -27t-11.5 -18t-12.5 -10.5t-8 -3.5zM466 124q-9 -4 -15 -8q-5 -5 -9.5 -11t-4.5 -16q0 -12 13.5 -21.5t36.5 -9.5q21 0 33 9.5t12 20.5q0 24 -28 29zM502 160q5 0 9 4q3 3 6 9t3 17t-9.5 19.5t-24.5 8.5
q-17 0 -26.5 -8t-9.5 -18q0 -14 8.5 -18t13.5 -6zM109 598q5 2 11 5q5 2 13.5 4t20.5 2q49 0 77 -24.5t28 -69.5q0 -17 -7 -33.5t-21 -29t-36.5 -20.5t-52.5 -8q-24 0 -41.5 4.5t-30.5 11.5t-21 14t-12 12q-5 4 1 10l34 32q6 6 10 2q7 -5 23 -13t37 -8q23 0 33.5 10t10.5 22
q0 13 -10 21.5t-30 8.5q-12 0 -21 -3.5t-14 -7.5l-6 -4t-10 -2h-37q-13 0 -13 13v141q0 12 12 12h170q13 0 13 -12v-34q0 -13 -13 -13h-118v-43z" />
    <glyph glyph-name="seveneighths" unicode="&#x215e;" horiz-adv-x="592" 
d="M218 20q-6 -20 -23 -20h-48q-10 0 -15 6t-3 15l199 659q6 20 23 20h47q10 0 15.5 -6t2.5 -15zM513 144q26 -9 37 -26.5t11 -38.5q0 -38 -30.5 -59.5t-84.5 -21.5q-25 0 -47 5t-38.5 14.5t-26 25t-9.5 36.5q0 16 7 28t16 19.5t17 11.5l10 5q-2 0 -8 3t-12 10t-11 18t-5 28
q0 33 29 53.5t77 20.5q55 0 79.5 -23t24.5 -50q0 -16 -5 -27t-11.5 -18t-12.5 -10.5t-7 -3.5zM426 124q-9 -4 -15 -8q-5 -5 -9.5 -11t-4.5 -16q0 -12 13 -21.5t36 -9.5q22 0 33.5 9.5t11.5 20.5q0 24 -27 29zM462 160q4 0 8 4q3 3 6 9t3 17t-9 19.5t-25 8.5q-17 0 -26 -8
t-9 -18q0 -14 8 -18t13 -6zM73 428q-8 0 -9 4t-1 6q2 41 16 72.5t30.5 55.5t29.5 42.5t13 33.5h-109q-14 0 -14 12v35q0 12 13 12h176q13 0 13 -12v-17q0 -31 -14 -55.5t-31 -50t-31.5 -55.5t-16.5 -73q0 -3 -2 -6.5t-9 -3.5h-54z" />
    <glyph glyph-name="partialdiff" unicode="&#x2202;" horiz-adv-x="619" 
d="M290 -4q-65 0 -112.5 18t-79 49t-46.5 73.5t-15 90.5q0 51 18 92t50 70.5t76 45.5t96 16q33 0 59 -7.5t46 -18t34 -21l22 -16.5q-8 102 -46.5 149.5t-105.5 47.5q-41 0 -65.5 -15t-38.5 -32q-2 -2 -6.5 -4.5t-11.5 2.5l-81 65q-7 5 -6 11t3 8q28 35 78 61.5t128 26.5
q143 0 214 -96t71 -271q0 -78 -18 -141.5t-53 -109t-87.5 -70t-122.5 -24.5zM434 267q-7 5 -19.5 16t-30.5 22t-41 19.5t-51 8.5q-60 0 -92.5 -28t-32.5 -78q0 -52 33.5 -83t90.5 -31t95.5 42.5t47.5 111.5z" />
    <glyph glyph-name="uni2206" unicode="&#x2206;" horiz-adv-x="691" 
d="M346 568l-190 -455h379zM663 20q0 -20 -21 -20h-593q-20 0 -20 20v75q0 8 0.5 15t5.5 17l229 530q10 23 20 33t30 10h63q21 0 31 -10t21 -33l228 -530q3 -8 4.5 -14.5t1.5 -17.5v-75z" />
    <glyph glyph-name="product" unicode="&#x220f;" horiz-adv-x="663" 
d="M586 20q0 -20 -20 -20h-86q-20 0 -20 20v567h-256v-567q0 -20 -20 -20h-86q-20 0 -20 20v660q0 20 20 20h468q20 0 20 -20v-660z" />
    <glyph glyph-name="summation" unicode="&#x2211;" horiz-adv-x="607" 
d="M536 700q21 0 21 -20v-72q0 -20 -21 -20h-321l149 -204q26 -37 1 -72l-150 -201l320 -1q22 0 22 -20v-70q0 -20 -21 -20h-466q-20 0 -20 20l1 71q0 14 4.5 23.5t13.5 21.5l166 211l-165 215q-7 10 -13.5 20t-6.5 26v72q0 21 20 21z" />
    <glyph glyph-name="minus" unicode="&#x2212;" horiz-adv-x="496" 
d="M83 225q-20 0 -20 20v54q0 20 20 20h330q20 0 20 -20v-54q0 -20 -20 -20h-330z" />
    <glyph glyph-name="uni2215" unicode="&#x2215;" horiz-adv-x="429" 
d="M23 0q-11 0 -15.5 5.5t0.5 16.5l290 684q5 10 9 15t14 5h88q22 0 16 -21l-290 -685q-4 -10 -8.5 -15t-14.5 -5h-89z" />
    <glyph glyph-name="uni2219" unicode="&#x2219;" horiz-adv-x="243" 
d="M122 211q-28 0 -47 19t-19 47q0 27 19 46.5t47 19.5q27 0 46 -19.5t19 -46.5q0 -28 -19 -47t-46 -19z" />
    <glyph glyph-name="radical" unicode="&#x221a;" horiz-adv-x="722" 
d="M225 152l176 526q3 8 7.5 15t16.5 7h259q20 0 20 -20v-73q0 -20 -21 -20h-193l-192 -544q-8 -23 -20 -33t-32 -10h-50q-21 0 -31.5 9.5t-18.5 32.5l-119 351q-4 9 0.5 16.5t15.5 7.5h87q12 0 16.5 -7t6.5 -14z" />
    <glyph glyph-name="infinity" unicode="&#x221e;" horiz-adv-x="689" 
d="M344 406l28 35q17 22 43.5 39.5t75.5 17.5q32 0 59.5 -12t48 -32.5t32 -48t11.5 -59.5t-11.5 -59.5t-32 -48t-48 -32.5t-59.5 -12q-49 0 -75.5 16t-43.5 37l-28 35l-27 -35q-17 -21 -44 -37t-75 -16q-32 0 -60 12t-48.5 32.5t-32 48t-11.5 59.5t11.5 59.5t32 48
t48.5 32.5t60 12q48 0 75 -17.5t44 -39.5zM119 346q0 -35 23.5 -60.5t58.5 -25.5q19 0 33.5 5t25 12.5t17.5 16.5t12 16l23 36l-23 32q-5 7 -12 15.5t-17.5 16.5t-25 13.5t-33.5 5.5q-35 0 -58.5 -25t-23.5 -58zM569 346q0 33 -23 58t-59 25q-19 0 -33.5 -5.5t-25 -13
t-17.5 -16.5t-12 -16l-22 -32l22 -36q5 -7 12 -16t17.5 -16.5t25 -12.5t33.5 -5q36 0 59 25.5t23 60.5z" />
    <glyph glyph-name="integral" unicode="&#x222b;" horiz-adv-x="496" 
d="M313 -46q0 -45 -11 -82t-34 -63.5t-59 -41t-86 -14.5q-42 0 -69 11t-41 21q-8 5 -9 11t4 18l28 65q3 8 7.5 8t9.5 -3q8 -5 22 -11t35 -6q36 0 54.5 24.5t18.5 68.5v569q0 45 11 82t34 63.5t58.5 41.5t85.5 15q42 0 69 -11.5t41 -20.5q8 -5 9 -11.5t-4 -18.5l-27 -64
q-3 -8 -7.5 -8t-9.5 3q-8 5 -22 10.5t-35 5.5q-37 0 -55 -24t-18 -69v-569v0z" />
    <glyph glyph-name="approxequal" unicode="&#x2248;" horiz-adv-x="527" 
d="M97 434q-13 0 -17 7q-5 11 -8 24.5t-3 28.5q0 40 25 70t76 30q27 0 51 -8.5t46 -18t42 -18t38 -8.5q16 0 23.5 9.5t7.5 23.5q0 11 -2.5 21.5t-4.5 16.5q-2 9 12 9h50q15 0 19 -9q3 -8 6.5 -21t3.5 -29q0 -21 -6.5 -39.5t-18.5 -32.5t-30 -22.5t-43 -8.5q-32 0 -57 8
t-46 18t-38.5 18t-32.5 8q-38 0 -38 -37q0 -10 3 -18.5t5 -14.5q3 -7 -9 -7h-54zM96 244q-13 0 -17 8q-5 11 -8 24.5t-3 28.5q0 40 25 70t76 30q27 0 51 -8.5t46 -18t42 -18t38 -8.5q16 0 23.5 9.5t7.5 23.5q0 11 -2.5 21t-4.5 17q-2 9 12 9h50q15 0 19 -9q3 -8 6.5 -21
t3.5 -30q0 -21 -6.5 -39.5t-18.5 -32.5t-30 -22t-43 -8q-32 0 -57 8t-46 18t-38.5 18t-32.5 8q-38 0 -38 -38q0 -9 3 -18t5 -14q3 -8 -9 -8h-54z" />
    <glyph glyph-name="notequal" unicode="&#x2260;" horiz-adv-x="516" 
d="M242 415l18 57q3 10 7.5 15t14.5 5h76q10 0 15.5 -5.5t3.5 -15.5l-17 -56h76q20 0 20 -20v-54q0 -20 -20 -20h-105l-35 -114h140q20 0 20 -21v-53q0 -20 -20 -20h-169l-13 -42q-3 -11 -7.5 -15.5t-14.5 -4.5h-76q-10 0 -16 5.5t-3 14.5l12 42h-70q-20 0 -20 20v53
q0 21 21 21h98l35 114h-134q-20 0 -20 20v54q0 20 21 20h162z" />
    <glyph glyph-name="lessequal" unicode="&#x2264;" horiz-adv-x="491" 
d="M74 111q-20 2 -21 20v54q1 19 20 20h343q20 -2 21 -20v-54q-2 -20 -20 -20h-343zM92 429q-8 5 -15.5 11t-7.5 25v55q0 18 7 25t16 12l299 170q10 5 17 1.5t7 -17.5v-61q0 -17 -6 -22.5t-15 -11.5l-211 -124l212 -123q10 -5 15 -11t5 -23v-59q0 -31 -22 -18z" />
    <glyph glyph-name="greaterequal" unicode="&#x2265;" horiz-adv-x="490" 
d="M398 557q8 -5 15.5 -11.5t7.5 -24.5v-55q0 -19 -7 -25t-15 -11l-300 -171q-10 -5 -17 -1.5t-7 17.5v61q0 17 4.5 22.5t15.5 11.5l212 122l-211 124q-10 6 -15.5 12t-5.5 23v59q0 15 7 18.5t18 -1.5zM417 205q20 0 20 -20v-53q0 -21 -21 -21h-343q-20 0 -20 21v53
q0 20 21 20h343z" />
    <glyph glyph-name="lozenge" unicode="&#x25ca;" horiz-adv-x="564" 
d="M241 0q-10 0 -16.5 2t-11.5 6.5t-10 12.5t-11 20l-139 272q-11 21 -12 33.5t9 31.5l140 278q14 26 23 35t29 9h72q10 0 17.5 -2t13 -7t10.5 -13.5t12 -20.5l148 -278q11 -20 10.5 -32.5t-11.5 -33.5l-148 -273q-7 -12 -12 -20t-10.5 -12.5t-12.5 -6t-17 -1.5h-73z
M404 347l-126 239l-116 -239l117 -232z" />
    <glyph glyph-name="uniF6C3" unicode="&#xf6c3;" horiz-adv-x="226" 
d="M34 -117q0 32 22.5 55t54.5 23q33 0 58.5 -22t25.5 -67q0 -43 -12 -73t-28.5 -50.5t-34.5 -31.5t-29 -17q-11 -5 -17 6l-22 35q-7 11 5 16l15 7.5t17.5 10.5t15 14t6.5 17q-32 0 -54.5 22.5t-22.5 54.5z" />
    <glyph glyph-name="zero.numr" horiz-adv-x="297" 
d="M147 450q-60 0 -91.5 37.5t-31.5 101.5q0 63 31.5 101t91.5 38q63 0 94.5 -38t31.5 -101q0 -64 -31.5 -101.5t-94.5 -37.5zM147 514q26 0 37 19.5t11 55.5q0 35 -11 53t-37 18t-37 -18t-11 -53q0 -36 11 -55.5t37 -19.5z" />
    <glyph glyph-name="one.numr" horiz-adv-x="237" 
d="M197 466q0 -13 -12 -13h-44q-13 0 -13 13v166q-7 -13 -25.5 -27.5t-50.5 -16.5q-2 -1 -6.5 0.5t-5.5 6.5l-8 49q-2 5 2 7.5t6 2.5q17 1 31 7.5t24.5 15.5t18 19.5t11.5 19.5q2 4 4.5 7t8.5 3h48q11 0 11 -10v-250z" />
    <glyph glyph-name="two.numr" horiz-adv-x="257" 
d="M37 452q-13 0 -13 12v20q0 33 21 52.5t46 33.5t46 28t21 36q0 34 -36 34q-18 0 -26.5 -9t-10.5 -18q-2 -7 -10 -6l-47 9q-4 1 -4.5 4t-0.5 5q1 12 7 25t18 24t30 18.5t44 7.5q46 0 73 -23.5t27 -66.5q0 -31 -17.5 -51.5t-38.5 -34.5t-38.5 -23.5t-17.5 -18.5v-2h97
q14 2 14 -12v-32q0 -12 -13 -12h-171z" />
    <glyph glyph-name="three.numr" horiz-adv-x="261" 
d="M107 564q-10 0 -10 10v26q0 10 10 10h20q10 0 20 7.5t10 24.5q0 11 -9 19t-26 8q-19 0 -25.5 -6.5t-9.5 -11.5q-3 -7 -13 -3l-39 15q-7 3 -4 11q3 6 8.5 15.5t17 18t28.5 15t42 6.5q26 0 44.5 -7t30.5 -18.5t18 -25.5t6 -29q0 -14 -5 -24t-12 -17t-13.5 -10t-10.5 -4
q4 -2 12 -5.5t16.5 -11t14.5 -19.5t6 -30q0 -36 -30 -56.5t-78 -20.5q-27 0 -45.5 5.5t-30 13.5t-17.5 16t-9 14t3 11l28 23q8 6 11 1q5 -8 17.5 -18.5t38.5 -10.5q19 0 31 7.5t12 21.5t-11 21.5t-24 7.5h-23z" />
    <glyph glyph-name="four.numr" horiz-adv-x="278" 
d="M18 547q0 11 4 19l73 151q2 5 4.5 7t9.5 2h55q13 0 8 -10l-71 -146h55v42q0 13 12 13h43q13 0 13 -12v-43h23q13 0 13 -12v-38q0 -13 -13 -13h-23v-42q0 -12 -13 -12h-50q-12 0 -12 13v41h-118q-13 0 -13 13v27z" />
    <glyph glyph-name="five.numr" horiz-adv-x="271" 
d="M99 624q4 2 11 5q5 2 14 4t20 2q50 0 78 -24.5t28 -69.5q0 -17 -7 -33.5t-21.5 -29t-36.5 -20.5t-52 -8q-24 0 -42 4.5t-30.5 11.5t-21 14t-12.5 12q-5 4 1 10l35 32q5 6 9 2q8 -5 23.5 -13t37.5 -8t33 10t11 22q0 13 -10 21.5t-30 8.5q-13 0 -21.5 -3.5t-13.5 -7.5
q-3 -2 -6.5 -4t-10.5 -2h-37q-13 0 -13 13v141q0 12 13 12h170q12 0 12 -12v-34q0 -13 -13 -13h-118v-43z" />
    <glyph glyph-name="six.numr" horiz-adv-x="278" 
d="M203 653q-5 -5 -13 0q-5 4 -13 7.5t-21 3.5q-23 0 -40.5 -13.5t-21.5 -42.5q6 6 16 10q8 4 19.5 7t27.5 3q44 0 72 -24t28 -64q0 -38 -25.5 -64.5t-80.5 -26.5q-61 0 -94 35t-33 101q0 69 33.5 105.5t95.5 36.5q33 0 53 -11t28 -19q6 -7 0 -13zM96 553q4 -22 19.5 -32
t35.5 -10q17 0 28.5 7.5t11.5 21.5t-11 22t-29 8q-23 0 -36.5 -6.5t-18.5 -10.5z" />
    <glyph glyph-name="seven.numr" horiz-adv-x="233" 
d="M61 453q-7 0 -8.5 4t-1.5 7q2 41 16.5 72.5t31 55.5t29.5 42t13 33h-110q-13 0 -13 12v36q0 11 13 11h175q13 0 13 -11v-17q0 -31 -14 -55.5t-31 -50t-31.5 -56t-16.5 -73.5q0 -2 -2 -6t-8 -4h-55z" />
    <glyph glyph-name="eight.numr" horiz-adv-x="282" 
d="M210 596q26 -9 37.5 -26.5t11.5 -38.5q0 -38 -30.5 -59.5t-85.5 -21.5q-25 0 -47 5t-38 14.5t-25.5 25t-9.5 36.5q0 16 7 28t15.5 19.5t16.5 11.5t11 5q-2 0 -8 3t-12 10t-11 18t-5 28q0 33 28.5 53.5t77.5 20.5q54 0 79 -23t25 -50q0 -16 -5 -27t-11.5 -18t-12.5 -10.5
t-8 -3.5zM123 576q-9 -4 -15 -8q-5 -5 -9.5 -11t-4.5 -16q0 -12 13 -21.5t36 -9.5q22 0 34 9.5t12 20.5q0 24 -28 29zM159 612q5 0 9 4q3 3 6 9t3 17t-9.5 19.5t-24.5 8.5q-17 0 -26.5 -8t-9.5 -18q0 -14 8.5 -18t13.5 -6z" />
    <glyph glyph-name="nine.numr" horiz-adv-x="275" 
d="M21 637q0 38 26 64.5t80 26.5q60 0 92.5 -35t32.5 -101q0 -69 -33.5 -105.5t-95.5 -36.5q-34 0 -54 12t-28 20q-5 5 1 12l32 31q3 5 11 0q5 -4 13.5 -7.5t20.5 -3.5q23 0 41 13.5t22 42.5q-7 -7 -16 -11q-8 -4 -19.5 -7t-27.5 -3q-43 0 -70.5 24.5t-27.5 63.5zM182 624
q-3 22 -19 32t-36 10q-17 0 -28.5 -7.5t-11.5 -21.5t11.5 -21.5t28.5 -7.5q23 0 36.5 6.5t18.5 9.5z" />
    <glyph glyph-name="zero.dnom" horiz-adv-x="298" 
d="M147 -2q-60 0 -91.5 37.5t-31.5 101.5q0 63 31.5 101t91.5 38q63 0 94.5 -38t31.5 -101q0 -64 -31.5 -101.5t-94.5 -37.5zM147 62q26 0 37 19.5t11 55.5q0 35 -11 53t-37 18t-37 -18t-11 -53q0 -36 11 -55.5t37 -19.5z" />
    <glyph glyph-name="one.dnom" horiz-adv-x="237" 
d="M198 13q0 -13 -12 -13h-44q-13 0 -13 13v166q-7 -13 -25.5 -27.5t-50.5 -16.5q-2 -1 -6.5 0.5t-5.5 6.5l-8 49q-2 5 2 7.5t6 2.5q17 1 31 7.5t24.5 15.5t18 19.5t11.5 19.5q2 4 4.5 7t8.5 3h48q11 0 11 -10v-250z" />
    <glyph glyph-name="two.dnom" horiz-adv-x="259" 
d="M44 0q-13 0 -13 12v20q0 33 21 52.5t46.5 33.5t46.5 28t21 36q0 34 -36 34q-18 0 -26.5 -9t-10.5 -18q-2 -7 -10 -6l-47 9q-4 1 -4.5 4t-0.5 5q1 12 7 25t18 24t30 18.5t44 7.5q46 0 72.5 -23.5t26.5 -66.5q0 -31 -17.5 -51.5t-38.5 -34.5t-38.5 -23.5t-17.5 -18.5v-2h98
q13 1 13 -12v-32q0 -12 -13 -12h-171z" />
    <glyph glyph-name="three.dnom" horiz-adv-x="263" 
d="M108 111q-11 0 -11 10v26q0 10 11 10h19q10 0 20 7.5t10 24.5q0 11 -9 19t-26 8q-18 0 -24.5 -6.5t-9.5 -11.5q-2 -3 -5 -4t-8 1l-39 15q-8 4 -5 11q3 6 9 15t17 18t28 15t42 6q26 0 45 -7t31 -18t18 -25t6 -29q0 -14 -5 -24.5t-12 -17t-13.5 -10t-10.5 -4.5
q4 -2 12 -5.5t16.5 -11t14.5 -19.5t6 -29q0 -36 -30 -57t-79 -21q-27 0 -45.5 5.5t-30 13.5t-17.5 16.5t-9 14.5t3 11l29 23q7 5 11 1q5 -8 17.5 -18.5t38.5 -10.5q18 0 30 7.5t12 21.5t-11 21.5t-24 7.5h-22z" />
    <glyph glyph-name="four.dnom" horiz-adv-x="278" 
d="M18 94q0 11 4 19l73 151q2 5 4.5 7t9.5 2h55q13 0 8 -10l-71 -146h55v42q0 13 12 13h43q13 0 13 -12v-43h23q13 0 13 -12v-38q0 -13 -13 -13h-23v-42q0 -12 -13 -12h-50q-12 0 -12 13v41h-118q-13 0 -13 13v27z" />
    <glyph glyph-name="five.dnom" horiz-adv-x="272" 
d="M100 171q5 2 11 5q5 2 13.5 4t20.5 2q49 0 77 -24.5t28 -69.5q0 -17 -7 -33t-21 -29t-36.5 -21t-52.5 -8q-24 0 -41.5 5t-30.5 11.5t-21 13.5t-12 12q-5 5 1 11l34 32q5 5 10 2q7 -5 23 -13t37 -8q23 0 33.5 9.5t10.5 22.5t-10 21.5t-30 8.5q-12 0 -21 -4t-14 -8
q-3 -2 -6 -3.5t-10 -1.5h-37q-13 0 -13 13v141q0 11 12 11h170q13 0 13 -11v-35q0 -12 -13 -12h-118v-44z" />
    <glyph glyph-name="six.dnom" horiz-adv-x="278" 
d="M24 133q0 69 33.5 105.5t95.5 36.5q33 0 53 -11t28 -19q6 -7 0 -13l-31 -31q-5 -5 -13 0q-5 4 -13 7.5t-21 3.5q-23 0 -40.5 -13.5t-21.5 -42.5q6 6 16 10q8 4 19.5 7t27.5 3q44 0 72 -24t28 -64q0 -38 -25.5 -64.5t-80.5 -26.5q-61 0 -94 35t-33 101zM96 101
q4 -22 19.5 -32t35.5 -10q17 0 28.5 7.5t11.5 21.5t-11 22t-29 8q-23 0 -36.5 -6.5t-18.5 -10.5z" />
    <glyph glyph-name="seven.dnom" horiz-adv-x="234" 
d="M62 -2q-8 0 -9 4.5t-1 6.5q2 41 16 72.5t30.5 55.5t29.5 42.5t13 33.5h-109q-14 0 -14 12v35q0 11 13 11h176q13 0 13 -11v-17q0 -31 -14 -55.5t-31 -50t-31.5 -55.5t-16.5 -73q0 -3 -2 -7t-9 -4h-54z" />
    <glyph glyph-name="eight.dnom" horiz-adv-x="282" 
d="M210 144q26 -9 37.5 -26.5t11.5 -38.5q0 -38 -30.5 -59.5t-85.5 -21.5q-25 0 -47 5t-38 14.5t-25.5 25t-9.5 36.5q0 16 7 28t15.5 19.5t16.5 11.5t11 5q-2 0 -8 3t-12 10t-11 18t-5 28q0 33 28.5 53.5t77.5 20.5q54 0 79 -23t25 -50q0 -16 -5 -27t-11.5 -18t-12.5 -10.5
t-8 -3.5zM123 124q-9 -4 -15 -8q-5 -5 -9.5 -11t-4.5 -16q0 -12 13 -21.5t36 -9.5q22 0 34 9.5t12 20.5q0 24 -28 29zM159 160q5 0 9 4q3 3 6 9t3 17t-9.5 19.5t-24.5 8.5q-17 0 -26.5 -8t-9.5 -18q0 -14 8.5 -18t13.5 -6z" />
    <glyph glyph-name="nine.dnom" horiz-adv-x="274" 
d="M252 140q0 -69 -33.5 -105.5t-95.5 -36.5q-34 0 -54 12t-28 19q-6 5 1 12l32 31q4 6 11 0q5 -3 13.5 -7t20.5 -4q23 0 41 13.5t22 42.5q-7 -6 -16 -10q-8 -4 -19.5 -7t-27.5 -3q-43 0 -70.5 24t-27.5 64q0 38 26 64.5t80 26.5q60 0 92.5 -35t32.5 -101zM182 172
q-3 22 -19 32t-36 10q-17 0 -28.5 -7.5t-11.5 -21.5t11.5 -22t28.5 -8q23 0 36.5 6.5t18.5 10.5z" />
    <glyph glyph-name="glyph390" horiz-adv-x="516" 
 />
    <glyph glyph-name="a.salt" horiz-adv-x="568" 
d="M532 21q0 -14 -15 -20t-42 -6q-42 0 -70 20t-28 60q-3 -7 -12 -20.5t-26.5 -27t-44 -23.5t-64.5 -10q-35 0 -69.5 14.5t-61.5 44.5t-44 76.5t-17 110.5q0 67 16.5 114t44 77t64 43.5t75.5 13.5q30 0 53 -7t40.5 -17t28.5 -19.5t17 -14.5v31q0 9 4.5 15t15.5 6h75
q20 0 20 -21v-318q0 -18 6 -29t20 -13q5 -1 9.5 -4t4.5 -14v-62zM361 292q0 7 -5 20.5t-16 27t-29.5 24t-45.5 10.5q-42 0 -70 -32.5t-28 -100.5q0 -35 8.5 -60.5t22.5 -41.5t32 -23.5t36 -7.5q31 0 49.5 13.5t28.5 29t13.5 28t3.5 11.5v102z" />
    <glyph glyph-name="aacute.salt" horiz-adv-x="568" 
d="M223 557q-8 0 -11 5t-1 12l68 158q4 8 9 13t14 5h119q8 0 12 -4.5t-1 -12.5l-101 -155q-6 -9 -11.5 -15t-17.5 -6h-79zM532 21q0 -14 -15 -20t-42 -6q-42 0 -70 20t-28 60q-3 -7 -12 -20.5t-26.5 -27t-44 -23.5t-64.5 -10q-35 0 -69.5 14.5t-61.5 44.5t-44 76.5
t-17 110.5q0 67 16.5 114t44 77t64 43.5t75.5 13.5q30 0 53 -7t40.5 -17t28.5 -19.5t17 -14.5v31q0 9 4.5 15t15.5 6h75q20 0 20 -21v-318q0 -18 6 -29t20 -13q5 -1 9.5 -4t4.5 -14v-62zM361 292q0 7 -5 20.5t-16 27t-29.5 24t-45.5 10.5q-42 0 -70 -32.5t-28 -100.5
q0 -35 8.5 -60.5t22.5 -41.5t32 -23.5t36 -7.5q31 0 49.5 13.5t28.5 29t13.5 28t3.5 11.5v102z" />
    <glyph glyph-name="abreve.salt" horiz-adv-x="568" 
d="M532 21q0 -14 -15 -20t-42 -6q-42 0 -70 20t-28 60q-3 -7 -12 -20.5t-26.5 -27t-44 -23.5t-64.5 -10q-35 0 -69.5 14.5t-61.5 44.5t-44 76.5t-17 110.5q0 67 16.5 114t44 77t64 43.5t75.5 13.5q30 0 53 -7t40.5 -17t28.5 -19.5t17 -14.5v31q0 9 4.5 15t15.5 6h75
q20 0 20 -21v-318q0 -18 6 -29t20 -13q5 -1 9.5 -4t4.5 -14v-62zM361 292q0 7 -5 20.5t-16 27t-29.5 24t-45.5 10.5q-42 0 -70 -32.5t-28 -100.5q0 -35 8.5 -60.5t22.5 -41.5t32 -23.5t36 -7.5q31 0 49.5 13.5t28.5 29t13.5 28t3.5 11.5v102zM423 704q16 0 16 -17
q0 -28 -9.5 -52t-27.5 -42t-45 -28t-63 -10q-38 0 -65.5 10.5t-45.5 28.5t-27 42t-9 51q0 7 3.5 12t11.5 5h65q16 0 16 -13q1 -17 11 -33t40 -16q47 0 49 49q0 13 15 13h65z" />
    <glyph glyph-name="acircumflex.salt" horiz-adv-x="568" 
d="M153 538q-11 0 -15 7.5t0 15.5l70 150q8 20 25 20h109q10 0 15.5 -5.5t10.5 -14.5l69 -150q4 -8 0.5 -15.5t-15.5 -7.5h-72q-16 0 -23 16l-40 82l-39 -82q-7 -16 -23 -16h-72zM532 21q0 -14 -15 -20t-42 -6q-42 0 -70 20t-28 60q-3 -7 -12 -20.5t-26.5 -27t-44 -23.5
t-64.5 -10q-35 0 -69.5 14.5t-61.5 44.5t-44 76.5t-17 110.5q0 67 16.5 114t44 77t64 43.5t75.5 13.5q30 0 53 -7t40.5 -17t28.5 -19.5t17 -14.5v31q0 9 4.5 15t15.5 6h75q20 0 20 -21v-318q0 -18 6 -29t20 -13q5 -1 9.5 -4t4.5 -14v-62zM361 292q0 7 -5 20.5t-16 27
t-29.5 24t-45.5 10.5q-42 0 -70 -32.5t-28 -100.5q0 -35 8.5 -60.5t22.5 -41.5t32 -23.5t36 -7.5q31 0 49.5 13.5t28.5 29t13.5 28t3.5 11.5v102z" />
    <glyph glyph-name="adieresis.salt" horiz-adv-x="568" 
d="M192 571q-29 0 -48.5 19t-19.5 48q0 27 19.5 47t48.5 20q27 0 46.5 -20t19.5 -47q0 -29 -19.5 -48t-46.5 -19zM395 571q-28 0 -48 19t-20 48q0 27 20 47t48 20t47.5 -20t19.5 -47q0 -29 -19.5 -48t-47.5 -19zM532 21q0 -14 -15 -20t-42 -6q-42 0 -70 20t-28 60
q-3 -7 -12 -20.5t-26.5 -27t-44 -23.5t-64.5 -10q-35 0 -69.5 14.5t-61.5 44.5t-44 76.5t-17 110.5q0 67 16.5 114t44 77t64 43.5t75.5 13.5q30 0 53 -7t40.5 -17t28.5 -19.5t17 -14.5v31q0 9 4.5 15t15.5 6h75q20 0 20 -21v-318q0 -18 6 -29t20 -13q5 -1 9.5 -4t4.5 -14
v-62zM361 292q0 7 -5 20.5t-16 27t-29.5 24t-45.5 10.5q-42 0 -70 -32.5t-28 -100.5q0 -35 8.5 -60.5t22.5 -41.5t32 -23.5t36 -7.5q31 0 49.5 13.5t28.5 29t13.5 28t3.5 11.5v102z" />
    <glyph glyph-name="agrave.salt" horiz-adv-x="568" 
d="M236 557q-12 0 -17.5 6t-11.5 15l-101 155q-5 8 -1.5 12.5t11.5 4.5h120q9 0 14 -5t9 -13l68 -158q3 -7 -0.5 -12t-11.5 -5h-79zM532 21q0 -14 -15 -20t-42 -6q-42 0 -70 20t-28 60q-3 -7 -12 -20.5t-26.5 -27t-44 -23.5t-64.5 -10q-35 0 -69.5 14.5t-61.5 44.5t-44 76.5
t-17 110.5q0 67 16.5 114t44 77t64 43.5t75.5 13.5q30 0 53 -7t40.5 -17t28.5 -19.5t17 -14.5v31q0 9 4.5 15t15.5 6h75q20 0 20 -21v-318q0 -18 6 -29t20 -13q5 -1 9.5 -4t4.5 -14v-62zM361 292q0 7 -5 20.5t-16 27t-29.5 24t-45.5 10.5q-42 0 -70 -32.5t-28 -100.5
q0 -35 8.5 -60.5t22.5 -41.5t32 -23.5t36 -7.5q31 0 49.5 13.5t28.5 29t13.5 28t3.5 11.5v102z" />
    <glyph glyph-name="amacron.salt" horiz-adv-x="568" 
d="M532 21q0 -14 -15 -20t-42 -6q-42 0 -70 20t-28 60q-3 -7 -12 -20.5t-26.5 -27t-44 -23.5t-64.5 -10q-35 0 -69.5 14.5t-61.5 44.5t-44 76.5t-17 110.5q0 67 16.5 114t44 77t64 43.5t75.5 13.5q30 0 53 -7t40.5 -17t28.5 -19.5t17 -14.5v31q0 9 4.5 15t15.5 6h75
q20 0 20 -21v-318q0 -18 6 -29t20 -13q5 -1 9.5 -4t4.5 -14v-62zM361 292q0 7 -5 20.5t-16 27t-29.5 24t-45.5 10.5q-42 0 -70 -32.5t-28 -100.5q0 -35 8.5 -60.5t22.5 -41.5t32 -23.5t36 -7.5q31 0 49.5 13.5t28.5 29t13.5 28t3.5 11.5v102zM438 667q21 0 21 -20v-53
q0 -20 -21 -20h-282q-20 0 -20 20v53q0 20 21 20h281z" />
    <glyph glyph-name="aogonek.salt" horiz-adv-x="568" 
d="M555 -135q3 -5 3.5 -7.5t-4.5 -7.5q-8 -8 -29.5 -20.5t-55.5 -12.5q-19 0 -37 5t-31.5 15.5t-22 26.5t-8.5 39q0 35 15 60.5t35 41.5q-36 19 -43 63v7q-3 -7 -12 -20.5t-26.5 -27t-44 -23.5t-64.5 -10q-35 0 -69.5 14.5t-61.5 44.5t-44 76.5t-17 110.5q0 67 16.5 114
t44 77t64 43.5t75.5 13.5q30 0 53 -7t40.5 -17t28.5 -19.5t17 -14.5v33q0 19 18 19h72q14 0 19.5 -8t5.5 -18v-313q0 -18 6 -29t20 -13q5 -1 9.5 -4t4.5 -14v-62q0 -19 -32 -24q-9 -4 -19.5 -10t-19.5 -15t-15 -21t-6 -27q0 -17 11 -28t31 -11q16 0 25 6t16 13q8 6 12 -2z
M361 292q0 7 -5 20.5t-16.5 27t-29.5 24t-45 10.5q-42 0 -70 -32.5t-28 -100.5q0 -35 8.5 -60.5t22.5 -41.5t32 -23.5t36 -7.5q31 0 49.5 13.5t28.5 29t13.5 28t3.5 11.5v102z" />
    <glyph glyph-name="aring.salt" horiz-adv-x="568" 
d="M290 550q-21 0 -39.5 7.5t-32 21t-21 31.5t-7.5 39q0 43 29 71.5t71 28.5t70.5 -28.5t28.5 -71.5q0 -21 -7.5 -39t-21 -31.5t-31.5 -21t-39 -7.5zM328 649q0 17 -10.5 28t-27.5 11t-28 -11t-11 -28t11 -27.5t28 -10.5t27.5 10.5t10.5 27.5zM532 21q0 -14 -15 -20t-42 -6
q-42 0 -70 20t-28 60q-3 -7 -12 -20.5t-26.5 -27t-44 -23.5t-64.5 -10q-35 0 -69.5 14.5t-61.5 44.5t-44 76.5t-17 110.5q0 67 16.5 114t44 77t64 43.5t75.5 13.5q30 0 53 -7t40.5 -17t28.5 -19.5t17 -14.5v31q0 9 4.5 15t15.5 6h75q20 0 20 -21v-318q0 -18 6 -29t20 -13
q5 -1 9.5 -4t4.5 -14v-62zM361 292q0 7 -5 20.5t-16 27t-29.5 24t-45.5 10.5q-42 0 -70 -32.5t-28 -100.5q0 -35 8.5 -60.5t22.5 -41.5t32 -23.5t36 -7.5q31 0 49.5 13.5t28.5 29t13.5 28t3.5 11.5v102z" />
    <glyph glyph-name="atilde.salt" horiz-adv-x="568" 
d="M532 21q0 -14 -15 -20t-42 -6q-42 0 -70 20t-28 60q-3 -7 -12 -20.5t-26.5 -27t-44 -23.5t-64.5 -10q-35 0 -69.5 14.5t-61.5 44.5t-44 76.5t-17 110.5q0 67 16.5 114t44 77t64 43.5t75.5 13.5q30 0 53 -7t40.5 -17t28.5 -19.5t17 -14.5v31q0 9 4.5 15t15.5 6h75
q20 0 20 -21v-318q0 -18 6 -29t20 -13q5 -1 9.5 -4t4.5 -14v-62zM361 292q0 7 -5 20.5t-16 27t-29.5 24t-45.5 10.5q-42 0 -70 -32.5t-28 -100.5q0 -35 8.5 -60.5t22.5 -41.5t32 -23.5t36 -7.5q31 0 49.5 13.5t28.5 29t13.5 28t3.5 11.5v102zM129 546q-14 0 -17 7
q-5 11 -8 23t-3 29q0 38 23.5 66t72.5 28q25 0 47 -6.5t42 -14t38 -13.5t34 -6q11 0 16.5 6.5t5.5 16.5q0 11 -2.5 20t-4.5 15q-2 9 12 9h55q16 0 19 -9q3 -8 6 -20.5t3 -29.5q0 -38 -22.5 -67t-70.5 -29q-29 0 -52 6.5t-42 14t-35 14t-29 6.5q-12 0 -19.5 -7.5t-7.5 -22.5
q0 -8 2.5 -15.5t4.5 -12.5q2 -8 -9 -8h-59z" />
    </font>
</defs>
</svg>
