<svg width="70" height="70" viewBox="0 0 70 70" fill="none" xmlns="http://www.w3.org/2000/svg">
<path d="M35.0145 70C28.9389 70.0049 22.9667 68.427 17.6859 65.4215C12.4051 62.416 7.99766 58.0866 4.89748 52.8594C1.79731 47.6322 0.111261 41.6874 0.00532038 35.6103C-0.10062 29.5332 1.3772 23.5332 4.29329 18.2011C7.20939 12.8689 11.4632 8.38835 16.6361 5.20047C21.8089 2.01259 27.7225 0.227285 33.7945 0.0203039C39.8666 -0.186677 45.8879 1.1918 51.2656 4.02003C56.6434 6.84827 61.1922 11.0288 64.4644 16.15C64.8223 16.7081 64.9439 17.3857 64.8024 18.0335C64.661 18.6813 64.2681 19.2464 63.7102 19.6045C63.1523 19.9625 62.475 20.0842 61.8274 19.9427C61.1798 19.8012 60.615 19.4081 60.2571 18.85C56.7653 13.3816 51.5953 9.19323 45.5227 6.91311C39.4501 4.63299 32.8021 4.38405 26.5761 6.20365C20.3501 8.02324 14.8816 11.8133 10.991 17.0052C7.10036 22.1972 4.99732 28.5111 4.99732 35C4.99732 41.4889 7.10036 47.8028 10.991 52.9948C14.8816 58.1867 20.3501 61.9767 26.5761 63.7963C32.8021 65.6159 39.4501 65.367 45.5227 63.0869C51.5953 60.8067 56.7653 56.6184 60.2571 51.15C60.615 50.5918 61.1798 50.1988 61.8274 50.0573C62.475 49.9158 63.1523 50.0374 63.7102 50.3955C64.2681 50.7535 64.661 51.3186 64.8024 51.9665C64.9439 52.6143 64.8223 53.2918 64.4644 53.85C61.3123 58.8053 56.9602 62.8838 51.8118 65.7071C46.6634 68.5304 40.8856 70.007 35.0145 70Z" fill="#323140"/>
<path d="M63.5385 35L69.2684 29.2675C69.6178 28.9179 69.8557 28.4725 69.9521 27.9876C70.0485 27.5027 69.999 27.0001 69.8099 26.5434C69.6208 26.0866 69.3006 25.6962 68.8897 25.4215C68.4789 25.1468 67.9958 25.0001 67.5017 25H57.5057C56.8429 25.0002 56.2074 25.2637 55.7389 25.7325L48.9738 32.5H47.257C46.6377 29.4649 44.914 26.768 42.42 24.932C39.926 23.0961 36.8394 22.252 33.7587 22.5633C30.6779 22.8747 27.8224 24.3193 25.7458 26.6171C23.6693 28.915 22.5195 31.9023 22.5195 35C22.5195 38.0977 23.6693 41.0851 25.7458 43.3829C27.8224 45.6807 30.6779 47.1254 33.7587 47.4367C36.8394 47.7481 39.926 46.9039 42.42 45.068C44.914 43.2321 46.6377 40.5351 47.257 37.5H48.9738L55.7389 44.2675C56.2074 44.7364 56.8429 44.9999 57.5057 45H67.5017C67.9958 44.9999 68.4789 44.8532 68.8897 44.5785C69.3006 44.3038 69.6208 43.9134 69.8099 43.4567C69.999 42.9999 70.0485 42.4973 69.9521 42.0124C69.8557 41.5276 69.6178 41.0821 69.2684 40.7325L63.5385 35ZM58.5405 30H61.4688L58.9698 32.5H56.0415L58.5405 30ZM35.0147 42.5C33.6389 42.5059 32.2881 42.1329 31.1101 41.4219C29.9321 40.7109 28.9724 39.6893 28.336 38.469C27.6997 37.2488 27.4113 35.8768 27.5024 34.5035C27.5935 33.1302 28.0606 31.8084 28.8525 30.683C29.6444 29.5575 30.7306 28.6718 31.9922 28.1227C33.2538 27.5737 34.642 27.3825 36.005 27.5701C37.3679 27.7578 38.653 28.317 39.7194 29.1865C40.7858 30.0561 41.5925 31.2024 42.0511 32.5H35.0147C34.3519 32.5 33.7163 32.7634 33.2477 33.2323C32.779 33.7011 32.5157 34.337 32.5157 35C32.5157 35.6631 32.779 36.299 33.2477 36.7678C33.7163 37.2366 34.3519 37.5 35.0147 37.5H42.0511C41.5377 38.9582 40.5858 40.2216 39.3259 41.1169C38.066 42.0121 36.56 42.4953 35.0147 42.5ZM58.5405 40L56.0415 37.5H58.9698L61.4688 40H58.5405Z" fill="#323140"/>
<path d="M51.6357 46.1085C49.2534 49.6767 45.787 52.3839 41.7486 53.83C37.7103 55.2761 33.3141 55.3846 29.2094 54.1393C25.1047 52.894 21.5092 50.3611 18.9539 46.9147C16.3986 43.4682 15.0191 39.291 15.0191 35C15.0191 30.709 16.3986 26.5318 18.9539 23.0853C21.5092 19.6389 25.1047 17.1059 29.2094 15.8607C33.3141 14.6154 37.7103 14.7239 41.7486 16.17C45.787 17.6161 49.2534 20.3232 51.6357 23.8915C51.8184 24.1643 52.053 24.3985 52.3261 24.5806C52.5992 24.7628 52.9056 24.8893 53.2276 24.953C53.5496 25.0168 53.881 25.0164 54.2028 24.952C54.5247 24.8876 54.8307 24.7604 55.1035 24.5776C55.3762 24.3949 55.6103 24.1602 55.7923 23.887C55.9744 23.6137 56.1009 23.3073 56.1646 22.9852C56.2283 22.663 56.2279 22.3315 56.1635 22.0095C56.0991 21.6875 55.972 21.3813 55.7893 21.1085C52.8104 16.6495 48.4771 13.2671 43.4294 11.4607C38.3816 9.65434 32.887 9.51977 27.7569 11.0769C22.6269 12.634 18.1333 15.8003 14.9399 20.1081C11.7465 24.4159 10.0225 29.6368 10.0225 35C10.0225 40.3631 11.7465 45.5841 14.9399 49.8919C18.1333 54.1997 22.6269 57.366 27.7569 58.9231C32.887 60.4802 38.3816 60.3457 43.4294 58.5393C48.4771 56.7329 52.8104 53.3505 55.7893 48.8915C56.1582 48.3405 56.2932 47.6654 56.1646 47.0148C56.036 46.3642 55.6543 45.7914 55.1035 45.4224C54.5527 45.0533 53.8779 44.9183 53.2276 45.047C52.5772 45.1756 52.0046 45.5575 51.6357 46.1085Z" fill="#323140"/>
</svg>
