<svg width="70" height="70" viewBox="0 0 70 70" fill="none" xmlns="http://www.w3.org/2000/svg">
<path fill-rule="evenodd" clip-rule="evenodd" d="M25.5208 14.5835C24.3133 14.5835 23.3333 13.6035 23.3333 12.396V8.02101C23.3333 3.59635 26.9292 0 31.3538 0H64.1663C64.2751 0 64.382 0.00795339 64.4866 0.02331C67.5166 0.215823 69.9998 2.71759 69.9998 5.83358V58.3336C69.9998 60.8244 68.4132 63.0466 66.0537 63.8691L48.5243 69.7144C47.8856 69.9125 47.2938 70.0001 46.6663 70.0001C43.4492 70.0001 40.8333 67.3837 40.8333 64.1666V61.2502H31.3538C26.9292 61.2502 23.3333 57.6539 23.3333 53.2292V48.8542C23.3333 47.6467 24.3133 46.6667 25.5208 46.6667C26.7283 46.6667 27.7083 47.6467 27.7083 48.8542V53.2292C27.7083 55.2388 29.3442 56.8752 31.3538 56.8752H40.8333V11.6666C40.8333 9.17304 42.42 6.94762 44.7822 6.12784L50.0399 4.375H31.3538C29.3442 4.375 27.7083 6.01135 27.7083 8.02101V12.396C27.7083 13.6035 26.7283 14.5835 25.5208 14.5835ZM45.2083 59.0586C45.2083 59.0599 45.2083 59.0613 45.2083 59.0627C45.2083 59.0641 45.2083 59.0654 45.2083 59.0668V64.1666C45.2083 65.1615 46.2871 65.8323 47.1886 65.5492L64.639 59.7307C65.2077 59.532 65.6248 58.9547 65.6248 58.3336V5.83358C65.6248 5.03142 64.9717 4.37506 64.1663 4.37506C63.9767 4.37506 63.8165 4.39856 63.6446 4.4509L46.1942 10.2695C45.6222 10.4681 45.2083 11.0454 45.2083 11.6666V59.0586ZM18.9586 43.75C18.3984 43.75 17.8387 43.5369 17.4126 43.1086C16.5581 42.2536 16.5581 40.8683 17.4126 40.0138L24.6142 32.8125H2.1875C0.979996 32.8125 0 31.8325 0 30.625C0 29.4175 0.979996 28.4375 2.1875 28.4375H24.6189L17.4126 21.2336C16.5581 20.3786 16.5581 18.9933 17.4126 18.1388C18.267 17.2843 19.6524 17.2843 20.5074 18.1388L31.4449 29.0763C32.2994 29.9308 32.2994 31.3161 31.4449 32.1711L20.5074 43.1086C20.0786 43.5369 19.5183 43.75 18.9586 43.75Z" fill="#323140"/>
</svg>
