<svg width="70" height="70" viewBox="0 0 70 70" fill="none" xmlns="http://www.w3.org/2000/svg">
<path d="M69.999 22.1389C69.999 20.4081 69.3249 18.7808 68.101 17.5573L64.8532 14.3095L66.5076 12.6551C66.5169 12.6461 66.5262 12.6369 66.5354 12.6278C69.0617 10.1016 69.0617 5.99074 66.5354 3.46377C65.3116 2.23986 63.6843 1.56584 61.9535 1.56584C60.223 1.56584 58.5956 2.23986 57.3714 3.4635C57.361 3.47389 57.3506 3.48442 57.3404 3.49508L55.6896 5.14569L52.4419 1.89779C51.2181 0.674024 49.591 0 47.8602 0C46.1292 0 44.5019 0.67416 43.2782 1.89807C42.636 2.54037 42.158 3.28522 41.8423 4.08037C40.8354 3.46281 39.6755 3.13182 38.4644 3.13182C36.7336 3.13182 35.1062 3.80584 33.8818 5.03016C31.3562 7.55645 31.3562 11.6672 33.882 14.1939L40.2616 20.5732L20.5718 40.263L14.1921 33.8834C12.9684 32.6598 11.3412 31.9858 9.61062 31.9858C7.87976 31.9858 6.25239 32.6598 5.0278 33.884C2.87312 36.0389 2.55784 39.3459 4.07911 41.8398C3.27151 42.1616 2.52968 42.6461 1.8964 43.2796C-0.629483 45.8057 -0.629619 49.9163 1.89653 52.443L5.14402 55.6905L3.46237 57.3721C2.23847 58.596 1.56431 60.2233 1.56431 61.9541C1.56431 63.685 2.23847 65.3122 3.46224 66.5357C4.68601 67.7598 6.31337 68.4339 8.04437 68.4339C9.75964 68.4339 11.3731 67.7718 12.593 66.5688C12.6043 66.558 12.6156 66.5471 12.6266 66.5358L14.308 64.8545L17.5558 68.1022C18.7793 69.3259 20.4065 69.9997 22.1375 69.9999H22.1378C23.8687 69.9999 25.4962 69.3257 26.7204 68.1015C27.3623 67.4595 27.8403 66.7148 28.156 65.9201C29.1626 66.5372 30.3221 66.8681 31.5329 66.8682H31.5332C33.2638 66.8682 34.8914 66.1942 36.1156 64.9701C37.3394 63.7462 38.0133 62.119 38.0133 60.3881C38.0133 58.6572 37.3392 57.0299 36.1155 55.8063L29.7358 49.4266L49.4261 29.7369L55.8057 36.116C57.0296 37.3398 58.6568 38.0137 60.3876 38.0138H60.388C62.1183 38.0138 63.7457 37.3398 64.9693 36.1162C66.1936 34.8924 66.8678 33.265 66.8679 31.5341C66.8679 30.3241 66.5375 29.1654 65.921 28.159C66.7275 27.8373 67.4685 27.3532 68.1014 26.7206C69.3251 25.4968 69.999 23.8696 69.999 22.1389ZM9.75404 63.6079C9.7446 63.617 9.73503 63.6265 9.7256 63.6359C9.27661 64.0849 8.67956 64.3323 8.04437 64.3323C7.40917 64.3323 6.81185 64.0849 6.36245 63.6355C5.91333 63.1864 5.66587 62.5893 5.66587 61.9541C5.66587 61.3189 5.91333 60.7216 6.36259 60.2723L8.04396 58.591L11.4076 61.9543L9.75404 63.6079ZM58.59 8.04604L60.2703 6.3659C60.2782 6.35797 60.2859 6.35018 60.2935 6.34225C60.7406 5.9068 61.3287 5.6674 61.9537 5.6674C62.5889 5.6674 63.1862 5.91487 63.6351 6.36371C64.5559 7.28492 64.5626 8.7794 63.6546 9.70813C63.6475 9.71496 63.6404 9.72194 63.6335 9.72891L61.9533 11.4092L60.2718 9.72754L58.59 8.04604ZM46.1787 4.79801C46.6276 4.34889 47.2248 4.10156 47.8602 4.10156C48.4955 4.10156 49.0925 4.34889 49.5418 4.79815L57.3714 12.6279L60.5031 15.7597C60.5034 15.76 60.5036 15.7603 60.5041 15.7605L65.201 20.4576C65.6502 20.9068 65.8976 21.5038 65.8976 22.1389C65.8976 22.7741 65.6501 23.3715 65.2012 23.8205C64.7518 24.2698 64.1544 24.5172 63.5191 24.5172C62.885 24.5172 62.2888 24.2705 61.8399 23.8228L46.1751 8.15842C45.2516 7.23092 45.2524 5.72442 46.1787 4.79801ZM23.8199 65.2015C23.3705 65.6507 22.7731 65.8983 22.1375 65.8983C21.5021 65.8982 20.9048 65.6509 20.4558 65.202L15.759 60.5052C15.7586 60.5048 15.7583 60.5044 15.758 60.5041L14.7615 59.5077L4.79702 49.5431C3.86993 48.6157 3.8698 47.107 4.79702 46.1796C5.24628 45.7301 5.84347 45.4827 6.4788 45.4827C7.11318 45.4827 7.70941 45.7296 8.15853 46.1779L23.8284 61.8479C24.7462 62.7759 24.7437 64.2775 23.8199 65.2015ZM33.9114 60.3881C33.9114 61.0233 33.6641 61.6209 33.2151 62.0699C32.7657 62.5192 32.1684 62.7666 31.5329 62.7666C31.5329 62.7666 31.5329 62.7666 31.5328 62.7666C30.8975 62.7666 30.3 62.5192 29.8509 62.0701L26.7375 58.9567C26.7315 58.9507 26.726 58.9443 26.72 58.9382L11.0604 43.2793L11.06 43.2789L7.92843 40.1473C7.0012 39.2202 7.0012 37.7116 7.92816 36.7843C8.37769 36.3349 8.97529 36.0873 9.61075 36.0873C10.2458 36.0873 10.8429 36.3347 11.2918 36.7836L19.1204 44.6119C19.1208 44.6124 19.1212 44.613 19.1217 44.6135L24.9938 50.4853L33.2154 58.7068C33.6642 59.1558 33.9114 59.7528 33.9114 60.3881ZM26.8353 46.5265L25.1535 44.845L23.472 43.1632L43.162 23.4732L46.5258 26.8368L26.8353 46.5265ZM62.0691 33.2157C61.6198 33.665 61.0228 33.9124 60.3877 33.9124H60.3876C59.7522 33.9124 59.1548 33.665 58.7055 33.2158L50.8812 25.3918C50.8795 25.39 50.8781 25.3881 50.8763 25.3864L44.6121 19.1227C44.6112 19.1218 44.6101 19.1209 44.6093 19.12L36.7827 11.2938C35.8556 10.3663 35.8556 8.85719 36.7822 7.92996C37.2316 7.48057 37.8291 7.23311 38.4646 7.23311C39.0998 7.23311 39.6972 7.48057 40.1465 7.92983L43.2693 11.0525C43.2722 11.0555 43.2749 11.0588 43.2779 11.0616L58.9377 26.7209C58.9392 26.7224 58.9405 26.7237 58.942 26.725L62.0693 29.8523C62.5186 30.3015 62.7662 30.8987 62.7662 31.5341C62.7661 32.1694 62.5186 32.7664 62.0691 33.2157Z" fill="#323140"/>
</svg>
