<svg width="70" height="71" viewBox="0 0 70 71" fill="none" xmlns="http://www.w3.org/2000/svg">
<path fill-rule="evenodd" clip-rule="evenodd" d="M46.0254 7.72249C43.703 7.72249 41.4757 8.64505 39.8336 10.2872L13.0294 37.0914C10.2927 39.8281 8.75521 43.5399 8.75521 47.4102C8.75521 51.2806 10.2927 54.9924 13.0294 57.7291C15.7661 60.4658 19.478 62.0033 23.3483 62.0033C27.2186 62.0033 30.9304 60.4658 33.6671 57.7291L60.4713 30.9249C61.6103 29.7859 63.4571 29.7859 64.5961 30.9249C65.7351 32.0639 65.7351 33.9107 64.5961 35.0497L37.7919 61.8539C33.9612 65.6846 28.7657 67.8366 23.3483 67.8366C17.9309 67.8366 12.7353 65.6846 8.90463 61.8539C5.07394 58.0232 2.92188 52.8276 2.92188 47.4102C2.92188 41.9928 5.07394 36.7973 8.90463 32.9666L35.7088 6.16242C38.4449 3.4263 42.1559 1.88916 46.0254 1.88916C49.8948 1.88916 53.6058 3.4263 56.3419 6.16242C59.078 8.89854 60.6152 12.6095 60.6152 16.479C60.6152 20.3484 59.078 24.0594 56.3419 26.7955L29.5086 53.5997C27.867 55.2413 25.6406 56.1635 23.3191 56.1635C20.9976 56.1635 18.7712 55.2413 17.1296 53.5997C15.4881 51.9582 14.5659 49.7317 14.5659 47.4102C14.5659 45.0887 15.4881 42.8623 17.1296 41.2208L41.8933 16.4862C43.033 15.3478 44.8798 15.3489 46.0181 16.4886C47.1565 17.6283 47.1554 19.4751 46.0157 20.6134L21.2544 45.3455C20.7076 45.893 20.3992 46.6364 20.3992 47.4102C20.3992 48.1846 20.7068 48.9273 21.2544 49.4749C21.802 50.0225 22.5447 50.3301 23.3191 50.3301C24.0935 50.3301 24.8362 50.0225 25.3838 49.4749L52.2171 22.6708C53.8586 21.0287 54.7818 18.8008 54.7818 16.479C54.7818 14.1566 53.8593 11.9294 52.2171 10.2872C50.575 8.64505 48.3477 7.72249 46.0254 7.72249Z" fill="#323140"/>
</svg>
