<svg width="70" height="70" viewBox="0 0 70 70" fill="none" xmlns="http://www.w3.org/2000/svg">
<path fill-rule="evenodd" clip-rule="evenodd" d="M34.9778 37.718H34.7458C30.4986 37.6455 27.0631 36.1524 24.5408 33.2968C18.9599 27.0056 19.8877 16.2208 19.9891 15.1916C20.3515 7.40733 24.0625 3.71091 27.1066 1.98592C30.1362 0.260924 33.2963 0 34.9053 0H34.9923H35.0502H35.1517C38.0799 0.057983 40.7036 0.75378 42.9504 2.0439C45.9655 3.7689 49.6185 7.46532 49.9809 15.1916C50.0823 16.2208 51.0101 27.0056 45.4292 33.2968C42.8924 36.1524 39.4569 37.6455 35.2097 37.718H35.0647H34.9778ZM23.8679 15.4845C23.8639 15.5061 23.8595 15.53 23.8595 15.5539C23.845 15.6409 22.8593 25.5415 27.4545 30.702C29.2664 32.7604 31.7162 33.7751 34.9053 33.8041H34.9778H35.0502C38.2538 33.7751 40.6891 32.7604 42.5156 30.702C47.1252 25.5125 46.1105 15.6554 46.096 15.5539C46.0815 15.525 46.0815 15.4815 46.0815 15.438C45.6321 5.60986 38.9786 4.01533 35.0647 3.92835H34.9488H34.8908C31.7307 3.92835 24.3524 5.04452 23.874 15.438C23.874 15.451 23.8711 15.467 23.8679 15.4845ZM64.7665 55.5622V55.6057C64.781 56.3595 64.7955 60.2299 64.0708 62.1578C63.9258 62.5347 63.6504 62.8536 63.317 63.071L63.3108 63.075C62.7922 63.4036 52.3845 70 35.0212 70C17.5828 70 7.1604 63.361 6.72552 63.071C6.37763 62.8536 6.1167 62.5347 5.97174 62.1578C5.20347 60.2154 5.21797 56.345 5.23246 55.5912V55.5477C5.24696 55.4318 5.24696 55.3158 5.24696 55.1854L5.24762 55.1635C5.33493 52.2956 5.53838 45.6127 11.8135 43.4583C11.857 43.4438 11.9005 43.4293 11.9585 43.4148C18.5251 41.7478 23.932 37.9789 23.99 37.9354C24.8742 37.3121 26.0919 37.5295 26.7152 38.4138C27.3385 39.298 27.1211 40.5156 26.2368 41.139C26.2258 41.1461 26.2036 41.161 26.1707 41.1832C25.47 41.6555 19.8973 45.4114 13.0022 47.1837C9.62468 48.3868 9.24779 51.9963 9.14632 55.3013C9.14632 55.3685 9.14248 55.4318 9.13875 55.4932C9.13523 55.5512 9.13182 55.6074 9.13182 55.6637C9.10283 56.9683 9.2043 58.9832 9.43623 60.1429C11.799 61.4765 21.0618 66.1007 35.0068 66.1007C49.0097 66.1007 58.2145 61.491 60.5628 60.1574C60.7947 58.9977 60.8817 56.9828 60.8672 55.6782C60.8527 55.5622 60.8527 55.4463 60.8527 55.3158C60.7512 52.0108 60.3743 48.4013 56.9968 47.1982C49.7779 45.3427 44.0086 41.3274 43.7622 41.1535C42.8779 40.5301 42.6605 39.3125 43.2838 38.4283C43.9072 37.544 45.1248 37.3266 46.009 37.9499C46.067 37.9934 51.5029 41.7623 58.0405 43.4293C58.0623 43.4365 58.0876 43.4438 58.113 43.451C58.1384 43.4583 58.1637 43.4655 58.1855 43.4728C64.4617 45.613 64.6641 52.2978 64.7514 55.1793L64.7521 55.1998C64.7521 55.267 64.7559 55.3303 64.7596 55.3918C64.7631 55.4497 64.7665 55.506 64.7665 55.5622Z" fill="#323140"/>
</svg>
